<?xml version="1.0" encoding="utf-8"?>
<!-- Generator: Adobe Illustrator 20.1.0, SVG Export Plug-In . SVG Version: 6.00 Build 0)  -->
<svg version="1.1" id="Layer_1" xmlns="http://www.w3.org/2000/svg" xmlns:xlink="http://www.w3.org/1999/xlink" x="0px" y="0px"
	 viewBox="0 0 400 400" style="enable-background:new 0 0 400 400;" xml:space="preserve">
<style type="text/css">
	.st0{fill:#6BB064;enable-background:new    ;}
	.st1{clip-path:url(#SVGID_2_);}
	.st2{fill:#3E7A90;}
	.st3{fill:#020202;}
	.st4{fill:#FFFFFF;}
	.st5{fill:#343C1C;}
	.st6{fill:url(#SVGID_3_);}
	.st7{fill:none;stroke:#FFFFFF;stroke-width:0.1;stroke-miterlimit:10;}
	.st8{fill:#CEA641;}
	.st9{fill:#C69453;}
	.st10{fill:#6BB064;}
	.st11{clip-path:url(#SVGID_5_);fill:#6BB064;}
	.st12{fill:#92CB64;}
</style>
<path class="st0" d="M0,0"/>
<g id="Layer_1_1_">
</g>
<g>
	<defs>
		<circle id="SVGID_1_" cx="202" cy="200.5" r="196.5"/>
	</defs>
	<clipPath id="SVGID_2_">
		<use xlink:href="#SVGID_1_"  style="overflow:visible;"/>
	</clipPath>
	<g class="st1">
		<circle class="st2" cx="200" cy="200" r="196"/>
		<g>
			<path class="st3" d="M80.2,248.4c0,0-6-16.2,20-45.6c0,0,4.3-14.1-3-16.2c-7.3-2.1-8.7-0.5-14.8-4.4c0,0-15.9-1.7-21.3,3.4
				s-22.3,4.2-22.3,4.2s-1.7-4.7,10.3-9.1c12-4.4,27.7-20.1,27.7-20.1s0.5-15.9,16.9-19.9c16.4-4,55.4,0,40.7,54.7
				c0,0-2,6.1,0.7,8.3c0,0,66.2-34.9,179.7-9.2c0,0,24.9-6.2,32,0.3L333,200c0,0,0,5.5,37.9-1.7c0,0,3.5,3.6-10.6,9
				s-20.9,13.3-20.9,13.3s-17.8,24-56.5,27.3S158.5,257.6,80.2,248.4z"/>
			<path class="st4" d="M308.1,238.7l-30.6,14c-3,1.4-6.6,0-8-3l-5.1-11.2c-1.4-3,0-6.6,3-8l30.6-14c3-1.4,6.6,0,8,3l5.1,11.2
				C312.5,233.7,311.1,237.3,308.1,238.7z"/>
			<path class="st4" d="M159.2,220.4c0,0,33.5,0,50.5-7.2s51.8-1.3,51.8-1.3s-7.4,1.5-15.7,6.5s-69,17.9-69,17.9L159.2,220.4z"/>
			<path class="st5" d="M247.2,217.9c0,0,11-7.2,34-4.6c0,0-7.4,3.6-9.7,7.8C269.1,225.3,247.2,217.9,247.2,217.9z"/>
			
				<radialGradient id="SVGID_3_" cx="192.8409" cy="117.2943" r="118.8079" gradientTransform="matrix(1 0 0 -1 0 402)" gradientUnits="userSpaceOnUse">
				<stop  offset="0" style="stop-color:#000000"/>
				<stop  offset="0.8725" style="stop-color:#CEA641"/>
				<stop  offset="0.9903" style="stop-color:#D2B156"/>
			</radialGradient>
			<path class="st6" d="M80.2,247.8c0,0-4.4-12.4,11.1-35.8c0,0,15.1-19.8,31.5-9.4c0,0,10.4,8,15.4,13.4c0,0,7-4.4,21.8,4.7
				c14.7,9,36.5,3.7,36.5,3.7s35.5-13.1,83.7-2l-2.3,1.7c0,0,28.5,2.7,4.4,23.8C282.2,247.8,203.8,258.6,80.2,247.8z"/>
			<path class="st4" d="M98.1,185.4c0,0-2-2.6-5.6-3.2c-3.6-0.5-13.4-16.1-9.3-28.8c0,0,6.4-9.2,17.9-8.2c0,0,7-0.5,0.5,2.1
				c-6.4,2.6-10.2,4.2-10.2,4.2s-3.1,10.2,4.5,23.9S98.1,185.4,98.1,185.4z"/>
			<circle class="st7" cx="98.6" cy="155.9" r="3.8"/>
			<circle class="st4" cx="97.3" cy="154.8" r="0.4"/>
			<g>
				<path class="st8" d="M213.6,201.6c0,0,0.6,0,1.6,0c0.9,0,2,0,3.1-0.2c0.5,0,1.1-0.1,1.6-0.2c0.5-0.1,1-0.2,1.5-0.2
					c0.5-0.1,0.9-0.1,1.1-0.2c0.3,0,0.5,0,0.5,0s-0.3,0.6-1.1,1.3c-0.4,0.3-0.9,0.6-1.5,0.9c-0.6,0.3-1.2,0.4-1.9,0.5
					c-0.7,0-1.4,0-2-0.1s-1.2-0.4-1.6-0.6C213.9,202.2,213.6,201.6,213.6,201.6z"/>
				<path class="st8" d="M155.6,218.1c0,0,0.8-0.4,1.9-0.7c1.1-0.3,2.7-0.6,4.2-0.8s3-0.2,4.2-0.3c1.1,0,2-0.1,2-0.1
					s-0.6,0.7-1.7,1.2c-1.1,0.6-2.7,1-4.3,1.1c-1.6,0.2-3.2,0.1-4.3-0.1C156.3,218.4,155.6,218.1,155.6,218.1z"/>
				<path class="st8" d="M159.8,203.5c0,0,0.5-0.4,1.2-0.7s1.7-0.6,2.8-0.8c1-0.1,2.1-0.1,2.9,0.1c0.8,0.1,1.3,0.4,1.3,0.4
					s-0.5,0.4-1.2,0.7s-1.7,0.6-2.8,0.8c-1,0.1-2.1,0.1-2.9-0.1C160.4,203.8,159.8,203.5,159.8,203.5z"/>
				<path class="st8" d="M138,212.7c0,0,0.4-0.6,1.2-1.1c0.8-0.6,1.8-1.2,3-1.7c1.1-0.5,2.4-0.8,3.3-0.9c1-0.1,1.7-0.1,1.7-0.1
					s-0.4,0.6-1.2,1.1c-0.8,0.6-1.8,1.2-3,1.7c-1.1,0.5-2.4,0.8-3.3,0.9C138.7,212.7,138,212.7,138,212.7z"/>
				<path class="st8" d="M172.1,197.3c0,0,0.4-0.4,1-0.7s1.4-0.6,2.2-0.6c0.8-0.1,1.7,0,2.3,0.2s1.1,0.5,1.1,0.5s-0.4,0.4-1,0.7
					s-1.4,0.5-2.2,0.6s-1.7,0-2.3-0.2C172.5,197.6,172.1,197.3,172.1,197.3z"/>
				<path class="st8" d="M136.5,209c0,0-0.1-0.2-0.1-0.5s0-0.8,0.2-1.3s0.5-1.1,1-1.6s1.1-0.9,1.7-1.3c0.3-0.2,0.6-0.3,0.9-0.4
					c0.3-0.1,0.6-0.2,0.9-0.3c0.6-0.2,1.2-0.2,1.7-0.2c1,0,1.7,0.2,1.7,0.2s-0.6,0.5-1.4,0.9c-0.4,0.3-0.9,0.5-1.4,0.7
					c-0.5,0.3-1,0.5-1.5,0.8c-0.3,0.1-0.5,0.2-0.7,0.4c-0.2,0.1-0.5,0.3-0.7,0.4c-0.4,0.3-0.8,0.6-1.2,0.9
					C136.9,208.3,136.5,209,136.5,209z"/>
				<path class="st8" d="M175.2,207c0,0,0.6-0.4,1.5-0.6c0.9-0.3,2.2-0.5,3.4-0.5s2.5,0.1,3.4,0.4c0.9,0.2,1.6,0.5,1.6,0.5
					s-0.6,0.4-1.5,0.6c-0.9,0.3-2.2,0.5-3.4,0.5s-2.5-0.1-3.4-0.4C175.8,207.3,175.2,207,175.2,207z"/>
				<path class="st8" d="M161.4,213.2c0,0,0.1-0.4,0.4-0.8c0.3-0.4,0.8-0.8,1.3-1.1c0.5-0.2,1.1-0.3,1.6-0.3s0.9,0.2,0.9,0.2
					s-0.1,0.4-0.4,0.8c-0.3,0.4-0.8,0.8-1.3,1.1c-0.5,0.2-1.1,0.3-1.7,0.3C161.8,213.4,161.4,213.2,161.4,213.2z"/>
				<path class="st8" d="M166.1,213.8c0,0,0.4-0.4,1.1-0.8c0.7-0.4,1.6-0.8,2.5-1c1-0.2,1.9-0.3,2.7-0.2s1.3,0.3,1.3,0.3
					s-0.4,0.4-1.1,0.8c-0.7,0.4-1.6,0.8-2.5,1c-1,0.2-1.9,0.3-2.7,0.2S166.1,213.8,166.1,213.8z"/>
				<path class="st8" d="M204.8,198.4c0,0,0.7-0.3,1.7-0.5s2.4-0.4,3.8-0.4c1.4,0,2.7,0.2,3.7,0.5s1.7,0.6,1.7,0.6s-0.7,0.3-1.7,0.5
					s-2.4,0.4-3.8,0.4c-1.4,0-2.7-0.2-3.7-0.5C205.5,198.8,204.8,198.4,204.8,198.4z"/>
				<path class="st8" d="M200.5,197.3c0,0,0.4-0.4,1.1-0.8c0.7-0.4,1.6-0.8,2.5-1c1-0.2,1.9-0.2,2.7-0.1c0.8,0.1,1.3,0.3,1.3,0.3
					s-0.4,0.4-1.1,0.8c-0.7,0.4-1.6,0.8-2.5,1c-1,0.2-1.9,0.2-2.7,0.1C201.1,197.5,200.5,197.3,200.5,197.3z"/>
				<path class="st8" d="M187.3,211.1c0,0,0.5-0.4,1.3-0.6c0.8-0.3,1.8-0.5,2.9-0.7c1-0.1,2.1-0.1,2.9-0.1c0.4,0,0.7,0,0.9,0
					s0.4-0.1,0.4-0.1s0,0.1-0.1,0.4c-0.2,0.2-0.4,0.6-0.8,0.8c-0.8,0.5-1.9,0.9-3,1s-2.2,0-3.1-0.2
					C187.8,211.4,187.3,211.1,187.3,211.1z"/>
				<path class="st8" d="M169.6,216.9c0,0,0.4-0.5,1.1-0.9c0.7-0.4,1.7-0.8,2.7-0.9c1-0.1,2.1-0.1,2.9,0.2c0.8,0.2,1.3,0.6,1.3,0.6
					s-0.5,0.3-1.3,0.5c-0.7,0.3-1.7,0.5-2.6,0.7c-1,0.1-2,0.2-2.8,0.1C170.1,217.1,169.6,216.9,169.6,216.9z"/>
				<path class="st8" d="M151.3,208.4c0,0,0.5-0.4,1.2-0.8c0.8-0.4,1.9-0.7,3-0.7s2.3,0.2,3,0.7c0.8,0.4,1.1,1,1.1,1
					s-0.6,0.1-1.4,0.2c-0.8,0.1-1.8,0.2-2.8,0.2s-2-0.1-2.8-0.2C151.9,208.6,151.3,208.4,151.3,208.4z"/>
				<path class="st8" d="M230.3,199.8c0,0,0.6-0.5,1.6-0.9s2.5-0.8,4-0.8c0.7,0,1.5,0.1,2.2,0.2c0.7,0.1,1.3,0.4,1.8,0.6
					c0.5,0.2,0.9,0.5,1.2,0.7s0.4,0.3,0.4,0.3s-0.2,0-0.5,0s-0.8,0-1.3,0c-1,0-2.4,0-3.8,0c-1.4,0-2.7,0-3.8-0.1
					C231.1,199.9,230.3,199.8,230.3,199.8z"/>
				<path class="st4" d="M68.8,181.4c0,0,2.3-1.2,4.6-2.4c1.1-0.6,2.3-1.2,3.2-1.5c0.9-0.4,1.5-0.5,1.5-0.5l0,0c0,0-0.5,0.4-1.4,0.9
					c-0.8,0.5-2,1-3.2,1.5C71.2,180.4,68.8,181.4,68.8,181.4L68.8,181.4z"/>
				<path class="st8" d="M209,190c0,0,0.8-0.1,2-0.3c1.2-0.1,2.8-0.3,4.5-0.3c1.6,0,3.3,0,4.5,0.1c0.6,0.1,1.1,0.2,1.5,0.3
					c0.3,0.1,0.5,0.2,0.5,0.2s-0.2-0.1-0.5-0.1c-0.3-0.1-0.9-0.1-1.5-0.1c-1.2,0-2.8,0-4.4,0.1c-1.6,0-3.2,0.1-4.5,0.1
					S209,190,209,190z"/>
				<path class="st8" d="M244.6,187.7c0,0,0.8-0.1,2.2-0.2c1.4-0.1,3.4-0.2,5.9-0.3c2.4,0,5.2-0.1,8.3-0.1c3,0,6.3,0.1,9.5,0.3
					s6.5,0.4,9.5,0.8c3,0.3,5.8,0.8,8.2,1.2c1.2,0.2,2.3,0.4,3.3,0.7c1,0.2,1.8,0.4,2.5,0.6c1.4,0.4,2.1,0.7,2.1,0.7
					s-0.8-0.1-2.2-0.3c-1.4-0.2-3.4-0.4-5.8-0.6c-2.4-0.2-5.2-0.4-8.2-0.5c-3-0.2-6.2-0.3-9.4-0.5c-3.2-0.2-6.4-0.4-9.4-0.5
					c-3-0.2-5.8-0.4-8.2-0.5s-4.4-0.4-5.8-0.5C245.4,187.7,244.6,187.7,244.6,187.7z"/>
				<path class="st8" d="M229.9,207.2c0,0,2.5-0.4,6.3-0.4c1.9,0,4.1,0,6.5,0.1s4.9,0.4,7.4,0.7c2.5,0.4,5,0.8,7.3,1.4
					c1.2,0.2,2.3,0.5,3.3,0.9c1,0.3,2,0.6,2.9,0.9c1.8,0.6,3.3,1.2,4.3,1.6c1,0.4,1.6,0.7,1.6,0.7s-0.6-0.1-1.7-0.3
					c-1.1-0.3-2.6-0.5-4.5-0.9c-1.8-0.3-4-0.8-6.3-1.1c-1.1-0.2-2.3-0.4-3.6-0.6c-1.2-0.2-2.4-0.4-3.7-0.5c-2.5-0.4-4.9-0.7-7.3-1
					c-2.3-0.3-4.5-0.5-6.4-0.8C232.4,207.5,229.9,207.2,229.9,207.2z"/>
				<path class="st8" d="M272.8,212.1c0,0,0.8-0.4,1.9-0.7s2.7-0.6,4.2-0.7c1.5-0.1,3.1-0.1,4.3,0.1c1.2,0.2,2,0.4,2,0.4
					s-0.8,0.4-1.9,0.7s-2.7,0.6-4.2,0.7c-1.5,0.1-3.1,0-4.3-0.1S272.8,212.1,272.8,212.1z"/>
				<path class="st8" d="M260.8,199.5c0,0,0.6,0,1.6,0.2c1,0.1,2.4,0.3,4.1,0.6c3.4,0.5,7.8,1.4,12.2,2.5c2.2,0.6,4.4,1.1,6.4,1.8
					c2,0.6,3.9,1.2,5.5,1.8s2.9,1.2,3.8,1.6c0.5,0.2,0.8,0.4,1,0.6c0.2,0.1,0.4,0.2,0.4,0.2s-0.6-0.2-1.5-0.4c-1-0.3-2.4-0.5-4-0.9
					c-3.3-0.7-7.7-1.7-12.1-2.7c-4.4-1.1-8.7-2.3-12-3.3c-1.6-0.5-3-1-3.9-1.3C261.3,199.7,260.8,199.5,260.8,199.5z"/>
				<path class="st8" d="M270.6,197.7c0,0,1.8,0,4.3,0.3c2.6,0.3,6,0.9,9.4,1.6c3.4,0.8,6.7,1.7,9.1,2.7c2.5,0.9,4,1.8,4,1.8
					s-1.7-0.3-4.3-0.7c-2.5-0.4-5.9-1.1-9.3-1.8c-3.3-0.8-6.7-1.7-9.1-2.5C272.3,198.4,270.6,197.7,270.6,197.7z"/>
				<path class="st8" d="M283.9,195.4c0,0,1.7-0.3,4.3-0.4c2.6-0.1,6-0.1,9.4,0.1c1.7,0.1,3.4,0.3,5,0.5s3.1,0.5,4.3,0.8
					c0.6,0.1,1.2,0.3,1.7,0.5c0.5,0.1,0.9,0.4,1.3,0.5s0.6,0.3,0.8,0.4c0.2,0.1,0.3,0.2,0.3,0.2s-0.4-0.1-1.1-0.2
					c-0.7-0.1-1.8-0.1-3-0.2c-2.5-0.1-5.9-0.3-9.3-0.5c-3.4-0.3-6.7-0.6-9.3-1C285.6,195.8,283.9,195.4,283.9,195.4z"/>
				<path class="st8" d="M215.7,196.3c0,0,0.4-0.4,1.1-0.8c0.7-0.4,1.6-0.7,2.5-0.9s1.9-0.1,2.7,0c0.7,0.1,1.3,0.4,1.3,0.4
					s-0.4,0.4-1.1,0.8c-0.7,0.4-1.6,0.7-2.5,0.9c-0.9,0.1-1.9,0.1-2.7,0C216.2,196.5,215.7,196.3,215.7,196.3z"/>
				<path class="st8" d="M223.4,192.3c0,0,0.4-0.3,1-0.6s1.3-0.4,2.1-0.4s1.5,0.2,2.1,0.4s1,0.6,1,0.6s-0.4,0.3-1,0.6
					s-1.3,0.4-2.1,0.4s-1.5-0.2-2.1-0.4C223.8,192.7,223.4,192.3,223.4,192.3z"/>
				<path class="st8" d="M295.2,217.2c0,0,9.9-7.4,20.5-13.8c2.6-1.6,5.3-3.2,7.8-4.6c2.6-1.3,5.1-2.4,7.3-3.1
					c1.1-0.4,2.2-0.6,3.1-0.8s1.8-0.3,2.5-0.3s1.3,0.1,1.6,0.2c0.4,0.1,0.5,0.2,0.5,0.2l-0.1,0.2c0,0-0.2,0-0.5,0s-0.9,0-1.5,0.2
					c-1.3,0.3-3,0.9-5.1,1.9s-4.4,2.2-7,3.5s-5.3,2.7-8,4.1c-10.7,6-21.1,12.6-21.1,12.6L295.2,217.2z"/>
			</g>
			<g>
				<path class="st4" d="M42.1,186.4c0,0,0.8,0,2.1-0.3c1.2-0.2,2.9-0.6,4.4-1.1c0.8-0.2,1.5-0.6,2.3-0.8c0.7-0.2,1.5-0.3,2.1-0.4
					c1.3-0.2,2.2-0.1,2.2-0.1l0.1,0.2c0,0-0.6,0.7-1.8,1.4c-0.6,0.3-1.3,0.7-2,0.9c-0.8,0.2-1.7,0.3-2.5,0.4
					c-1.7,0.2-3.4,0.3-4.7,0.2S42.2,186.5,42.1,186.4L42.1,186.4z"/>
				<path class="st4" d="M77,161.8c0,0,0.1,1.2,0.3,2.5c0.1,0.6,0.1,1.2,0,1.7s-0.2,0.8-0.2,0.8H77c0,0-0.1-0.3-0.2-0.8
					s-0.1-1.1-0.1-1.7C76.9,163.1,76.9,161.8,77,161.8L77,161.8z"/>
				<path class="st4" d="M275.2,207.8c0,0-8.1-1.1-16.1-2.5c-2-0.3-4-0.6-5.9-1s-3.6-0.9-5-1.4c-0.7-0.2-1.4-0.5-2-0.7
					s-1.1-0.5-1.5-0.7c-0.8-0.4-1.3-0.7-1.3-0.7l0.1-0.2c0,0,0.5,0.1,1.4,0.2c0.9,0.1,2.1,0.3,3.6,0.5s3.2,0.5,5.1,0.9
					c1.8,0.5,3.8,1,5.8,1.5c7.9,1.9,15.8,3.9,15.8,3.9V207.8z"/>
				<path class="st4" d="M247.5,195.2c0,0,1.5-0.1,3.6,0s5,0.4,7.8,0.8c2.8,0.4,5.6,1.1,7.7,1.6c2.1,0.6,3.4,1.1,3.4,1.1
					s-1.5,0.1-3.6,0s-5-0.4-7.8-0.8c-2.8-0.4-5.6-1.1-7.7-1.6C248.8,195.8,247.5,195.2,247.5,195.2z"/>
				<path class="st4" d="M301.6,203.7c0,0-2.1,0.2-5.1-0.2c-0.8-0.1-1.6-0.2-2.4-0.4c-0.9-0.2-1.7-0.6-2.6-0.9
					c-0.9-0.3-1.9-0.6-2.8-0.8c-1-0.2-2-0.3-3-0.3c-1-0.1-2.1-0.1-3-0.2c-1-0.1-2-0.3-2.9-0.4c-1.9-0.3-3.6-0.7-5.1-1.1
					c-1.5-0.4-2.7-0.9-3.5-1.2s-1.3-0.6-1.3-0.6v-0.2c0,0,0.5,0,1.4,0s2.2,0.1,3.7,0.2c1.5,0.2,3.3,0.4,5.2,0.8
					c0.9,0.2,1.9,0.5,2.9,0.7s1.9,0.6,2.9,0.9c1,0.3,2,0.6,2.9,0.8c1,0.2,2,0.3,2.9,0.3c1,0.1,1.9,0.1,2.8,0.2
					c0.9,0.1,1.7,0.3,2.4,0.5c3,0.7,4.9,1.7,4.9,1.7L301.6,203.7z"/>
				<path class="st4" d="M280.9,191.1c0,0,2.6-0.5,6.4-0.5c1,0,2,0,3.1,0.2c1.1,0.1,2.2,0.4,3.4,0.6c2.4,0.5,4.9,0.6,7.5,0.6
					c1.3,0,2.6,0,3.8,0.2c1.3,0.2,2.5,0.4,3.7,0.6c2.4,0.5,4.5,1.5,6.2,2.2c0.9,0.3,1.6,0.6,2.3,0.8c0.7,0.2,1.3,0.1,1.8,0.1
					c0.5-0.1,0.9-0.2,1.2-0.2c0.3-0.1,0.4-0.1,0.4-0.1l0.1,0.2c0,0-0.1,0.1-0.4,0.3c-0.2,0.2-0.6,0.4-1.2,0.7
					c-0.6,0.2-1.3,0.4-2.1,0.4c-0.9,0-1.8-0.1-2.8-0.3c-1.9-0.5-4-1.2-6.2-1.8c-1.1-0.3-2.3-0.6-3.5-0.9c-1.2-0.2-2.4-0.5-3.7-0.8
					c-1.2-0.3-2.5-0.5-3.7-0.6s-2.5-0.2-3.7-0.1c-1.2,0-2.4,0.1-3.4,0.1c-1.1,0-2.1-0.1-3.1-0.2c-3.8-0.4-6.3-1.1-6.3-1.1
					L280.9,191.1z"/>
				<path class="st4" d="M287.9,209.4c0,0-0.4-0.2-1.2-0.4c-0.8-0.2-1.9-0.5-3.2-0.8c-2.6-0.7-6.2-1.5-9.7-2.4
					c-1.8-0.4-3.5-0.8-5.2-1.2c-1.6-0.5-3.1-1-4.4-1.5c-2.6-1-4.2-1.9-4.2-1.9l0.1-0.2c0,0,1.9,0,4.6,0.5c1.3,0.2,2.9,0.6,4.6,1
					c1.6,0.5,3.3,1.1,5.1,1.7c3.5,1.2,6.9,2.3,9.5,3.3c1.3,0.5,2.3,0.9,3.1,1.2c0.7,0.3,1.2,0.5,1.2,0.5L287.9,209.4z"/>
				<path class="st4" d="M249,205.5c0,0,1.4,0.1,3.4,0.5c2,0.3,4.6,0.9,7.2,1.6c2.6,0.7,5.1,1.4,7.1,1.9c1.9,0.5,3.2,0.9,3.2,0.9
					s-1.4,0.3-3.4,0.2c-2.1,0-4.7-0.4-7.4-1.1c-2.6-0.7-5.2-1.6-7-2.4C250.2,206.2,249,205.5,249,205.5z"/>
				<path class="st4" d="M172.6,212.5c0,0,0.7-0.2,1.5-0.3c0.4-0.1,0.9-0.2,1.4-0.3s1-0.2,1.5-0.3s0.9-0.3,1.4-0.4
					c0.4-0.2,0.7-0.4,1-0.6c0.3-0.3,0.6-0.5,0.7-0.7c0.2-0.2,0.3-0.3,0.3-0.3s0,0.2,0.1,0.4c0.1,0.3,0,0.7-0.1,1.2
					c-0.2,0.5-0.5,1.1-1.1,1.5c-0.3,0.2-0.6,0.4-0.9,0.5c-0.3,0.1-0.6,0.3-1,0.3c-1.3,0.3-2.6,0.1-3.5-0.3
					C173.1,213,172.6,212.5,172.6,212.5z"/>
				<path class="st4" d="M170.2,204.5c0,0,0.5-0.1,1.3-0.1s1.9-0.1,2.9,0c1,0,2.1,0.1,2.9,0.2c0.4,0,0.7,0,0.9,0s0.4,0,0.4,0
					s-0.4,0.4-1.3,0.6c-0.8,0.2-1.9,0.3-3,0.3s-2.1-0.2-2.9-0.4C170.7,204.7,170.2,204.5,170.2,204.5z"/>
				<path class="st4" d="M221.8,204.1c0,0,0.8,0,2,0s2.8,0.1,4.3,0.1c0.8,0,1.6,0,2.3,0.1c0.7,0,1.4,0,2-0.1s1-0.1,1.4-0.2
					c0.3-0.1,0.5-0.2,0.5-0.2s-0.1,0.1-0.4,0.4c-0.3,0.2-0.8,0.5-1.3,0.6c-1.2,0.4-2.8,0.5-4.4,0.4c-1.6-0.1-3.2-0.3-4.3-0.6
					C222.5,204.4,221.8,204.1,221.8,204.1z"/>
				<path class="st4" d="M192.6,202c0,0,1.1-0.2,2.7-0.3c1.6-0.1,3.7-0.1,5.8,0.1c2.1,0.2,4.2,0.4,5.8,0.7s2.6,0.5,2.6,0.5
					s-1,0.5-2.7,0.7c-1.6,0.2-3.8,0.3-5.9,0.1c-2.1-0.2-4.2-0.5-5.8-1C193.6,202.4,192.6,202,192.6,202z"/>
				<path class="st4" d="M188.2,196.6c0,0,0.7-0.4,1.7-0.7s2.4-0.6,3.8-0.8c1.4-0.1,2.8-0.2,3.8-0.1c0.5,0,1,0,1.3,0
					s0.4-0.1,0.5-0.1c0,0,0,0.2-0.3,0.5s-0.7,0.5-1.2,0.7c-1,0.5-2.4,0.8-3.9,1c-1.4,0.1-2.9,0.1-3.9-0.1
					C188.9,196.9,188.2,196.6,188.2,196.6z"/>
				<path class="st4" d="M326.8,218.9c0,0,0.7-0.3,1.8-0.9c1.2-0.5,2.9-1.4,4.9-2.3c4.1-1.9,9.5-4.2,15-6.5s11-4.5,15.1-6.3
					c2-0.9,3.7-1.6,4.8-2.3c0.6-0.3,1-0.6,1.3-0.8c0.2-0.2,0.4-0.4,0.4-0.4s-0.1,0.2-0.3,0.4c-0.2,0.3-0.6,0.7-1.1,1.1
					c-1,0.8-2.6,1.9-4.5,3c-3.9,2.3-9.3,4.8-14.8,7.1s-11.1,4.3-15.4,5.7c-2.1,0.7-3.9,1.2-5.2,1.6
					C327.5,218.8,326.8,218.9,326.8,218.9z"/>
				<path class="st4" d="M287,220.9c0,0,0.4-0.3,1.1-0.8s1.7-1.2,2.9-2c2.4-1.6,5.8-3.6,9.2-5.4c3.4-1.8,6.9-3.5,9.6-4.7
					s4.5-1.9,4.5-1.9s-0.4,0.4-1,0.9c-0.7,0.5-1.7,1.3-2.9,2.1c-2.4,1.6-5.8,3.6-9.2,5.5c-3.4,1.8-6.9,3.5-9.6,4.7
					c-1.3,0.6-2.5,1-3.3,1.3C287.5,220.7,287,220.9,287,220.9z"/>
				<path class="st4" d="M279.2,222c0,0,1-0.9,2.5-1.9c1.6-1.1,3.7-2.4,6-3.5c2.2-1.1,4.6-2.1,6.4-2.7c0.9-0.3,1.7-0.5,2.2-0.7
					c0.5-0.1,0.9-0.2,0.9-0.2s-0.3,0.2-0.7,0.5c-0.4,0.3-1.1,0.8-1.9,1.3c-1.6,1.1-3.7,2.3-6,3.5c-2.2,1.1-4.5,2.1-6.3,2.7
					C280.5,221.8,279.2,222,279.2,222z"/>
			</g>
			<g>
				<g>
					<path d="M81.2,242.3c0,0,0.2-0.4,0.8-0.5c0.3-0.1,0.6,0,1,0.2c0.3,0.2,0.6,0.5,0.8,0.8c0.1,0.3,0.2,0.6,0.2,0.9
						c0,0.3-0.1,0.6-0.2,0.8c-0.2,0.4-0.5,0.7-0.5,0.7s-0.3-0.3-0.6-0.6c-0.2-0.1-0.3-0.3-0.4-0.5s-0.2-0.3-0.3-0.4
						c0-0.1-0.1-0.2-0.1-0.4c0-0.1-0.1-0.3-0.1-0.4C81.5,242.6,81.2,242.3,81.2,242.3z"/>
					<path d="M81.2,237.2c0,0,0.2-0.4,0.8-0.5c0.3-0.1,0.6,0,1,0.2c0.3,0.2,0.6,0.5,0.8,0.8c0.1,0.3,0.2,0.6,0.2,0.9
						c0,0.3-0.1,0.6-0.2,0.8c-0.2,0.4-0.5,0.7-0.5,0.7s-0.3-0.3-0.6-0.6c-0.2-0.1-0.3-0.3-0.4-0.5s-0.2-0.3-0.3-0.4
						c0-0.1-0.1-0.2-0.1-0.4c0-0.1-0.1-0.3-0.1-0.4C81.5,237.5,81.2,237.2,81.2,237.2z"/>
					<path d="M81.4,230.9c0,0,0.2-0.4,0.8-0.5c0.3-0.1,0.6,0,1,0.2c0.3,0.2,0.6,0.5,0.8,0.8c0.1,0.3,0.2,0.6,0.2,0.9
						c0,0.3-0.1,0.6-0.2,0.8c-0.2,0.4-0.5,0.7-0.5,0.7s-0.3-0.3-0.6-0.6c-0.2-0.1-0.3-0.3-0.4-0.5s-0.2-0.3-0.3-0.4
						c0-0.1-0.1-0.2-0.1-0.4c0-0.1-0.1-0.3-0.1-0.4C81.7,231.2,81.4,230.9,81.4,230.9z"/>
					<path d="M84.7,225c0,0,0.2-0.4,0.8-0.5c0.3-0.1,0.6,0,1,0.2c0.3,0.2,0.6,0.5,0.8,0.8c0.1,0.3,0.2,0.6,0.2,0.9
						c0,0.3-0.1,0.6-0.2,0.8c-0.2,0.4-0.5,0.7-0.5,0.7s-0.3-0.3-0.6-0.6c-0.2-0.1-0.3-0.3-0.4-0.5s-0.2-0.3-0.3-0.4
						c0-0.1-0.1-0.2-0.1-0.4c0-0.1-0.1-0.3-0.1-0.4C85,225.3,84.7,225,84.7,225z"/>
					<path d="M87.1,220.5c0,0,0.2-0.4,0.8-0.5c0.3-0.1,0.6,0,1,0.2c0.3,0.2,0.6,0.5,0.8,0.8c0.1,0.3,0.2,0.6,0.2,0.9
						c0,0.3-0.1,0.6-0.2,0.8c-0.2,0.4-0.5,0.7-0.5,0.7s-0.3-0.3-0.6-0.6c-0.2-0.1-0.3-0.3-0.4-0.5s-0.2-0.3-0.3-0.4
						c0-0.1-0.1-0.2-0.1-0.4c0-0.1-0.1-0.3-0.1-0.4C87.4,220.8,87.1,220.5,87.1,220.5z"/>
					<path d="M89.4,216.2c0,0,0.2-0.4,0.8-0.5c0.3-0.1,0.6,0,1,0.2c0.3,0.2,0.6,0.5,0.8,0.8c0.1,0.3,0.2,0.6,0.2,0.9
						c0,0.3-0.1,0.6-0.2,0.8c-0.2,0.4-0.5,0.7-0.5,0.7s-0.3-0.3-0.6-0.6c-0.2-0.1-0.3-0.3-0.4-0.5s-0.2-0.3-0.3-0.4
						c0-0.1-0.1-0.2-0.1-0.4c0-0.1-0.1-0.3-0.1-0.4C89.7,216.5,89.4,216.2,89.4,216.2z"/>
					<path d="M91.4,212.4c0,0,0.2-0.4,0.8-0.5c0.3-0.1,0.6,0,1,0.2c0.3,0.2,0.6,0.5,0.8,0.8c0.1,0.3,0.2,0.6,0.2,0.9
						c0,0.3-0.1,0.6-0.2,0.8c-0.2,0.4-0.5,0.7-0.5,0.7s-0.3-0.3-0.6-0.6c-0.2-0.1-0.3-0.3-0.4-0.5s-0.2-0.3-0.3-0.4
						c0-0.1-0.1-0.2-0.1-0.4c0-0.1-0.1-0.3-0.1-0.4C91.7,212.7,91.4,212.4,91.4,212.4z"/>
					<path d="M93.5,208.6c0,0,0.2-0.4,0.8-0.5c0.3-0.1,0.6,0,1,0.2c0.3,0.2,0.6,0.5,0.8,0.8c0.1,0.3,0.2,0.6,0.2,0.9
						c0,0.3-0.1,0.6-0.2,0.8c-0.2,0.4-0.5,0.7-0.5,0.7s-0.3-0.3-0.6-0.6c-0.2-0.1-0.3-0.3-0.4-0.5s-0.2-0.3-0.3-0.4
						c0-0.1-0.1-0.2-0.1-0.4c0-0.1-0.1-0.3-0.1-0.4C93.8,208.9,93.5,208.6,93.5,208.6z"/>
				</g>
				<path d="M85.7,242.3c0,0,0.2-0.4,0.8-0.5c0.3-0.1,0.6,0,1,0.2c0.3,0.2,0.6,0.5,0.8,0.8c0.1,0.3,0.2,0.6,0.2,0.9
					c0,0.3-0.1,0.6-0.2,0.8c-0.2,0.4-0.5,0.7-0.5,0.7s-0.3-0.3-0.6-0.6c-0.2-0.1-0.3-0.3-0.4-0.5s-0.2-0.3-0.3-0.4
					c0-0.1-0.1-0.2-0.1-0.4c0-0.1-0.1-0.3-0.1-0.4C86,242.6,85.7,242.3,85.7,242.3z"/>
				<path d="M85.7,237.2c0,0,0.2-0.4,0.8-0.5c0.3-0.1,0.6,0,1,0.2c0.3,0.2,0.6,0.5,0.8,0.8c0.1,0.3,0.2,0.6,0.2,0.9
					c0,0.3-0.1,0.6-0.2,0.8c-0.2,0.4-0.5,0.7-0.5,0.7s-0.3-0.3-0.6-0.6c-0.2-0.1-0.3-0.3-0.4-0.5s-0.2-0.3-0.3-0.4
					c0-0.1-0.1-0.2-0.1-0.4c0-0.1-0.1-0.3-0.1-0.4C86,237.5,85.7,237.2,85.7,237.2z"/>
				<path d="M86,230.9c0,0,0.2-0.4,0.8-0.5c0.3-0.1,0.6,0,1,0.2c0.3,0.2,0.6,0.5,0.8,0.8c0.1,0.3,0.2,0.6,0.2,0.9
					c0,0.3-0.1,0.6-0.2,0.8c-0.2,0.4-0.5,0.7-0.5,0.7s-0.3-0.3-0.6-0.6c-0.2-0.1-0.3-0.3-0.4-0.5s-0.2-0.3-0.3-0.4
					c0-0.1-0.1-0.2-0.1-0.4c0-0.1-0.1-0.3-0.1-0.4C86.3,231.2,86,230.9,86,230.9z"/>
				<path d="M89.2,225c0,0,0.2-0.4,0.8-0.5c0.3-0.1,0.6,0,1,0.2c0.3,0.2,0.6,0.5,0.8,0.8c0.1,0.3,0.2,0.6,0.2,0.9
					c0,0.3-0.1,0.6-0.2,0.8c-0.2,0.4-0.5,0.7-0.5,0.7s-0.3-0.3-0.6-0.6c-0.2-0.1-0.3-0.3-0.4-0.5s-0.2-0.3-0.3-0.4
					c0-0.1-0.1-0.2-0.1-0.4c0-0.1-0.1-0.3-0.1-0.4C89.5,225.3,89.2,225,89.2,225z"/>
				<path d="M91.6,220.5c0,0,0.2-0.4,0.8-0.5c0.3-0.1,0.6,0,1,0.2c0.3,0.2,0.6,0.5,0.8,0.8c0.1,0.3,0.2,0.6,0.2,0.9
					c0,0.3-0.1,0.6-0.2,0.8c-0.2,0.4-0.5,0.7-0.5,0.7s-0.3-0.3-0.6-0.6c-0.2-0.1-0.3-0.3-0.4-0.5s-0.2-0.3-0.3-0.4
					c0-0.1-0.1-0.2-0.1-0.4c0-0.1-0.1-0.3-0.1-0.4C91.9,220.8,91.6,220.5,91.6,220.5z"/>
				<path d="M95.9,212.4c0,0,0.2-0.4,0.8-0.5c0.3-0.1,0.6,0,1,0.2c0.3,0.2,0.6,0.5,0.8,0.8c0.1,0.3,0.2,0.6,0.2,0.9
					c0,0.3-0.1,0.6-0.2,0.8c-0.2,0.4-0.5,0.7-0.5,0.7s-0.3-0.3-0.6-0.6c-0.2-0.1-0.3-0.3-0.4-0.5s-0.2-0.3-0.3-0.4
					c0-0.1-0.1-0.2-0.1-0.4c0-0.1-0.1-0.3-0.1-0.4C96.2,212.7,95.9,212.4,95.9,212.4z"/>
				<g>
					<path d="M91.5,242.3c0,0,0.2-0.4,0.8-0.5c0.3-0.1,0.6,0,1,0.2c0.3,0.2,0.6,0.5,0.8,0.8c0.1,0.3,0.2,0.6,0.2,0.9
						c0,0.3-0.1,0.6-0.2,0.8c-0.2,0.4-0.5,0.7-0.5,0.7s-0.3-0.3-0.6-0.6c-0.2-0.1-0.3-0.3-0.4-0.5s-0.2-0.3-0.3-0.4
						c0-0.1-0.1-0.2-0.1-0.4c0-0.1-0.1-0.3-0.1-0.4C91.9,242.6,91.5,242.3,91.5,242.3z"/>
					<path d="M91.5,237.2c0,0,0.2-0.4,0.8-0.5c0.3-0.1,0.6,0,1,0.2c0.3,0.2,0.6,0.5,0.8,0.8c0.1,0.3,0.2,0.6,0.2,0.9
						c0,0.3-0.1,0.6-0.2,0.8c-0.2,0.4-0.5,0.7-0.5,0.7s-0.3-0.3-0.6-0.6c-0.2-0.1-0.3-0.3-0.4-0.5s-0.2-0.3-0.3-0.4
						c0-0.1-0.1-0.2-0.1-0.4c0-0.1-0.1-0.3-0.1-0.4C91.9,237.5,91.5,237.2,91.5,237.2z"/>
					<path d="M91.8,230.9c0,0,0.2-0.4,0.8-0.5c0.3-0.1,0.6,0,1,0.2c0.3,0.2,0.6,0.5,0.8,0.8c0.1,0.3,0.2,0.6,0.2,0.9
						c0,0.3-0.1,0.6-0.2,0.8c-0.2,0.4-0.5,0.7-0.5,0.7s-0.3-0.3-0.6-0.6c-0.2-0.1-0.3-0.3-0.4-0.5s-0.2-0.3-0.3-0.4
						c0-0.1-0.1-0.2-0.1-0.4c0-0.1-0.1-0.3-0.1-0.4C92.1,231.2,91.8,230.9,91.8,230.9z"/>
					<path d="M95,225c0,0,0.2-0.4,0.8-0.5c0.3-0.1,0.6,0,1,0.2c0.3,0.2,0.6,0.5,0.8,0.8c0.1,0.3,0.2,0.6,0.2,0.9
						c0,0.3-0.1,0.6-0.2,0.8c-0.2,0.4-0.5,0.7-0.5,0.7s-0.3-0.3-0.6-0.6c-0.2-0.1-0.3-0.3-0.4-0.5s-0.2-0.3-0.3-0.4
						c0-0.1-0.1-0.2-0.1-0.4c0-0.1-0.1-0.3-0.1-0.4C95.3,225.3,95,225,95,225z"/>
					<path d="M97.4,220.5c0,0,0.2-0.4,0.8-0.5c0.3-0.1,0.6,0,1,0.2c0.3,0.2,0.6,0.5,0.8,0.8c0.1,0.3,0.2,0.6,0.2,0.9
						c0,0.3-0.1,0.6-0.2,0.8c-0.2,0.4-0.5,0.7-0.5,0.7s-0.3-0.3-0.6-0.6c-0.2-0.1-0.3-0.3-0.4-0.5s-0.2-0.3-0.3-0.4
						c0-0.1-0.1-0.2-0.1-0.4c0-0.1-0.1-0.3-0.1-0.4C97.7,220.8,97.4,220.5,97.4,220.5z"/>
					<path d="M99.7,216.2c0,0,0.2-0.4,0.8-0.5c0.3-0.1,0.6,0,1,0.2c0.3,0.2,0.6,0.5,0.8,0.8c0.1,0.3,0.2,0.6,0.2,0.9
						c0,0.3-0.1,0.6-0.2,0.8c-0.2,0.4-0.5,0.7-0.5,0.7s-0.3-0.3-0.6-0.6c-0.2-0.1-0.3-0.3-0.4-0.5s-0.2-0.3-0.3-0.4
						c0-0.1-0.1-0.2-0.1-0.4c0-0.1-0.1-0.3-0.1-0.4C100,216.5,99.7,216.2,99.7,216.2z"/>
					<path d="M101.7,212.4c0,0,0.2-0.4,0.8-0.5c0.3-0.1,0.6,0,1,0.2c0.3,0.2,0.6,0.5,0.8,0.8c0.1,0.3,0.2,0.6,0.2,0.9
						c0,0.3-0.1,0.6-0.2,0.8c-0.2,0.4-0.5,0.7-0.5,0.7s-0.3-0.3-0.6-0.6c-0.2-0.1-0.3-0.3-0.4-0.5s-0.2-0.3-0.3-0.4
						c0-0.1-0.1-0.2-0.1-0.4c0-0.1-0.1-0.3-0.1-0.4C102,212.7,101.7,212.4,101.7,212.4z"/>
				</g>
				<path d="M97.2,242.3c0,0,0.2-0.4,0.8-0.5c0.3-0.1,0.6,0,1,0.2c0.3,0.2,0.6,0.5,0.8,0.8c0.1,0.3,0.2,0.6,0.2,0.9
					c0,0.3-0.1,0.6-0.2,0.8c-0.2,0.4-0.5,0.7-0.5,0.7s-0.3-0.3-0.6-0.6c-0.2-0.1-0.3-0.3-0.4-0.5s-0.2-0.3-0.3-0.4
					c0-0.1-0.1-0.2-0.1-0.4c0-0.1-0.1-0.3-0.1-0.4C97.5,242.6,97.2,242.3,97.2,242.3z"/>
				<path d="M97.2,237.2c0,0,0.2-0.4,0.8-0.5c0.3-0.1,0.6,0,1,0.2c0.3,0.2,0.6,0.5,0.8,0.8c0.1,0.3,0.2,0.6,0.2,0.9
					c0,0.3-0.1,0.6-0.2,0.8c-0.2,0.4-0.5,0.7-0.5,0.7s-0.3-0.3-0.6-0.6c-0.2-0.1-0.3-0.3-0.4-0.5s-0.2-0.3-0.3-0.4
					c0-0.1-0.1-0.2-0.1-0.4c0-0.1-0.1-0.3-0.1-0.4C97.5,237.5,97.2,237.2,97.2,237.2z"/>
				<path d="M97.5,230.9c0,0,0.2-0.4,0.8-0.5c0.3-0.1,0.6,0,1,0.2c0.3,0.2,0.6,0.5,0.8,0.8c0.1,0.3,0.2,0.6,0.2,0.9
					c0,0.3-0.1,0.6-0.2,0.8c-0.2,0.4-0.5,0.7-0.5,0.7s-0.3-0.3-0.6-0.6c-0.2-0.1-0.3-0.3-0.4-0.5s-0.2-0.3-0.3-0.4
					c0-0.1-0.1-0.2-0.1-0.4c0-0.1-0.1-0.3-0.1-0.4C97.8,231.2,97.5,230.9,97.5,230.9z"/>
				<path d="M103.1,220.5c0,0,0.2-0.4,0.8-0.5c0.3-0.1,0.6,0,1,0.2c0.3,0.2,0.6,0.5,0.8,0.8c0.1,0.3,0.2,0.6,0.2,0.9
					c0,0.3-0.1,0.6-0.2,0.8c-0.2,0.4-0.5,0.7-0.5,0.7s-0.3-0.3-0.6-0.6c-0.2-0.1-0.3-0.3-0.4-0.5s-0.2-0.3-0.3-0.4
					c0-0.1-0.1-0.2-0.1-0.4c0-0.1-0.1-0.3-0.1-0.4C103.4,220.8,103.1,220.5,103.1,220.5z"/>
				<path d="M105.4,216.2c0,0,0.2-0.4,0.8-0.5c0.3-0.1,0.6,0,1,0.2c0.3,0.2,0.6,0.5,0.8,0.8c0.1,0.3,0.2,0.6,0.2,0.9
					c0,0.3-0.1,0.6-0.2,0.8c-0.2,0.4-0.5,0.7-0.5,0.7s-0.3-0.3-0.6-0.6c-0.2-0.1-0.3-0.3-0.4-0.5s-0.2-0.3-0.3-0.4
					c0-0.1-0.1-0.2-0.1-0.4c0-0.1-0.1-0.3-0.1-0.4C105.7,216.5,105.4,216.2,105.4,216.2z"/>
				<path d="M107.4,212.4c0,0,0.2-0.4,0.8-0.5c0.3-0.1,0.6,0,1,0.2c0.3,0.2,0.6,0.5,0.8,0.8c0.1,0.3,0.2,0.6,0.2,0.9
					c0,0.3-0.1,0.6-0.2,0.8c-0.2,0.4-0.5,0.7-0.5,0.7s-0.3-0.3-0.6-0.6c-0.2-0.1-0.3-0.3-0.4-0.5s-0.2-0.3-0.3-0.4
					c0-0.1-0.1-0.2-0.1-0.4c0-0.1-0.1-0.3-0.1-0.4C107.7,212.7,107.4,212.4,107.4,212.4z"/>
				<g>
					<path d="M109.1,243.2c0,0,0.1-0.4,0.6-0.7c0.3-0.1,0.6-0.2,1-0.1c0.4,0.1,0.7,0.3,0.9,0.6c0.2,0.3,0.4,0.6,0.4,0.9
						c0.1,0.3,0,0.6,0,0.8c-0.1,0.5-0.4,0.8-0.4,0.8s-0.4-0.2-0.7-0.4c-0.2-0.1-0.3-0.3-0.5-0.4c-0.2-0.1-0.3-0.3-0.4-0.4
						c-0.1-0.1-0.1-0.2-0.2-0.3s-0.1-0.2-0.2-0.4C109.4,243.4,109.1,243.2,109.1,243.2z"/>
					<path d="M107.8,238.3c0,0,0.1-0.4,0.6-0.7c0.3-0.1,0.6-0.2,1-0.1c0.4,0.1,0.7,0.3,0.9,0.6c0.2,0.3,0.4,0.6,0.4,0.9
						c0.1,0.3,0,0.6,0,0.8c-0.1,0.5-0.4,0.8-0.4,0.8s-0.4-0.2-0.7-0.4c-0.2-0.1-0.3-0.3-0.5-0.4c-0.2-0.1-0.3-0.3-0.4-0.4
						c-0.1-0.1-0.1-0.2-0.2-0.3s-0.1-0.2-0.2-0.4C108.2,238.5,107.8,238.3,107.8,238.3z"/>
					<path d="M106.6,232.1c0,0,0.1-0.4,0.6-0.7c0.3-0.1,0.6-0.2,1-0.1c0.4,0.1,0.7,0.3,0.9,0.6c0.2,0.3,0.4,0.6,0.4,0.9
						c0.1,0.3,0,0.6,0,0.8c-0.1,0.5-0.4,0.8-0.4,0.8s-0.4-0.2-0.7-0.4c-0.2-0.1-0.3-0.3-0.5-0.4c-0.2-0.1-0.3-0.3-0.4-0.4
						c-0.1-0.1-0.1-0.2-0.2-0.3s-0.1-0.2-0.2-0.4C107,232.3,106.6,232.1,106.6,232.1z"/>
					<path d="M108.3,225.6c0,0,0.1-0.4,0.6-0.7c0.3-0.1,0.6-0.2,1-0.1c0.4,0.1,0.7,0.3,0.9,0.6c0.2,0.3,0.4,0.6,0.4,0.9
						c0.1,0.3,0,0.6,0,0.8c-0.1,0.5-0.4,0.8-0.4,0.8s-0.4-0.2-0.7-0.4c-0.2-0.1-0.3-0.3-0.5-0.4c-0.2-0.1-0.3-0.3-0.4-0.4
						c-0.1-0.1-0.1-0.2-0.2-0.3s-0.1-0.2-0.2-0.4C108.7,225.8,108.3,225.6,108.3,225.6z"/>
					<path d="M109.6,220.7c0,0,0.1-0.4,0.6-0.7c0.3-0.1,0.6-0.2,1-0.1c0.4,0.1,0.7,0.3,0.9,0.6c0.2,0.3,0.4,0.6,0.4,0.9
						c0.1,0.3,0,0.6,0,0.8c-0.1,0.5-0.4,0.8-0.4,0.8s-0.4-0.2-0.7-0.4c-0.2-0.1-0.3-0.3-0.5-0.4c-0.2-0.1-0.3-0.3-0.4-0.4
						c-0.1-0.1-0.1-0.2-0.2-0.3s-0.1-0.2-0.2-0.4C110,220.9,109.6,220.7,109.6,220.7z"/>
					<path d="M110.8,215.9c0,0,0.1-0.4,0.6-0.7c0.3-0.1,0.6-0.2,1-0.1c0.4,0.1,0.7,0.3,0.9,0.6c0.2,0.3,0.4,0.6,0.4,0.9
						c0.1,0.3,0,0.6,0,0.8c-0.1,0.5-0.4,0.8-0.4,0.8s-0.4-0.2-0.7-0.4c-0.2-0.1-0.3-0.3-0.5-0.4c-0.2-0.1-0.3-0.3-0.4-0.4
						c-0.1-0.1-0.1-0.2-0.2-0.3s-0.1-0.2-0.2-0.4C111.2,216.1,110.8,215.9,110.8,215.9z"/>
					<path d="M111.8,211.7c0,0,0.1-0.4,0.6-0.7c0.3-0.1,0.6-0.2,1-0.1c0.4,0.1,0.7,0.3,0.9,0.6c0.2,0.3,0.4,0.6,0.4,0.9
						c0.1,0.3,0,0.6,0,0.8c-0.1,0.5-0.4,0.8-0.4,0.8s-0.4-0.2-0.7-0.4c-0.2-0.1-0.3-0.3-0.5-0.4c-0.2-0.1-0.3-0.3-0.4-0.4
						c-0.1-0.1-0.1-0.2-0.2-0.3s-0.1-0.2-0.2-0.4C112.2,211.9,111.8,211.7,111.8,211.7z"/>
				</g>
				<g>
					<path d="M115,243.2c0,0,0.1-0.4,0.6-0.7c0.3-0.1,0.6-0.2,1-0.1c0.4,0.1,0.7,0.3,0.9,0.6c0.2,0.3,0.4,0.6,0.4,0.9
						c0.1,0.3,0,0.6,0,0.8c-0.1,0.5-0.4,0.8-0.4,0.8s-0.4-0.2-0.7-0.4c-0.2-0.1-0.3-0.3-0.5-0.4c-0.2-0.1-0.3-0.3-0.4-0.4
						c-0.1-0.1-0.1-0.2-0.2-0.3s-0.1-0.2-0.2-0.4C115.4,243.4,115,243.2,115,243.2z"/>
					<path d="M113.8,238.3c0,0,0.1-0.4,0.6-0.7c0.3-0.1,0.6-0.2,1-0.1c0.4,0.1,0.7,0.3,0.9,0.6c0.2,0.3,0.4,0.6,0.4,0.9
						c0.1,0.3,0,0.6,0,0.8c-0.1,0.5-0.4,0.8-0.4,0.8s-0.4-0.2-0.7-0.4c-0.2-0.1-0.3-0.3-0.5-0.4c-0.2-0.1-0.3-0.3-0.4-0.4
						c-0.1-0.1-0.1-0.2-0.2-0.3s-0.1-0.2-0.2-0.4C114.2,238.5,113.8,238.3,113.8,238.3z"/>
					<path d="M112.6,232.1c0,0,0.1-0.4,0.6-0.7c0.3-0.1,0.6-0.2,1-0.1c0.4,0.1,0.7,0.3,0.9,0.6c0.2,0.3,0.4,0.6,0.4,0.9
						c0.1,0.3,0,0.6,0,0.8c-0.1,0.5-0.4,0.8-0.4,0.8s-0.4-0.2-0.7-0.4c-0.2-0.1-0.3-0.3-0.5-0.4c-0.2-0.1-0.3-0.3-0.4-0.4
						c-0.1-0.1-0.1-0.2-0.2-0.3s-0.1-0.2-0.2-0.4C112.9,232.3,112.6,232.1,112.6,232.1z"/>
					<path d="M114.3,225.6c0,0,0.1-0.4,0.6-0.7c0.3-0.1,0.6-0.2,1-0.1c0.4,0.1,0.7,0.3,0.9,0.6c0.2,0.3,0.4,0.6,0.4,0.9
						c0.1,0.3,0,0.6,0,0.8c-0.1,0.5-0.4,0.8-0.4,0.8s-0.4-0.2-0.7-0.4c-0.2-0.1-0.3-0.3-0.5-0.4c-0.2-0.1-0.3-0.3-0.4-0.4
						c-0.1-0.1-0.1-0.2-0.2-0.3s-0.1-0.2-0.2-0.4C114.7,225.8,114.3,225.6,114.3,225.6z"/>
					<path d="M115.6,220.7c0,0,0.1-0.4,0.6-0.7c0.3-0.1,0.6-0.2,1-0.1c0.4,0.1,0.7,0.3,0.9,0.6c0.2,0.3,0.4,0.6,0.4,0.9
						c0.1,0.3,0,0.6,0,0.8c-0.1,0.5-0.4,0.8-0.4,0.8s-0.4-0.2-0.7-0.4c-0.2-0.1-0.3-0.3-0.5-0.4c-0.2-0.1-0.3-0.3-0.4-0.4
						c-0.1-0.1-0.1-0.2-0.2-0.3s-0.1-0.2-0.2-0.4C115.9,220.9,115.6,220.7,115.6,220.7z"/>
					<path d="M116.8,215.9c0,0,0.1-0.4,0.6-0.7c0.3-0.1,0.6-0.2,1-0.1c0.4,0.1,0.7,0.3,0.9,0.6c0.2,0.3,0.4,0.6,0.4,0.9
						c0.1,0.3,0,0.6,0,0.8c-0.1,0.5-0.4,0.8-0.4,0.8s-0.4-0.2-0.7-0.4c-0.2-0.1-0.3-0.3-0.5-0.4c-0.2-0.1-0.3-0.3-0.4-0.4
						c-0.1-0.1-0.1-0.2-0.2-0.3s-0.1-0.2-0.2-0.4C117.2,216.1,116.8,215.9,116.8,215.9z"/>
					<path d="M117.8,211.7c0,0,0.1-0.4,0.6-0.7c0.3-0.1,0.6-0.2,1-0.1c0.4,0.1,0.7,0.3,0.9,0.6c0.2,0.3,0.4,0.6,0.4,0.9
						c0.1,0.3,0,0.6,0,0.8c-0.1,0.5-0.4,0.8-0.4,0.8s-0.4-0.2-0.7-0.4c-0.2-0.1-0.3-0.3-0.5-0.4c-0.2-0.1-0.3-0.3-0.4-0.4
						c-0.1-0.1-0.1-0.2-0.2-0.3s-0.1-0.2-0.2-0.4C118.2,211.9,117.8,211.7,117.8,211.7z"/>
				</g>
				<path d="M127.4,245.5c0,0-0.1-0.4,0.3-0.9c0.2-0.2,0.5-0.4,0.9-0.4s0.8,0.1,1.1,0.2c0.3,0.2,0.6,0.4,0.7,0.6
					c0.2,0.2,0.2,0.5,0.3,0.7c0.1,0.5-0.1,0.9-0.1,0.9s-0.4,0-0.8-0.1c-0.2,0-0.4-0.1-0.6-0.2c-0.2-0.1-0.3-0.1-0.5-0.2
					c-0.1-0.1-0.2-0.1-0.3-0.2c-0.1-0.1-0.2-0.2-0.3-0.3C127.8,245.5,127.4,245.5,127.4,245.5z"/>
				<path d="M124.4,241.3c0,0-0.1-0.4,0.3-0.9c0.2-0.2,0.5-0.4,0.9-0.4s0.8,0.1,1.1,0.2c0.3,0.2,0.6,0.4,0.7,0.6
					c0.2,0.2,0.2,0.5,0.3,0.7c0.1,0.5-0.1,0.9-0.1,0.9s-0.4,0-0.8-0.1c-0.2,0-0.4-0.1-0.6-0.2c-0.2-0.1-0.3-0.1-0.5-0.2
					c-0.1-0.1-0.2-0.1-0.3-0.2c-0.1-0.1-0.2-0.2-0.3-0.3C124.8,241.4,124.4,241.3,124.4,241.3z"/>
				<path d="M120.9,236.1c0,0-0.1-0.4,0.3-0.9c0.2-0.2,0.5-0.4,0.9-0.4s0.8,0.1,1.1,0.2c0.3,0.2,0.6,0.4,0.7,0.6
					c0.2,0.2,0.2,0.5,0.3,0.7c0.1,0.5-0.1,0.9-0.1,0.9s-0.4,0-0.8-0.1c-0.2,0-0.4-0.1-0.6-0.2c-0.2-0.1-0.3-0.1-0.5-0.2
					c-0.1-0.1-0.2-0.1-0.3-0.2c-0.1-0.1-0.2-0.2-0.3-0.3C121.4,236.1,120.9,236.1,120.9,236.1z"/>
				<path d="M120.1,229.4c0,0-0.1-0.4,0.3-0.9c0.2-0.2,0.5-0.4,0.9-0.4s0.8,0.1,1.1,0.2c0.3,0.2,0.6,0.4,0.7,0.6
					c0.2,0.2,0.2,0.5,0.3,0.7c0.1,0.5-0.1,0.9-0.1,0.9s-0.4,0-0.8-0.1c-0.2,0-0.4-0.1-0.6-0.2c-0.2-0.1-0.3-0.1-0.5-0.2
					c-0.1-0.1-0.2-0.1-0.3-0.2c-0.1-0.1-0.2-0.2-0.3-0.3C120.6,229.4,120.1,229.4,120.1,229.4z"/>
				<path d="M119.5,224.3c0,0-0.1-0.4,0.3-0.9c0.2-0.2,0.5-0.4,0.9-0.4s0.8,0.1,1.1,0.2c0.3,0.2,0.6,0.4,0.7,0.6
					c0.2,0.2,0.2,0.5,0.3,0.7c0.1,0.5-0.1,0.9-0.1,0.9s-0.4,0-0.8-0.1c-0.2,0-0.4-0.1-0.6-0.2c-0.2-0.1-0.3-0.1-0.5-0.2
					c-0.1-0.1-0.2-0.1-0.3-0.2c-0.1-0.1-0.2-0.2-0.3-0.3C119.9,224.4,119.5,224.3,119.5,224.3z"/>
				<path d="M118.9,219.5c0,0-0.1-0.4,0.3-0.9c0.2-0.2,0.5-0.4,0.9-0.4s0.8,0.1,1.1,0.2c0.3,0.2,0.6,0.4,0.7,0.6
					c0.2,0.2,0.2,0.5,0.3,0.7c0.1,0.5-0.1,0.9-0.1,0.9s-0.4,0-0.8-0.1c-0.2,0-0.4-0.1-0.6-0.2c-0.2-0.1-0.3-0.1-0.5-0.2
					c-0.1-0.1-0.2-0.1-0.3-0.2c-0.1-0.1-0.2-0.2-0.3-0.3C119.3,219.5,118.9,219.5,118.9,219.5z"/>
				<g>
					<path d="M133.8,245c0,0-0.1-0.4,0.3-0.9c0.2-0.2,0.5-0.4,0.9-0.4s0.8,0.1,1.1,0.2c0.3,0.2,0.6,0.4,0.7,0.6
						c0.2,0.2,0.2,0.5,0.3,0.7c0.1,0.5-0.1,0.9-0.1,0.9s-0.4,0-0.8-0.1c-0.2,0-0.4-0.1-0.6-0.2c-0.2-0.1-0.3-0.1-0.5-0.2
						c-0.1-0.1-0.2-0.1-0.3-0.2c-0.1-0.1-0.2-0.2-0.3-0.3C134.2,245,133.8,245,133.8,245z"/>
					<path d="M130.8,240.8c0,0-0.1-0.4,0.3-0.9c0.2-0.2,0.5-0.4,0.9-0.4s0.8,0.1,1.1,0.2c0.3,0.2,0.6,0.4,0.7,0.6
						c0.2,0.2,0.2,0.5,0.3,0.7c0.1,0.5-0.1,0.9-0.1,0.9s-0.4,0-0.8-0.1c-0.2,0-0.4-0.1-0.6-0.2c-0.2-0.1-0.3-0.1-0.5-0.2
						c-0.1-0.1-0.2-0.1-0.3-0.2c-0.1-0.1-0.2-0.2-0.3-0.3C131.3,240.9,130.8,240.8,130.8,240.8z"/>
					<path d="M127.4,235.6c0,0-0.1-0.4,0.3-0.9c0.2-0.2,0.5-0.4,0.9-0.4s0.8,0.1,1.1,0.2c0.3,0.2,0.6,0.4,0.7,0.6
						c0.2,0.2,0.2,0.5,0.3,0.7c0.1,0.5-0.1,0.9-0.1,0.9s-0.4,0-0.8-0.1c-0.2,0-0.4-0.1-0.6-0.2c-0.2-0.1-0.3-0.1-0.5-0.2
						c-0.1-0.1-0.2-0.1-0.3-0.2c-0.1-0.1-0.2-0.2-0.3-0.3C127.8,235.6,127.4,235.6,127.4,235.6z"/>
					<path d="M126.6,228.9c0,0-0.1-0.4,0.3-0.9c0.2-0.2,0.5-0.4,0.9-0.4c0.4,0,0.8,0.1,1.1,0.2c0.3,0.2,0.6,0.4,0.7,0.6
						c0.2,0.2,0.2,0.5,0.3,0.7c0.1,0.5-0.1,0.9-0.1,0.9s-0.4,0-0.8-0.1c-0.2,0-0.4-0.1-0.6-0.2c-0.2-0.1-0.3-0.1-0.5-0.2
						c-0.1-0.1-0.2-0.1-0.3-0.2c-0.1-0.1-0.2-0.2-0.3-0.3C127,229,126.6,228.9,126.6,228.9z"/>
					<path d="M126,223.9c0,0-0.1-0.4,0.3-0.9c0.2-0.2,0.5-0.4,0.9-0.4s0.8,0.1,1.1,0.2c0.3,0.2,0.6,0.4,0.7,0.6
						c0.2,0.2,0.2,0.5,0.3,0.7c0.1,0.5-0.1,0.9-0.1,0.9s-0.4,0-0.8-0.1c-0.2,0-0.4-0.1-0.6-0.2c-0.2-0.1-0.3-0.1-0.5-0.2
						c-0.1-0.1-0.2-0.1-0.3-0.2c-0.1-0.1-0.2-0.2-0.3-0.3C126.4,223.9,126,223.9,126,223.9z"/>
					<path d="M125.3,219c0,0-0.1-0.4,0.3-0.9c0.2-0.2,0.5-0.4,0.9-0.4s0.8,0.1,1.1,0.2c0.3,0.2,0.6,0.4,0.7,0.6
						c0.2,0.2,0.2,0.5,0.3,0.7c0.1,0.5-0.1,0.9-0.1,0.9s-0.4,0-0.8-0.1c-0.2,0-0.4-0.1-0.6-0.2c-0.2-0.1-0.3-0.1-0.5-0.2
						c-0.1-0.1-0.2-0.1-0.3-0.2c-0.1-0.1-0.2-0.2-0.3-0.3C125.8,219,125.3,219,125.3,219z"/>
					<path d="M124.7,214.7c0,0-0.1-0.4,0.3-0.9c0.2-0.2,0.5-0.4,0.9-0.4s0.8,0.1,1.1,0.2c0.3,0.2,0.6,0.4,0.7,0.6
						c0.2,0.2,0.2,0.5,0.3,0.7c0.1,0.5-0.1,0.9-0.1,0.9s-0.4,0-0.8-0.1c-0.2,0-0.4-0.1-0.6-0.2c-0.2-0.1-0.3-0.1-0.5-0.2
						c-0.1-0.1-0.2-0.1-0.3-0.2c-0.1-0.1-0.2-0.2-0.3-0.3C125.2,214.7,124.7,214.7,124.7,214.7z"/>
				</g>
				<path d="M98,208.6c0,0,0.2-0.4,0.8-0.5c0.3-0.1,0.6,0,1,0.2c0.3,0.2,0.6,0.5,0.8,0.8c0.1,0.3,0.2,0.6,0.2,0.9
					c0,0.3-0.1,0.6-0.2,0.8c-0.2,0.4-0.5,0.7-0.5,0.7s-0.3-0.3-0.6-0.6c-0.2-0.1-0.3-0.3-0.4-0.5s-0.2-0.3-0.3-0.4
					c0-0.1-0.1-0.2-0.1-0.4c0-0.1-0.1-0.3-0.1-0.4C98.3,208.9,98,208.6,98,208.6z"/>
				<path d="M100.2,207.2c0,0,0.2-0.4,0.8-0.5c0.3-0.1,0.6,0,1,0.2c0.3,0.2,0.6,0.5,0.8,0.8c0.1,0.3,0.2,0.6,0.2,0.9
					c0,0.3-0.1,0.6-0.2,0.8c-0.2,0.4-0.5,0.7-0.5,0.7s-0.3-0.3-0.6-0.6c-0.2-0.1-0.3-0.3-0.4-0.5s-0.2-0.3-0.3-0.4
					c0-0.1-0.1-0.2-0.1-0.4c0-0.1-0.1-0.3-0.1-0.4C100.5,207.5,100.2,207.2,100.2,207.2z"/>
				<path d="M102.1,232.3c0,0,0.4,0,0.8,0.1s0.8,0.3,1,0.4c0.1,0.1,0.1,0.1,0.1,0.2c0,0.1,0.1,0.2,0.2,0.2c0.3,0,0.8-0.1,0.8-0.1
					s0.2,0.4,0.1,0.9c-0.1,0.3-0.4,0.6-0.8,0.8c-0.2,0-0.5,0.1-0.7,0c-0.2,0-0.4-0.1-0.6-0.2c-0.7-0.4-0.9-0.9-0.9-1.4
					C102,232.7,102.1,232.3,102.1,232.3z"/>
				<path d="M102.1,237.3c0,0,0.4,0,0.8,0.1s0.8,0.3,1,0.4c0.1,0.1,0.1,0.1,0.1,0.2c0,0.1,0.1,0.2,0.2,0.2c0.3,0,0.8-0.1,0.8-0.1
					s0.2,0.4,0.1,0.9c-0.1,0.3-0.4,0.6-0.8,0.8c-0.2,0-0.5,0.1-0.7,0c-0.2,0-0.4-0.1-0.6-0.2c-0.7-0.4-0.9-0.9-0.9-1.4
					C102,237.7,102.1,237.3,102.1,237.3z"/>
				<path d="M102.1,239.9c0,0,0.4,0,0.8,0.1s0.8,0.3,1,0.4c0.1,0.1,0.1,0.1,0.1,0.2c0,0.1,0.1,0.2,0.2,0.2c0.3,0,0.8-0.1,0.8-0.1
					s0.2,0.4,0.1,0.9c-0.1,0.3-0.4,0.6-0.8,0.8c-0.2,0-0.5,0.1-0.7,0c-0.2,0-0.4-0.1-0.6-0.2c-0.7-0.4-0.9-0.9-0.9-1.4
					C102,240.3,102.1,239.9,102.1,239.9z"/>
				<path d="M104.2,243.8c0,0,0.4,0,0.8,0.1s0.8,0.3,1,0.4c0.1,0.1,0.1,0.1,0.1,0.2c0,0.1,0.1,0.2,0.2,0.2c0.3,0,0.8-0.1,0.8-0.1
					s0.2,0.4,0.1,0.9c-0.1,0.3-0.4,0.6-0.8,0.8c-0.2,0-0.5,0.1-0.7,0c-0.2,0-0.4-0.1-0.6-0.2c-0.7-0.4-0.9-0.9-0.9-1.4
					C104,244.2,104.2,243.8,104.2,243.8z"/>
				<path d="M278.6,225.1c0,0,1,0.1,2.3,0.7c1.3,0.6,2.9,1.9,4,3.6c0.3,0.4,0.5,0.9,0.7,1.3c0.2,0.4,0.3,0.9,0.5,1.4
					c0.2,0.4,0.2,0.9,0.2,1.3c0.1,0.4,0,0.8,0,1.2c0,0.7-0.1,1.3-0.2,1.7s-0.2,0.6-0.2,0.6s-0.1-0.2-0.2-0.6
					c-0.1-0.2-0.1-0.4-0.2-0.7s-0.2-0.6-0.3-0.9c-0.2-0.6-0.5-1.4-0.8-2.1c-0.3-0.7-0.7-1.5-1.2-2.2c-0.4-0.8-1-1.4-1.4-2.1
					c-0.5-0.6-1-1.2-1.5-1.7C279.3,225.8,278.6,225.1,278.6,225.1z"/>
				<path d="M285.1,226.6c0,0,0.7,0.1,1.7,0.6c0.5,0.3,1,0.6,1.4,1.1c0.5,0.5,0.9,1.1,1.3,1.7c0.3,0.7,0.6,1.4,0.6,2.1
					c0.1,0.3,0.1,0.7,0,1c0,0.3,0,0.6-0.1,0.9c-0.2,1.1-0.8,1.6-0.8,1.6s-0.1-0.7-0.4-1.6c-0.1-0.5-0.3-0.9-0.5-1.5
					c-0.1-0.3-0.2-0.5-0.3-0.8c-0.1-0.3-0.2-0.5-0.4-0.8c-0.5-1-1.2-2.1-1.7-2.9C285.5,227.2,285.1,226.6,285.1,226.6z"/>
				<path d="M288.9,239.1c0,0,0.1,0.3,0.1,0.8s-0.1,1.1-0.4,1.6c-0.2,0.3-0.3,0.5-0.5,0.7s-0.4,0.4-0.6,0.5
					c-0.4,0.2-0.7,0.3-0.7,0.3s0.5-1.1,1-2c0.3-0.5,0.6-0.9,0.8-1.3C288.7,239.4,288.9,239.1,288.9,239.1z"/>
				<path d="M285.1,242.9c0,0-0.3,0.3-0.7,0.7c-0.2,0.2-0.4,0.4-0.4,0.5s0,0,0,0c0-0.1,0,0.2,0,0.2s0,0.1,0,0.2
					c0,0.3,0.2,0.7,0.1,1.3c-0.1,0.3-0.4,0.7-0.6,0.7c-0.3,0.1-0.5,0.1-0.6,0.1c-0.6-0.1-1-0.4-1-0.4s0.4-0.2,0.8-0.4
					c0.1,0,0.2-0.1,0.2-0.2c0-0.1-0.1,0-0.1,0s-0.2-0.4-0.3-0.8c0-0.1-0.1-0.2-0.1-0.4s0-0.1,0-0.4c0-0.4,0.2-0.7,0.4-0.9
					c0.4-0.4,0.8-0.4,1.2-0.4C284.7,242.6,285.1,242.9,285.1,242.9z"/>
				<path d="M269.8,222.1c0,0,1.9,0.8,4.5,2.6c1.3,0.9,2.7,2.1,4,3.5c0.7,0.7,1.3,1.6,1.9,2.5s1.1,2,1.2,3.2c0.1,0.6,0.1,1.2,0,1.8
					c-0.1,0.5-0.2,1.1-0.5,1.6c-0.2,0.5-0.5,1.2-1.4,1.6c-0.8,0.4-1.6,0-1.9,0c-0.1,0-0.1,0,0.1-0.1s0.2-0.3,0.2-0.2
					c0,0,0,0.3,0,0.5c0,0.4,0.1,0.9,0.1,1.3c0.2,0.8,0.5,1.4,1.1,1.7c0.3,0.1,0.6,0.2,0.9,0.2c0.1,0,0.3-0.1,0.4-0.1c0,0,0,0,0,0.1
					c0,0-0.1,0.3,0.1,0.4h0.1c0.1,0,0.1,0,0,0h-0.1l-0.2,0.1c-0.6,0.2-1.1,0.4-1.5,0.6c-0.8,0.4-1.3,0.6-1.3,0.6s0.4-0.3,1.2-0.8
					c0.4-0.3,0.8-0.5,1.4-0.8l0.2-0.1h0.1c0,0,0.1,0,0.2,0c0,0,0,0,0.1,0c0.2,0.1,0.1,0.4,0.1,0.4l-0.1,0.1
					c-0.2,0.2-0.4,0.2-0.6,0.2c-0.4,0.1-0.8,0.1-1.3-0.1c-0.9-0.3-1.5-1.2-1.8-2.1c-0.1-0.5-0.3-0.9-0.4-1.4c0-0.3-0.1-0.5-0.1-0.9
					c0-0.2,0.2-0.6,0.6-0.8s0.6-0.1,0.8-0.1c0.6,0.1,0.9,0.1,0.9,0c0.1-0.1,0.3-0.3,0.4-0.7s0.2-0.8,0.3-1.3c0-0.4,0-0.8,0-1.2
					c-0.1-0.8-0.6-1.7-1-2.5c-0.5-0.8-1-1.6-1.6-2.3c-1.1-1.4-2.4-2.7-3.4-3.8c-1.1-1.1-2-2-2.6-2.6
					C270.2,222.5,269.8,222.1,269.8,222.1z"/>
				<path d="M262.3,221.4c0,0,1.5,0.4,3.5,1.4s4.6,2.6,6.9,4.6c0.6,0.5,1.1,1,1.6,1.6c0.5,0.5,1,1.1,1.5,1.6
					c0.9,1.1,1.6,2.2,2.2,3.3c0.5,1.1,0.8,1.9,1,2.6c0.1,0.7,0.2,1,0.2,1s-0.2-0.3-0.6-0.9c-0.3-0.6-0.9-1.3-1.6-2.1
					c-0.4-0.4-0.7-0.8-1.1-1.3c-0.4-0.4-0.9-0.9-1.4-1.4c-1-0.9-2-1.9-3.1-2.9s-2.2-1.9-3.3-2.7c-1.1-0.9-2.1-1.7-2.9-2.4
					C263.5,222.4,262.3,221.4,262.3,221.4z"/>
				<path d="M249,218.6c0,0,1.7,0.1,4,0.7c1.2,0.3,2.5,0.8,3.9,1.4c1.4,0.6,2.8,1.4,4.2,2.3c1.3,0.9,2.7,1.9,3.7,3.1
					c0.6,0.5,1.1,1.1,1.5,1.6c0.5,0.5,0.9,1.1,1.2,1.6c0.7,1,1.2,1.9,1.5,2.6c0.3,0.6,0.5,1,0.5,1s-0.3-0.3-0.8-0.8
					c-0.2-0.3-0.5-0.6-0.9-0.9c-0.4-0.3-0.7-0.7-1.2-1.1c-0.9-0.8-1.9-1.7-3-2.6c-0.6-0.5-1.2-0.9-1.8-1.4c-0.6-0.5-1.3-0.9-1.9-1.3
					c-1.3-0.9-2.6-1.7-3.9-2.4c-1.3-0.7-2.5-1.4-3.5-2C250.5,219.3,249,218.6,249,218.6z"/>
				<path d="M257.6,224.5c0,0,1.2,0.9,2.9,2.5c1.7,1.6,3.7,3.8,5.6,6.2s3.5,5,4.6,7.1c0.5,1,0.9,1.9,1.1,2.6c0.2,0.7,0.3,1,0.3,1
					s-0.9-1.3-2.3-3c-1.4-1.8-3.3-4.1-5.2-6.4c-1.8-2.4-3.6-4.8-4.9-6.7C258.4,225.9,257.6,224.5,257.6,224.5z"/>
				<path d="M246.6,219.1c0,0,1.2,0.4,2.9,1.2c0.9,0.4,1.8,1,2.8,1.6s2,1.4,3,2.1c1,0.8,1.9,1.6,2.8,2.5c0.8,0.9,1.5,1.8,2.1,2.6
					c0.3,0.4,0.5,0.8,0.6,1.2c0.2,0.4,0.3,0.7,0.4,1c0.1,0.6,0.1,0.9,0.1,0.9s-0.2-0.3-0.5-0.7c-0.1-0.2-0.4-0.4-0.6-0.7
					s-0.6-0.5-0.9-0.9c-1.3-1.2-3.2-2.7-5.2-4.3c-1.9-1.5-3.9-3.1-5.3-4.3C247.5,220.1,246.6,219.1,246.6,219.1z"/>
				<path d="M241.8,219.1c0,0,1,0.2,2.2,0.8c1.3,0.6,2.9,1.5,4.4,2.7s2.8,2.5,3.6,3.7c0.4,0.6,0.6,1.2,0.8,1.6c0.1,0.5,0,0.7,0,0.7
					s-0.2-0.2-0.4-0.5c-0.3-0.3-0.7-0.6-1.3-1c-1.1-0.8-2.6-1.8-4-2.9c-1.4-1.1-2.8-2.3-3.8-3.3
					C242.3,219.9,241.8,219.1,241.8,219.1z"/>
				<path d="M256.1,249.2c0,0,0.3-1.2,0.6-2.8c0.2-0.8,0.3-1.8,0.4-2.8c0.1-0.5,0.1-1,0.1-1.5s-0.1-1-0.1-1.5
					c-0.1-0.5-0.2-1-0.4-1.4c-0.1-0.2-0.2-0.4-0.3-0.7c-0.1-0.2-0.3-0.4-0.4-0.6c-0.2-0.4-0.6-0.7-0.9-1c-0.3-0.3-0.7-0.6-1-0.8
					s-0.6-0.5-0.9-0.6c-0.3-0.2-0.6-0.3-0.8-0.4c-0.4-0.3-0.7-0.4-0.7-0.4s0.3,0,0.8,0c0.3,0,0.6,0,0.9,0.1c0.4,0,0.8,0.2,1.2,0.3
					s0.9,0.3,1.4,0.6s1,0.6,1.4,1.1c0.2,0.2,0.4,0.5,0.6,0.7c0.2,0.3,0.3,0.6,0.5,0.9c0.3,0.6,0.4,1.2,0.6,1.9
					c0,0.6,0.2,1.3,0.1,1.9c0,0.6-0.1,1.2-0.3,1.8c-0.1,0.6-0.3,1.1-0.5,1.6s-0.4,0.9-0.6,1.3C257,248.4,256.1,249.2,256.1,249.2z"
					/>
				<path d="M258.8,237.6c0,0,0.9,0.2,2.1,0.9c0.6,0.4,1.2,0.8,1.8,1.5c0.6,0.6,1.1,1.4,1.6,2.2c0.2,0.4,0.4,0.9,0.5,1.3
					c0.1,0.5,0.2,0.9,0.3,1.4c0.1,0.4,0.1,0.9,0,1.3c0,0.4-0.1,0.8-0.2,1.1c-0.2,0.7-0.5,1.2-0.7,1.5s-0.4,0.5-0.4,0.5s0-0.2,0-0.6
					c0-0.2,0-0.4,0-0.7s0-0.5-0.1-0.9c-0.1-0.6-0.2-1.3-0.4-2c-0.1-0.4-0.3-0.7-0.4-1.1c-0.1-0.4-0.3-0.7-0.5-1.1
					c-0.7-1.4-1.7-2.7-2.4-3.8C259.3,238.4,258.8,237.6,258.8,237.6z"/>
				<path d="M235.6,218.7c0,0,1.1,0.1,2.6,0.7c1.5,0.6,3.4,1.6,5,3c0.4,0.4,0.8,0.8,1.1,1.2c0.4,0.4,0.7,0.8,1,1.2
					c0.6,0.9,1,1.8,1.2,2.5c0.1,0.4,0.2,0.8,0.2,1.1c0.1,0.3,0,0.6,0,0.9c0,0.5,0,0.7,0,0.7s-0.1-0.2-0.3-0.7
					c-0.1-0.2-0.2-0.5-0.4-0.7c-0.2-0.3-0.4-0.5-0.5-0.9c-0.2-0.3-0.5-0.6-0.7-0.9c-0.3-0.3-0.6-0.6-0.9-1c-0.7-0.6-1.3-1.4-2.1-2
					c-0.7-0.7-1.5-1.3-2.2-1.9c-0.7-0.6-1.4-1.2-2-1.6C236.4,219.5,235.6,218.7,235.6,218.7z"/>
				<path d="M225.1,219.3c0,0,0.9-0.1,2.1,0.1c0.6,0.1,1.3,0.3,2.1,0.6c0.7,0.3,1.5,0.8,2.2,1.2c0.7,0.5,1.3,1.1,1.8,1.8
					c0.5,0.6,0.8,1.3,1.1,1.9c0.5,1.2,0.3,2.1,0.4,2.1c0,0-0.2-0.2-0.4-0.4c-0.2-0.3-0.6-0.7-1-1.1c-0.4-0.4-0.9-0.9-1.4-1.3
					c-0.2-0.3-0.6-0.4-0.8-0.7c-0.3-0.3-0.6-0.5-0.9-0.7c-1.2-0.9-2.5-1.7-3.4-2.4C225.8,219.8,225.1,219.3,225.1,219.3z"/>
				<path d="M232.2,219.5c0,0,0.8-0.1,1.9,0.2c0.6,0.1,1.2,0.4,1.8,0.8c0.6,0.4,1.2,0.9,1.8,1.6c0.2,0.4,0.4,0.7,0.6,1.2
					c0.2,0.4,0.2,0.8,0.2,1.3c0,0.4-0.1,0.8-0.2,1.1c-0.1,0.4-0.3,0.6-0.4,0.9c-0.3,0.5-0.7,0.9-0.9,1.1c-0.3,0.2-0.4,0.3-0.4,0.3
					s0-0.2,0.1-0.5c0-0.2,0.1-0.4,0.1-0.6c0.1-0.2,0-0.5,0.1-0.7c0.1-0.5,0-1-0.1-1.5c0-0.3-0.1-0.5-0.2-0.7
					c-0.1-0.3-0.3-0.5-0.4-0.7c-0.2-0.2-0.3-0.5-0.5-0.7s-0.4-0.4-0.6-0.6c-0.4-0.4-0.9-0.8-1.3-1.1
					C232.8,220,232.2,219.5,232.2,219.5z"/>
				<path d="M150.1,216.7c0,0,0.8-0.9,2.4-2.3c1.6-1.4,3.8-3.5,6.7-5.7c1.4-1.1,3-2.3,4.7-3.5s3.5-2.5,5.4-3.7
					c3.8-2.5,8.1-4.9,12.5-7c2.2-1,4.5-2,6.7-2.9s4.5-1.6,6.7-2.2c1.1-0.3,2.2-0.6,3.3-0.8s2.2-0.4,3.2-0.6c1-0.1,2.1-0.3,3-0.4
					c1-0.1,1.9-0.1,2.9-0.2c1.8-0.1,3.5,0,5,0.1s2.8,0.3,3.8,0.5c1.1,0.2,1.9,0.4,2.4,0.5c0.6,0.1,0.8,0.2,0.8,0.2s-1.2-0.2-3.3-0.4
					c-1.1,0-2.3-0.2-3.8-0.1c-1.5,0-3.1,0.1-4.9,0.3c-0.9,0.1-1.8,0.2-2.8,0.4s-1.9,0.4-2.9,0.6c-2,0.4-4.1,1-6.2,1.7
					c-4.3,1.3-8.7,3.1-13.1,5.2c-2.2,1-4.3,2.1-6.4,3.2c-2.1,1.2-4.1,2.3-6,3.4c-3.9,2.3-7.4,4.6-10.4,6.6c-3,2.1-5.5,3.8-7.1,5.1
					C151.1,216,150.1,216.7,150.1,216.7z"/>
				<g>
					<path d="M135.1,216.8c0,0-0.1-0.4,0-0.7c0-0.3,0.2-0.6,0.4-0.8s0.6-0.2,0.9-0.1c0.3,0.1,0.6,0.3,0.6,0.3s0.1,0.4,0,0.7
						c0,0.3-0.2,0.6-0.4,0.8s-0.6,0.2-0.9,0.1C135.4,217,135.1,216.8,135.1,216.8z"/>
					<path d="M137.8,222.4c0,0,0-0.4,0.1-0.8c0.1-0.4,0.4-0.7,0.7-0.9s0.8-0.3,1.2-0.2c0.4,0,0.7,0.2,0.7,0.2s0,0.4-0.1,0.8
						c-0.1,0.4-0.4,0.7-0.7,0.9s-0.8,0.3-1.2,0.2C138.2,222.6,137.8,222.4,137.8,222.4z"/>
					<path d="M140.9,225.8c0,0,0.1-0.4,0.3-0.8c0.2-0.4,0.7-0.8,1.1-1.1c0.5-0.2,1.1-0.4,1.5-0.3c0.5,0,0.9,0.2,0.9,0.2
						s-0.1,0.4-0.3,0.8c-0.2,0.4-0.7,0.8-1.1,1.1c-0.5,0.2-1.1,0.4-1.5,0.3C141.3,225.9,140.9,225.8,140.9,225.8z"/>
					<path d="M144.6,230.7c0,0-0.3-0.3-0.5-0.8s-0.3-1.2-0.1-1.9c0.1-0.3,0.3-0.7,0.5-1s0.5-0.6,0.9-0.7c0.3-0.1,0.7-0.1,0.8,0
						c0.2,0.1,0.3,0.2,0.3,0.2s-0.1,0.1-0.2,0.2c-0.1,0.1-0.1,0.3-0.1,0.5c0,0.4-0.1,0.8-0.2,1.3c-0.2,0.5-0.4,1-0.7,1.5
						C144.9,230.4,144.6,230.7,144.6,230.7z"/>
					<path d="M149.2,233.4c0,0-0.2-0.3-0.3-0.7s-0.1-0.9,0.1-1.3c0.2-0.4,0.5-0.8,0.9-1s0.8-0.3,0.8-0.3s0.2,0.3,0.3,0.7
						s0.1,0.9-0.1,1.3c-0.2,0.4-0.5,0.8-0.9,1C149.6,233.3,149.2,233.4,149.2,233.4z"/>
					<path d="M153.4,236.1c0,0-0.1-0.4,0-0.8c0-0.4,0.2-0.9,0.5-1.3c0.3-0.4,0.8-0.7,1.2-0.8s0.8-0.1,0.8-0.1s0.1,0.4,0,0.8
						c0,0.5-0.2,0.9-0.5,1.3c-0.3,0.4-0.8,0.6-1.2,0.8C153.8,236.1,153.4,236.1,153.4,236.1z"/>
				</g>
				<g>
					<path d="M147.3,224.1c0,0-0.2-0.3-0.3-0.6s-0.1-0.7,0.1-0.9c0.2-0.2,0.5-0.4,0.8-0.4s0.7,0,0.7,0s0.2,0.3,0.3,0.6
						s0.1,0.7-0.1,0.9c-0.2,0.2-0.5,0.4-0.8,0.4C147.7,224.2,147.3,224.1,147.3,224.1z"/>
					<path d="M151.7,228.5c0,0-0.1-0.4-0.1-0.8c0-0.4,0.1-0.8,0.3-1.1c0.3-0.3,0.6-0.5,1-0.6s0.8,0,0.8,0s0.1,0.4,0.1,0.8
						c0,0.4-0.1,0.8-0.4,1.1c-0.3,0.3-0.6,0.5-1,0.6C152.1,228.6,151.7,228.5,151.7,228.5z"/>
					<path d="M155.7,230.7c0,0-0.1-0.4,0-0.9s0.3-1,0.7-1.4s0.9-0.7,1.3-0.8c0.5-0.1,0.9-0.1,0.9-0.1s0.1,0.4,0,0.9s-0.3,1-0.7,1.4
						s-0.9,0.7-1.3,0.8C156.1,230.7,155.7,230.7,155.7,230.7z"/>
					<path d="M160.9,234.1c0,0-0.4-0.2-0.8-0.6c-0.4-0.4-0.6-1-0.7-1.8c0-0.4,0-0.7,0.1-1.1c0.1-0.4,0.3-0.7,0.6-0.9
						c0.2-0.2,0.6-0.3,0.8-0.3s0.3,0.1,0.3,0.1s0,0.1-0.1,0.3c0,0.2,0,0.3,0,0.5c0.1,0.3,0.2,0.8,0.3,1.3c0,0.5,0,1.1-0.2,1.6
						C161.1,233.7,160.9,234.1,160.9,234.1z"/>
					<path d="M166.1,235.2c0,0-0.3-0.2-0.6-0.6c-0.2-0.4-0.4-0.8-0.4-1.3s0.2-0.9,0.5-1.2s0.6-0.5,0.6-0.5s0.3,0.2,0.6,0.6
						c0.2,0.4,0.4,0.8,0.4,1.3s-0.2,0.9-0.5,1.2C166.4,234.9,166.1,235.2,166.1,235.2z"/>
					<path d="M166.9,240.4c0.3-1,0.8-1.9,1.4-2.7c0.6-0.8,1.2-1.5,1.9-2.1l-0.2,0.3c0.6-1.2,1.2-2.4,2.3-3.4
						c0.2,1.5-0.1,2.8-0.5,4.1v0.1l-0.2,0.2c-0.6,0.7-1.3,1.4-2.1,2C168.8,239.6,168,240.1,166.9,240.4z"/>
				</g>
				<g>
					<path d="M150,222.1c0,0-0.2-0.3-0.4-0.6c-0.1-0.3-0.2-0.6-0.1-0.9c0.1-0.3,0.4-0.5,0.7-0.5c0.3-0.1,0.7-0.1,0.7-0.1
						s0.2,0.3,0.4,0.6c0.1,0.3,0.2,0.6,0.1,0.9c-0.1,0.3-0.4,0.4-0.7,0.5C150.4,222.2,150,222.1,150,222.1z"/>
					<path d="M155.1,225.7c0,0-0.2-0.3-0.3-0.7s0-0.8,0.2-1.2c0.2-0.3,0.5-0.6,0.9-0.8c0.4-0.1,0.7-0.2,0.7-0.2s0.2,0.3,0.3,0.7
						s0,0.8-0.2,1.2c-0.2,0.3-0.5,0.6-0.9,0.8C155.5,225.7,155.1,225.7,155.1,225.7z"/>
					<path d="M159.4,227.2c0,0-0.1-0.4-0.1-0.9s0.2-1,0.5-1.5s0.7-0.8,1.2-1c0.4-0.2,0.9-0.3,0.9-0.3s0.1,0.4,0.1,0.9
						s-0.2,1-0.5,1.5s-0.8,0.8-1.2,1C159.9,227.1,159.4,227.2,159.4,227.2z"/>
					<path d="M165.1,229.7c0,0-0.4-0.1-0.9-0.5c-0.4-0.3-0.8-0.9-1-1.6c-0.1-0.3-0.1-0.7,0-1.1c0.1-0.4,0.2-0.7,0.4-1
						s0.5-0.4,0.7-0.4s0.3,0,0.3,0s0,0.1,0,0.3s0,0.3,0.1,0.5c0.2,0.3,0.3,0.7,0.5,1.3c0.1,0.5,0.2,1.1,0.1,1.6
						C165.2,229.2,165.1,229.7,165.1,229.7z"/>
					<path d="M169.9,226.2c0,0,0.4,0.2,0.6,0.5c0.3,0.3,0.5,0.7,0.6,1.2s-0.1,0.9-0.3,1.3c-0.2,0.4-0.5,0.6-0.5,0.6
						s-0.4-0.2-0.6-0.5c-0.3-0.3-0.5-0.7-0.6-1.2s0.1-0.9,0.3-1.3C169.6,226.5,169.9,226.2,169.9,226.2z"/>
					<path d="M175.4,230.1c0,0-0.3-0.3-0.5-0.7s-0.3-0.9-0.2-1.4s0.4-0.9,0.7-1.3c0.3-0.3,0.7-0.5,0.7-0.5s0.3,0.3,0.5,0.7
						s0.3,0.9,0.2,1.4s-0.4,0.9-0.7,1.3C175.8,229.9,175.4,230.1,175.4,230.1z"/>
				</g>
				<g>
					<path d="M131.7,232.2c0,0-0.1-0.4-0.1-0.7s0.1-0.7,0.3-0.8c0.2-0.2,0.6-0.2,0.9-0.2c0.3,0,0.6,0.2,0.6,0.2s0.1,0.4,0.1,0.7
						s-0.1,0.6-0.3,0.8s-0.6,0.2-0.9,0.2C132,232.4,131.7,232.2,131.7,232.2z"/>
					<path d="M134.8,237.6c0,0,0-0.4,0.1-0.8c0.1-0.4,0.3-0.8,0.6-1s0.7-0.3,1.1-0.3c0.4,0,0.7,0.2,0.7,0.2s0,0.4-0.1,0.8
						c-0.1,0.4-0.3,0.8-0.6,1s-0.8,0.3-1.1,0.3S134.8,237.6,134.8,237.6z"/>
					<path d="M138.1,240.8c0,0,0.1-0.4,0.3-0.9c0.2-0.4,0.6-0.9,1.1-1.2s1-0.4,1.5-0.4s0.9,0.1,0.9,0.1s-0.1,0.4-0.3,0.9
						c-0.2,0.4-0.6,0.9-1.1,1.2s-1,0.4-1.5,0.4C138.5,240.9,138.1,240.8,138.1,240.8z"/>
					<path d="M142.2,245.4c0,0-0.3-0.3-0.6-0.8c-0.2-0.5-0.4-1.2-0.2-1.9c0.1-0.3,0.2-0.7,0.4-1s0.5-0.6,0.8-0.7
						c0.3-0.2,0.6-0.2,0.8-0.1c0.2,0.1,0.3,0.1,0.3,0.1s-0.1,0.1-0.1,0.2c-0.1,0.1-0.1,0.3-0.1,0.5c0,0.4,0,0.8-0.1,1.4
						c-0.1,0.5-0.3,1.1-0.6,1.5C142.5,245.1,142.2,245.4,142.2,245.4z"/>
					<path d="M146.9,247.8c0,0-0.3-0.3-0.4-0.7c-0.1-0.4-0.2-0.9,0-1.3c0.1-0.4,0.4-0.8,0.8-1.1c0.3-0.3,0.7-0.4,0.7-0.4
						s0.3,0.3,0.4,0.7c0.1,0.4,0.2,0.9,0,1.3c-0.1,0.4-0.4,0.8-0.8,1.1C147.3,247.7,146.9,247.8,146.9,247.8z"/>
					<path d="M151.3,250.2c0,0-0.1-0.4-0.1-0.8c0-0.5,0.2-1,0.4-1.4c0.3-0.4,0.7-0.7,1.1-0.9c0.4-0.2,0.8-0.2,0.8-0.2
						s0.1,0.4,0.1,0.8c0,0.5-0.2,1-0.4,1.4c-0.3,0.4-0.7,0.7-1.1,0.9C151.8,250.2,151.3,250.2,151.3,250.2z"/>
				</g>
				<g>
					<path d="M131.4,222.7c0,0-0.1-0.4-0.1-0.7s0.1-0.6,0.4-0.8c0.2-0.2,0.6-0.2,0.9-0.1c0.3,0.1,0.6,0.2,0.6,0.2s0.1,0.4,0.1,0.7
						s-0.1,0.6-0.4,0.8c-0.2,0.2-0.6,0.2-0.9,0.1C131.7,222.9,131.4,222.7,131.4,222.7z"/>
					<path d="M134.3,228.2c0,0,0-0.4,0.1-0.8c0.1-0.4,0.3-0.7,0.7-1c0.3-0.2,0.8-0.3,1.2-0.3s0.7,0.2,0.7,0.2s0,0.4-0.1,0.8
						c-0.1,0.4-0.3,0.7-0.7,1c-0.3,0.2-0.8,0.3-1.2,0.3C134.7,228.4,134.3,228.2,134.3,228.2z"/>
					<path d="M137.5,231.5c0,0,0.1-0.4,0.3-0.8c0.2-0.4,0.6-0.8,1.1-1.1s1-0.4,1.5-0.4s0.9,0.2,0.9,0.2s-0.1,0.4-0.3,0.8
						c-0.2,0.4-0.6,0.8-1.1,1.1s-1,0.4-1.5,0.4S137.5,231.5,137.5,231.5z"/>
					<path d="M141.4,236.3c0,0-0.3-0.3-0.5-0.8s-0.3-1.2-0.1-1.9c0.1-0.3,0.2-0.7,0.5-1c0.2-0.3,0.5-0.6,0.8-0.7
						c0.3-0.1,0.7-0.1,0.8-0.1c0.2,0.1,0.3,0.2,0.3,0.2s-0.1,0.1-0.2,0.2c-0.1,0.1-0.1,0.3-0.1,0.5c0,0.4,0,0.8-0.2,1.3
						c-0.1,0.5-0.4,1.1-0.7,1.5C141.7,236,141.4,236.3,141.4,236.3z"/>
					<path d="M146,238.9c0,0-0.2-0.3-0.3-0.7s-0.1-0.9,0-1.3c0.2-0.4,0.5-0.8,0.8-1s0.7-0.3,0.7-0.3s0.2,0.3,0.4,0.7
						c0.1,0.4,0.1,0.9,0,1.3c-0.2,0.4-0.5,0.8-0.8,1C146.4,238.8,146,238.9,146,238.9z"/>
					<path d="M150.4,241.4c0,0-0.1-0.4-0.1-0.8c0-0.5,0.2-0.9,0.5-1.3c0.3-0.4,0.7-0.7,1.2-0.8c0.4-0.1,0.8-0.1,0.8-0.1
						s0.1,0.4,0.1,0.8c0,0.5-0.2,0.9-0.5,1.3c-0.3,0.4-0.7,0.7-1.2,0.8C150.8,241.4,150.4,241.4,150.4,241.4z"/>
				</g>
				<g>
					<path d="M134.1,215.1c0,0,0.2,0.3,0.3,0.6s0.1,0.7-0.1,0.9c-0.2,0.2-0.5,0.4-0.8,0.4s-0.7,0-0.7,0s-0.2-0.3-0.3-0.6
						s-0.1-0.7,0.1-0.9c0.2-0.2,0.5-0.4,0.8-0.4C133.7,215,134.1,215.1,134.1,215.1z"/>
					<path d="M129.7,210.7c0,0,0.1,0.4,0.1,0.8c0,0.4-0.1,0.8-0.4,1.1c-0.3,0.3-0.6,0.5-1,0.6s-0.8,0-0.8,0s-0.1-0.4-0.1-0.8
						c0-0.4,0.1-0.8,0.4-1.1s0.6-0.5,1-0.6C129.3,210.6,129.7,210.7,129.7,210.7z"/>
					<path d="M125.7,208.5c0,0,0.1,0.4-0.1,0.9c-0.1,0.5-0.4,1-0.7,1.4c-0.4,0.4-0.9,0.7-1.4,0.8s-0.9,0.1-0.9,0.1s-0.1-0.4,0.1-0.9
						c0.1-0.5,0.4-1,0.7-1.4c0.4-0.4,0.9-0.7,1.4-0.8C125.3,208.4,125.7,208.5,125.7,208.5z"/>
					<path d="M120.6,205c0,0,0.4,0.2,0.8,0.6c0.4,0.4,0.6,1.1,0.7,1.8c0,0.4,0,0.7-0.2,1.1c-0.1,0.4-0.3,0.7-0.6,0.9
						c-0.2,0.2-0.6,0.3-0.8,0.3c-0.2,0-0.3-0.1-0.3-0.1s0-0.1,0.1-0.3c0-0.2,0-0.3,0-0.5c-0.1-0.3-0.2-0.8-0.2-1.3s0-1.1,0.2-1.6
						C120.3,205.4,120.6,205,120.6,205z"/>
					<path d="M115.3,204c0,0,0.3,0.2,0.5,0.6c0.2,0.4,0.4,0.8,0.4,1.3s-0.2,0.9-0.5,1.2s-0.6,0.5-0.6,0.5s-0.3-0.2-0.6-0.6
						c-0.2-0.4-0.4-0.8-0.4-1.3s0.2-0.9,0.5-1.2C115,204.2,115.3,204,115.3,204z"/>
					<path d="M110.5,202.8c0,0,0.2,0.4,0.3,0.8c0.1,0.4,0.1,1-0.1,1.4c-0.2,0.5-0.5,0.9-0.9,1.1c-0.4,0.3-0.8,0.4-0.8,0.4
						s-0.2-0.4-0.3-0.8c-0.1-0.4-0.1-1,0.1-1.4c0.2-0.5,0.5-0.9,0.9-1.1C110.1,202.9,110.5,202.8,110.5,202.8z"/>
				</g>
				<path d="M219.2,220.3c0,0,0.8,0,1.8,0.3s2.3,0.9,3.4,1.8c0.3,0.2,0.5,0.5,0.8,0.7s0.5,0.5,0.7,0.8c0.4,0.5,0.7,1.1,0.9,1.7
					c0.2,0.5,0.2,1,0.2,1.3s-0.1,0.5-0.1,0.5s-0.1-0.1-0.3-0.4c-0.2-0.2-0.5-0.5-0.8-0.9c-0.7-0.7-1.7-1.4-2.6-2.2
					c-1-0.8-2-1.7-2.7-2.4C219.6,220.9,219.2,220.3,219.2,220.3z"/>
				<path d="M230.4,231.3c0,0-0.3-0.5-0.4-1.3c0-0.4,0-0.8,0.1-1.3c0.1-0.2,0.1-0.5,0.3-0.8s0.3-0.7,1-0.9c0.8-0.3,1.4,0.3,1.6,0.5
					c0.3,0.3,0.4,0.6,0.5,0.8c0.2,0.5,0.2,0.9,0.3,1.3c0,0.8-0.2,1.3-0.2,1.3s-0.5-0.3-0.9-0.9c-0.3-0.2-0.5-0.6-0.7-0.8
					c-0.1-0.1-0.3-0.3-0.3-0.3s-0.1-0.1,0,0h0.1c0.1,0,0.1,0,0.2,0c0.2-0.1,0.1-0.1,0.1,0c-0.1,0.1-0.2,0.3-0.3,0.4
					c-0.2,0.3-0.4,0.7-0.6,1C230.8,230.9,230.4,231.3,230.4,231.3z"/>
				<path d="M243.6,234.8c0,0,0.7,0.1,1.4,0.6c0.4,0.2,0.7,0.6,1,1.1c0.2,0.5,0.4,1,0.5,1.6c0.3,1.1,0.3,2.2,0.2,3
					c0,0.4-0.1,0.7-0.2,1c0,0.2-0.1,0.4-0.1,0.4h-0.2c0,0-0.1-0.5-0.3-1.2s-0.5-1.6-1-2.5c-0.2-0.4-0.6-0.8-0.8-1.1
					c-0.2-0.4-0.3-0.8-0.4-1.1c-0.2-0.7-0.2-1.4-0.2-1.4L243.6,234.8z"/>
				<path d="M235.9,234.3c0,0-0.5-0.5-0.6-1.4c-0.1-0.4-0.1-1,0.3-1.6c0.2-0.3,0.5-0.7,1-0.8c0.5-0.2,1.1-0.1,1.4,0.1
					c0.4,0.1,0.6,0.4,0.8,0.6c0.2,0.2,0.4,0.4,0.5,0.6c0.3,0.4,0.5,0.8,0.7,1.2c0.3,0.7,0.5,1.2,0.5,1.2l-0.2,0.1
					c0,0-0.4-0.3-0.9-0.9c-0.3-0.2-0.6-0.5-1-0.8c-0.2-0.1-0.4-0.2-0.5-0.4c-0.2,0-0.4-0.2-0.5-0.1c-0.1,0-0.1,0.1-0.1,0.1
					c0.1,0,0,0.1,0,0.2c-0.1,0.2-0.3,0.5-0.5,0.8C236.4,233.8,236,234.3,235.9,234.3L235.9,234.3z"/>
				<path d="M238.7,238.6c0,0-0.2-0.5-0.3-1.1c0-0.3,0-0.7,0.2-1.1c0.1-0.2,0.2-0.4,0.3-0.7c0.2-0.2,0.4-0.5,0.8-0.7
					c0.5-0.2,1-0.1,1.4,0.1c0.3,0.2,0.6,0.5,0.7,0.7c0.3,0.4,0.3,0.8,0.4,1.2c0,0.7-0.1,1.2-0.1,1.2s-0.5-0.2-0.9-0.6
					c-0.2-0.2-0.5-0.4-0.7-0.5c-0.1-0.1-0.2,0-0.2-0.1c0,0.1,0.2,0.1,0.3,0c0,0,0,0-0.1,0.1s-0.2,0.2-0.3,0.3
					c-0.2,0.2-0.4,0.5-0.6,0.7C239.1,238.3,238.7,238.6,238.7,238.6z"/>
				<path d="M250.7,246.9c0,0-0.5-0.3-0.9-0.8s-0.8-1.3-1-2.1c-0.1-0.8-0.1-1.7,0.3-2.4c0.1-0.3,0.4-0.6,0.6-0.7
					c0.2-0.1,0.3-0.2,0.3-0.2s0.1,0.5,0.3,1s0.4,1.2,0.6,1.9c0.1,0.7,0.2,1.5,0.1,2.1C250.9,246.4,250.7,246.9,250.7,246.9z"/>
				<path d="M242,232.7c0,0-0.2-0.5-0.2-1.2c0-0.4,0.1-0.8,0.4-1.2c0.1-0.2,0.3-0.5,0.6-0.7s0.6-0.4,1.1-0.4c0.4,0,0.8,0.1,1.1,0.3
					s0.5,0.4,0.6,0.6c0.3,0.4,0.4,0.8,0.5,1.1c0.1,0.7,0,1.2,0,1.2s-0.5-0.2-1-0.5c-0.3-0.1-0.5-0.4-0.8-0.5
					c-0.1-0.1-0.2-0.1-0.3-0.1c-0.1-0.1-0.1,0-0.1,0s0,0-0.1,0c-0.1,0.1-0.2,0.1-0.3,0.2c-0.2,0.2-0.5,0.4-0.7,0.6
					C242.4,232.4,242,232.7,242,232.7z"/>
				<path d="M249.8,234.5c0,0,0.3,0.1,0.8,0.4c0.5,0.3,1.1,0.9,1.3,1.7c0.2,0.4,0.3,0.9,0.2,1.3c-0.1,0.4-0.3,0.8-0.6,1
					c-0.2,0.2-0.5,0.3-0.7,0.4c-0.2,0.1-0.3,0.1-0.3,0.1l-0.2-0.1c0,0-0.1-0.5-0.2-1c0-0.2-0.1-0.5,0-0.7s0.2-0.4,0.2-0.7
					c0.2-1-0.7-2.3-0.7-2.3L249.8,234.5z"/>
				<path d="M244.8,243.2c0,0,0.4,0.2,0.7,0.4s0.6,0.6,0.8,0.9c0.1,0.3,0.1,0.6,0.2,0.9c0,0.3,0.2,0.7,0.2,0.7s0,0.1-0.2,0.2
					c-0.1,0.1-0.4,0.2-0.6,0.2c-0.3,0-0.6-0.1-0.8-0.3c-0.3-0.2-0.4-0.4-0.6-0.7c-0.2-0.5-0.2-1.1-0.1-1.5
					C244.5,243.5,244.8,243.2,244.8,243.2z"/>
				<path d="M242.3,248.6c0,0-0.3,0.4-1,0.4c-0.3,0-0.8-0.1-1.1-0.4c-0.4-0.3-0.6-0.9-0.7-1.3c0-0.3,0-0.5,0-0.7s0.1-0.4,0.2-0.6
					c0.1-0.4,0.4-0.6,0.6-0.8c0.4-0.4,0.9-0.6,0.9-0.6s0.2,0.5,0.2,1c0.1,0.3,0.1,0.5,0.1,0.8s0,0.5,0.1,0.7c0,0.1,0,0.2,0,0.2
					c0,0.1,0,0.1,0,0.2c0,0.1,0.1,0.3,0.2,0.5C242,248.2,242.3,248.6,242.3,248.6z"/>
				<path d="M237.3,246.5c0,0-0.5-0.3-0.7-0.8c-0.1-0.2-0.2-0.5-0.2-0.8c0.1-0.3,0.3-0.6,0.4-0.9c0.1-0.3,0.3-0.6,0.5-0.9
					c0.2-0.3,0.4-0.5,0.7-0.6c0.4-0.3,0.8-0.3,0.8-0.3l0.1,0.2c0,0-0.2,0.2-0.3,0.6c-0.1,0.4-0.2,0.9-0.2,1.4c0,0.3,0.1,0.5,0.1,0.8
					c0,0.2-0.1,0.4-0.3,0.6c-0.3,0.4-0.7,0.7-0.7,0.7H237.3z"/>
				<path d="M229.1,250c0,0,0-0.6,0.1-1.2c0.1-0.7,0.4-1.5,0.7-2.3s0.7-1.4,0.9-2c0.1-0.3,0.2-0.5,0.2-0.7s0-0.4,0-0.4
					s0.1,0,0.3,0.2c0.2,0.1,0.4,0.5,0.5,0.9c0.3,0.8,0.2,1.9-0.2,2.8c-0.4,0.9-1,1.6-1.5,2.1C229.7,249.8,229.1,250,229.1,250z"/>
				<path d="M226.3,234.4c0,0-0.2-0.5-0.1-1.3c0-0.4,0.2-0.8,0.4-1.3c0.2-0.2,0.3-0.5,0.6-0.7s0.6-0.5,1.1-0.5
					c0.5-0.1,1,0.2,1.2,0.4c0.3,0.2,0.5,0.5,0.6,0.7c0.3,0.5,0.3,0.9,0.4,1.3c0,0.8-0.1,1.3-0.1,1.3s-0.5-0.3-0.9-0.8
					c-0.3-0.2-0.5-0.5-0.8-0.7c-0.1-0.1-0.2-0.2-0.3-0.2c0-0.1,0,0,0,0l0,0c0.1,0,0,0-0.1,0s-0.2,0.1-0.3,0.2
					c-0.3,0.2-0.5,0.5-0.8,0.7C226.8,234.1,226.3,234.4,226.3,234.4z"/>
				<path d="M223.8,234.6c0,0-0.5-0.1-1.1-0.5s-1.3-1.2-1.3-2.5c0-0.3,0.1-0.7,0.3-0.9c0.1-0.3,0.4-0.5,0.6-0.7
					c0.5-0.3,0.9-0.5,1.3-0.5c0.4-0.1,0.7,0,0.9,0.1s0.3,0.1,0.3,0.1s-0.1,0.1-0.2,0.3c-0.1,0.2-0.4,0.3-0.5,0.6
					c-0.2,0.2-0.4,0.5-0.5,0.7s-0.1,0.4-0.1,0.6c0,0.4,0.1,1.2,0.2,1.8C223.8,234,223.8,234.6,223.8,234.6z"/>
				<path d="M214.4,221c0,0,0.5-0.1,1,0c0.5,0,1.2,0.3,1.7,0.6c0.5,0.4,1,0.8,1.2,1.3c0.3,0.5,0.3,0.9,0.3,0.9s-0.5,0.1-1,0
					c-0.5,0-1.2-0.3-1.7-0.6c-0.5-0.4-1-0.8-1.2-1.3S214.4,221,214.4,221z"/>
				<path d="M210.5,222.5c0,0,0.5-0.1,1.1,0s1.4,0.3,2.1,0.6c0.7,0.3,1.3,0.7,1.7,1.1c0.5,0.4,0.8,0.7,0.8,0.7s-0.4,0.3-1.1,0.4
					c-0.7,0.1-1.6-0.1-2.3-0.4c-0.7-0.4-1.4-0.9-1.8-1.4C210.7,223,210.5,222.5,210.5,222.5z"/>
				<path d="M205.5,222.9c0,0,0.5,0,1,0.1c0.6,0.1,1.2,0.4,1.7,0.9c0.5,0.4,0.9,1,1.2,1.5c0.2,0.5,0.3,1,0.3,1s-0.5,0-1-0.1
					c-0.6-0.1-1.2-0.4-1.7-0.9c-0.5-0.4-0.9-1-1.2-1.5S205.5,222.9,205.5,222.9z"/>
				<path d="M198.9,224.9c0,0,0.5,0,1.2,0.2c0.6,0.2,1.4,0.6,2.1,1.1c0.6,0.5,1.2,1.1,1.5,1.7c0.3,0.6,0.4,1.1,0.4,1.1
					s-0.5,0-1.2-0.2c-0.6-0.2-1.4-0.6-2.1-1.1c-0.6-0.5-1.2-1.2-1.5-1.7C199,225.4,198.9,224.9,198.9,224.9z"/>
				<path d="M194.5,225.6c0,0,0.4,0.2,0.9,0.6c0.4,0.4,0.9,1,1.1,1.7c0.3,0.7,0.4,1.4,0.3,2c0,0.6-0.2,1-0.2,1s-0.4-0.2-0.9-0.6
					c-0.4-0.4-0.9-1-1.1-1.7c-0.3-0.7-0.4-1.4-0.3-2S194.5,225.6,194.5,225.6z"/>
				<path d="M188.4,227.4c0,0,0.5,0.1,0.9,0.5c0.5,0.3,1,0.9,1.3,1.5s0.6,1.3,0.6,1.9c0.1,0.6-0.1,1.1-0.1,1.1s-0.5-0.1-0.9-0.5
					c-0.5-0.3-1-0.9-1.3-1.5s-0.5-1.3-0.6-1.9C188.3,227.9,188.4,227.4,188.4,227.4z"/>
				<path d="M178.4,228.3c0,0,0.5-0.3,1.3-0.4c0.8-0.1,1.8,0.1,2.8,0.6c0.5,0.3,0.9,0.6,1.3,0.9c0.4,0.4,0.6,0.8,0.8,1.1
					c0.4,0.8,0.2,1.4,0.3,1.4c0,0-0.1-0.1-0.3-0.2c-0.2-0.1-0.5-0.3-0.8-0.4c-0.6-0.3-1.3-0.7-2.1-1.1c-0.8-0.4-1.5-0.8-2.1-1.2
					C178.9,228.6,178.4,228.3,178.4,228.3z"/>
				<path d="M175.9,235.5c0,0-0.3-0.3-0.5-0.6c-0.2-0.4-0.3-0.8-0.3-1.3c0.1-0.4,0.3-0.9,0.6-1.2s0.6-0.5,0.6-0.5s0.3,0.3,0.5,0.6
					c0.2,0.4,0.3,0.8,0.3,1.3c-0.1,0.4-0.3,0.9-0.6,1.2C176.3,235.4,175.9,235.5,175.9,235.5z"/>
				<path d="M192.3,231.9c0,0,0.5,0.1,1,0.4c0.6,0.3,1.2,0.7,1.6,1.3c0.5,0.6,0.8,1.3,1,1.9c0.2,0.6,0.1,1.1,0.1,1.1s-0.5-0.1-1-0.4
					c-0.6-0.3-1.2-0.7-1.6-1.3c-0.5-0.6-0.8-1.3-1-1.9C192.3,232.4,192.3,231.9,192.3,231.9z"/>
				<path d="M201.4,236.5c0,0-0.3-0.3-0.6-0.7s-0.4-1-0.4-1.6s0.2-1.2,0.4-1.6c0.2-0.4,0.6-0.7,0.6-0.7s0.3,0.3,0.6,0.7
					s0.4,1,0.4,1.6s-0.2,1.2-0.4,1.6C201.7,236.2,201.4,236.5,201.4,236.5z"/>
				<path d="M209.9,228c0,0,0.4,0.1,0.9,0.4c0.5,0.3,0.9,0.7,1.2,1.2s0.5,1.1,0.5,1.7c0,0.5-0.1,1-0.1,1s-0.4-0.1-0.9-0.4
					c-0.5-0.3-0.9-0.7-1.2-1.2s-0.5-1.1-0.5-1.7C209.8,228.4,209.9,228,209.9,228z"/>
				<path d="M215.4,228.4c0,0,0.4-0.1,0.9,0.1c0.5,0.1,1,0.4,1.4,0.7c0.4,0.4,0.7,0.9,0.9,1.4s0.1,0.9,0.1,0.9s-0.4,0.1-0.9-0.1
					c-0.5-0.1-1-0.4-1.4-0.7c-0.4-0.4-0.7-0.9-0.9-1.4C215.4,228.8,215.4,228.4,215.4,228.4z"/>
				<path d="M221.3,228.4c0,0-0.2,0.4-0.7,0.5c-0.2,0.1-0.5,0.2-0.9,0.1c-0.2,0-0.4-0.1-0.6-0.3c-0.2-0.2-0.4-0.5-0.5-0.8
					c-0.1-0.7,0.2-1.1,0.4-1.3c0.2-0.3,0.5-0.3,0.7-0.4c0.5-0.1,0.9,0,0.9,0s0.1,0.4,0,0.8c0,0.2,0,0.4,0,0.6c0,0.2,0.1,0.2,0,0
					c0-0.1-0.1-0.2-0.2-0.2c0,0-0.1,0,0,0.1c0,0.1,0.2,0.2,0.3,0.4C221,228.1,221.3,228.4,221.3,228.4z"/>
				<path d="M224.1,250c0,0-0.2-0.5-0.1-1.2c0-0.7,0.2-1.5,0.5-2.3s0.8-1.5,1.3-2s0.9-0.7,0.9-0.7s0.2,0.5,0.1,1.2
					c0,0.7-0.2,1.5-0.5,2.3s-0.8,1.5-1.3,2C224.6,249.7,224.1,250,224.1,250z"/>
				<path d="M231.7,240c0,0-0.2-0.5-0.5-1.3c-0.1-0.3-0.3-0.5-0.4-0.5c0,0,0-0.1-0.1-0.2c0,0-0.1-0.1-0.2-0.1h-0.1
					c-0.2,0-0.2,0-0.2,0H230c-0.1,0-0.3-0.1-0.4-0.1c-0.1,0-0.1,0-0.2-0.1c-0.1-0.1-0.3-0.2-0.3-0.3c-0.2-0.2-0.1-0.7,0-0.8
					c0.3-0.5,0.6-0.5,0.8-0.7c0.5-0.3,0.9-0.4,1.3-0.6c0.8-0.3,1.3-0.4,1.3-0.4l0.1,0.2c0,0-0.4,0.3-1,0.9c-0.3,0.3-0.6,0.6-1,0.9
					c-0.1,0.1-0.3,0.4-0.3,0.4s0.1-0.3,0-0.5c0-0.1-0.1-0.2-0.2-0.2c-0.1,0,0,0-0.1,0c0,0-0.1,0,0,0h0.2c0,0,0.2,0,0.1,0h0.3
					c0.2,0,0.4,0,0.6,0c0.4,0,0.9,0.2,1.2,0.5c0.7,0.7,0.6,1.5,0.5,2s-0.3,0.8-0.6,1c-0.2,0.2-0.3,0.3-0.3,0.3L231.7,240z"/>
				<path d="M218.2,234.8c0,0,0.6,0.1,1.4,0.7c0.4,0.3,0.8,0.7,1.1,1.2c0.4,0.5,0.6,1.1,0.8,1.7c0.1,0.7,0.1,1.4-0.1,2
					c-0.1,0.3-0.2,0.6-0.4,0.8c-0.1,0.3-0.3,0.5-0.5,0.6c-0.7,0.7-1.4,0.7-1.4,0.8c0,0,0.2-0.6,0.4-1.4c0.1-0.4,0.2-0.8,0.1-1.2
					c0-0.2,0-0.4,0-0.6c0-0.2-0.1-0.4-0.1-0.6c-0.2-0.9-0.5-1.8-0.8-2.6C218.4,235.5,218.2,234.8,218.2,234.8z"/>
				<path d="M222.7,235.4c0,0,0.1,0.6,0.2,1.2c0.1,0.3,0.2,0.6,0.3,0.9c0.1,0.1,0.2,0.2,0.2,0.3c0.1,0.1,0.1,0.1,0.3,0.2
					c0.2,0.2,0.6,0.3,0.9,0.4c0.3,0.2,0.7,0.2,1.1,0.4c0.7,0.2,1.2,0.5,1.2,0.5s-0.4,0.4-1.2,0.7c-0.4,0.1-0.8,0.3-1.4,0.2
					c-0.3,0-0.5,0-0.8-0.1s-0.6-0.2-0.9-0.4c-0.3-0.2-0.5-0.5-0.8-0.7c-0.2-0.3-0.3-0.6-0.4-1c-0.1-0.3,0-0.6,0-0.9
					c0-0.3,0.1-0.5,0.2-0.7C222.1,235.7,222.7,235.4,222.7,235.4z"/>
				<path d="M218.1,243.7c0,0,0.3,0.3,0.6,0.7s0.5,1,0.6,1.6s0.1,1.1,0,1.6c-0.1,0.4,0,0.8,0,0.9c0,0-0.1,0-0.3,0s-0.5-0.1-0.7-0.4
					c-0.5-0.4-0.8-1.1-1-1.7c-0.1-0.7,0-1.4,0.2-1.9C217.7,244,218.1,243.7,218.1,243.7z"/>
				<path d="M210,238.9c0,0,0.4,2.1,0.9,4c0.1,0.5,0.3,1,0.4,1.4c0.1,0.4,0.1,0.8,0,1.2c0,0.4-0.1,0.6-0.1,0.9c0,0.2,0,0.4,0,0.4
					l-0.1,0.2c0,0-0.2,0-0.5-0.1s-0.6-0.4-0.9-0.8c-0.3-0.4-0.5-0.8-0.6-1.4c-0.1-0.5,0-1.1,0-1.6c0.1-2.1,0.6-4.2,0.6-4.2
					L210,238.9z"/>
				<path d="M211.9,233.5c0,0,1.1,1.5,2.1,3c0.3,0.4,0.6,0.7,0.8,1.1c0.2,0.4,0.2,0.8,0.2,1.2c0,0.7-0.2,1.3-0.2,1.3l-0.2,0.1
					c0,0-0.6-0.2-1.1-0.7c-0.3-0.3-0.5-0.6-0.7-1c-0.1-0.4-0.2-0.9-0.3-1.3c-0.5-1.8-0.8-3.6-0.8-3.6L211.9,233.5z"/>
				<path d="M213,246.7c0,0,0.2,0.4,0.3,0.9s0.1,1.1,0,1.6s-0.3,1-0.6,1.3c-0.1,0.2-0.2,0.4-0.3,0.5c-0.1,0.2-0.1,0.3-0.1,0.3
					s-0.5-0.1-0.8-0.6s-0.4-1.3-0.3-1.9c0.2-0.7,0.5-1.2,0.9-1.6C212.6,246.9,213,246.7,213,246.7z"/>
				<path d="M202.8,241.6c0,0,0.3,0.3,0.6,0.8s0.4,1,0.5,1.6c0,0.3,0.1,0.5,0,0.8c0,0.2,0,0.5-0.1,0.7c0,0.2,0,0.4,0,0.5
					s0.1,0.3,0.1,0.3s-0.1,0.1-0.3,0.1s-0.5-0.1-0.8-0.3c-0.6-0.4-0.9-1.1-1-1.8s0.1-1.4,0.3-1.8
					C202.4,241.8,202.8,241.6,202.8,241.6z"/>
				<path d="M206.2,231.8c0,0,0.5,0.1,1,0.4c0.5,0.3,1.1,0.7,1.5,1.3s0.7,1.2,0.8,1.8s0.1,1,0.1,1s-0.5-0.1-1-0.4
					c-0.5-0.3-1.1-0.7-1.5-1.3s-0.7-1.2-0.8-1.8C206.1,232.2,206.2,231.8,206.2,231.8z"/>
				<path d="M204.8,236.5c0,0,0.4,0.1,0.8,0.3c0.4,0.2,0.8,0.6,1.1,1c0.3,0.5,0.4,1,0.3,1.5c0,0.5-0.2,0.9-0.2,0.9s-0.4-0.1-0.8-0.3
					c-0.4-0.2-0.8-0.6-1.1-1c-0.3-0.5-0.4-1-0.3-1.5C204.6,236.9,204.8,236.5,204.8,236.5z"/>
				<path d="M198.3,236.4c0,0,0.4,0.2,0.8,0.6c0.4,0.4,0.8,0.9,1.1,1.4s0.5,1,0.7,1.4s0.6,0.7,0.6,0.7s-0.1,0.1-0.3,0.2
					c-0.2,0.1-0.5,0.2-0.8,0.1c-0.4,0-0.8-0.2-1.1-0.4c-0.4-0.2-0.6-0.6-0.8-0.9c-0.4-0.7-0.5-1.4-0.5-2
					C198.1,236.8,198.3,236.4,198.3,236.4z"/>
				<path d="M196.1,242.1c0,0,0.4,0.1,0.9,0.3s0.9,0.6,1.3,1.1c0.3,0.5,0.5,1.1,0.6,1.6s-0.1,0.9-0.1,0.9s-0.4-0.1-0.9-0.3
					s-0.9-0.6-1.3-1.1c-0.3-0.5-0.5-1.1-0.6-1.6C196,242.6,196.1,242.1,196.1,242.1z"/>
				<path d="M247.1,226.3c0,0,0.4,0,0.9,0.2s0.9,0.5,1.3,1c0.3,0.5,0.5,1,0.6,1.5s-0.1,0.9-0.1,0.9s-0.4,0-0.9-0.2s-0.9-0.5-1.3-1
					c-0.3-0.5-0.5-1-0.6-1.5S247.1,226.3,247.1,226.3z"/>
				<path d="M250.4,231c0,0,0.7,0.5,1.1,1c0.1,0.1,0.3,0.2,0.4,0.4c0.1,0.1,0,0.3-0.1,0.5c-0.1,0.3-0.5,0.7-0.5,0.7l-0.2,0.1
					c0,0-0.5,0-0.8-0.1c-0.2-0.1-0.3-0.2-0.4-0.3c0-0.2,0-0.4,0-0.6c0-0.7,0.2-1.5,0.2-1.5L250.4,231z"/>
				<path d="M253.7,229.6c0,0,0.8,0.9,1.4,1.9c0.2,0.2,0.4,0.5,0.5,0.7s0.1,0.5,0,0.8c-0.1,0.5-0.4,0.9-0.4,0.9L255,234
					c0,0-0.5-0.1-0.9-0.4c-0.2-0.1-0.4-0.3-0.5-0.6s0-0.6-0.1-0.9c-0.1-1.1-0.1-2.3-0.1-2.3L253.7,229.6z"/>
				<path d="M253.6,239.9c0,0,0.3,0.2,0.6,0.5s0.4,0.7,0.4,1.1c0,0.4-0.2,0.8-0.4,1.1s-0.6,0.5-0.6,0.5s-0.3-0.2-0.6-0.5
					s-0.4-0.7-0.4-1.1c0-0.4,0.2-0.8,0.4-1.1C253.3,240.1,253.6,239.9,253.6,239.9z"/>
				<path d="M251.1,249.7c0,0-0.1-0.4,0-0.7c0-0.4,0.2-0.7,0.5-1c0.3-0.2,0.7-0.4,1.1-0.4c0.4,0,0.7,0.1,0.7,0.1s0.1,0.4,0,0.7
					c0,0.4-0.2,0.7-0.5,1c-0.3,0.2-0.7,0.4-1.1,0.3C251.5,249.8,251.1,249.7,251.1,249.7z"/>
				<path d="M185,234.8c0,0,0.2-0.4,0.7-0.6c0.5-0.2,1.2-0.2,1.9,0.3c0.3,0.3,0.6,0.6,0.6,1c0.1,0.4,0,0.7-0.1,1
					c-0.2,0.5-0.6,0.7-0.6,0.7s-0.3-0.3-0.6-0.6c-0.1-0.1-0.3-0.3-0.4-0.3c-0.1-0.1-0.2-0.1-0.3-0.2c-0.1-0.1-0.4-0.4-0.7-0.7
					C185.3,235.2,185,234.8,185,234.8z"/>
				<path d="M191.2,236.7c0,0,0.3,0.2,0.6,0.6c0.3,0.3,0.4,0.8,0.4,1.3s-0.2,0.9-0.4,1.3c-0.2,0.3-0.6,0.6-0.6,0.6s-0.3-0.2-0.6-0.6
					c-0.3-0.3-0.4-0.8-0.4-1.3s0.2-0.9,0.4-1.3C190.8,236.9,191.2,236.7,191.2,236.7z"/>
				<path d="M180.1,234.3c0,0,0.2,0,0.4,0.2c0.2,0.1,0.4,0.3,0.5,0.5c0.1,0.1,0.1,0.2,0.1,0.4c0,0.1-0.1,0.3-0.2,0.5
					c-0.1,0.2-0.2,0.4-0.1,0.5c0,0.2,0.2,0.3,0.3,0.4c0.2,0.1,0.4,0.3,0.4,0.4c0.1,0.1,0.2,0.3,0.3,0.4c0.1,0.3,0.1,0.6,0,0.9
					c-0.2,0.5-0.6,1-0.6,1H181c0,0-0.6-0.2-1-0.6c-0.2-0.2-0.3-0.5-0.3-0.8c0-0.2,0-0.3,0.1-0.5c0-0.2,0.1-0.4,0.2-0.6
					c0.1-0.2,0.2-0.4,0.1-0.5c0-0.2-0.1-0.3-0.3-0.4c-0.2-0.1-0.4-0.2-0.4-0.4c-0.1-0.1-0.1-0.3-0.1-0.4c0-0.3,0.2-0.5,0.3-0.7
					s0.3-0.3,0.3-0.3L180.1,234.3z"/>
				<path d="M178.1,245.8c0,0-0.2-0.4-0.3-1.2c-0.1-0.7,0-1.7,0.6-2.7c0.3-0.4,0.6-0.9,1.1-1.1c0.4-0.3,0.9-0.4,1.3-0.5
					c0.8-0.1,1.3,0.2,1.2,0.1c0,0-0.5,0.3-0.9,0.7c-0.5,0.4-1,0.9-1.3,1.6c-0.4,0.6-0.7,1.4-1,2
					C178.4,245.3,178.1,245.8,178.1,245.8z"/>
				<path d="M174.4,237.6c0,0,0.3,0.3,0.5,0.6c0.2,0.4,0.3,0.8,0.2,1.2s-0.3,0.8-0.6,1.1s-0.7,0.4-0.7,0.4s-0.3-0.3-0.5-0.6
					c-0.2-0.4-0.3-0.8-0.2-1.2s0.3-0.8,0.6-1.1C174,237.8,174.4,237.6,174.4,237.6z"/>
				<path d="M177,250.1c0,0,0.2-0.6,0.7-1.2c0.5-0.7,1.3-1.4,2.1-2c0.9-0.6,1.8-1,2.6-1.3c0.8-0.2,1.4-0.3,1.4-0.3s-0.2,0.6-0.7,1.2
					c-0.5,0.7-1.3,1.4-2.1,2c-0.9,0.6-1.8,1-2.6,1.3C177.6,250.1,177,250.1,177,250.1z"/>
				<path d="M190.6,242.1c0,0,0.4,0.1,0.8,0.5c0.4,0.3,0.8,0.8,1,1.3s0.3,1.1,0.2,1.6s-0.3,0.9-0.3,0.9s-0.4-0.1-0.8-0.5
					c-0.4-0.3-0.8-0.8-1-1.3s-0.3-1.1-0.2-1.6C190.4,242.5,190.6,242.1,190.6,242.1z"/>
				<path d="M159.6,249.6c0,0,1.5-1.3,2.9-2.6c1.5-1.2,3.1-2.4,3.1-2.4l0.1,0.2c0,0,0,0.8-0.3,1.5c-0.1,0.4-0.4,0.8-0.6,1.2
					c-0.1,0.2-0.3,0.4-0.5,0.6l-0.5,0.5c-0.4,0.3-0.8,0.6-1.2,0.8s-0.9,0.3-1.3,0.4c-0.8,0.2-1.6,0-1.6,0L159.6,249.6z"/>
				<path d="M155.3,240.2c0,0,0.1-0.5,0.4-0.9c0.3-0.5,0.8-0.9,1.3-1.3c0.6-0.3,1.2-0.5,1.8-0.5c0.5,0,1,0.1,1,0.1s-0.1,0.5-0.4,0.9
					c-0.3,0.5-0.8,0.9-1.3,1.3c-0.6,0.3-1.2,0.5-1.8,0.5C155.8,240.3,155.3,240.2,155.3,240.2z"/>
				<path d="M162.7,236c0,0,0.4,0.4,0.8,1.1c0.4,0.6,0.8,1.5,1,2.4s0.3,1.9,0.3,2.6c0,0.4,0,0.7,0,0.9s0.1,0.3,0.1,0.3
					s-0.2,0.1-0.4-0.1c-0.2-0.1-0.5-0.4-0.8-0.7c-0.5-0.6-1-1.5-1.2-2.5s-0.3-1.9-0.2-2.7C162.5,236.5,162.7,236,162.7,236z"/>
				<path d="M93.5,217.9c0,0,0.4-0.1,0.7,0c0.4,0,0.7,0.2,1,0.5c0.2,0.3,0.3,0.7,0.3,1c0,0.4-0.1,0.7-0.1,0.7s-0.4,0.1-0.7,0
					c-0.4,0-0.7-0.2-1-0.5c-0.2-0.3-0.3-0.7-0.3-1C93.3,218.3,93.5,217.9,93.5,217.9z"/>
				<path d="M99.5,224.7c0,0,0.5,0,1,0.2c0.6,0.2,1.2,0.5,1.7,1s0.9,1.1,1.1,1.6s0.2,1,0.2,1s-0.5,0-1-0.2c-0.6-0.2-1.2-0.5-1.7-1
					s-0.9-1.1-1.1-1.6C99.5,225.1,99.5,224.7,99.5,224.7z"/>
			</g>
			<path class="st9" d="M123,153.4c0,0,0.5,0.2,1.3,0.6c0.4,0.2,0.9,0.5,1.5,0.9c0.5,0.4,1.2,0.8,1.7,1.4c0.6,0.5,1.2,1.2,1.8,1.9
				s1.2,1.5,1.8,2.4c0.5,0.9,1.1,1.8,1.4,2.9c0.2,0.5,0.4,1,0.6,1.6l0.4,1.6c0.3,1.1,0.3,2.2,0.4,3.3c0.1,1.1-0.2,2.2-0.2,3.2
				c-0.1,1-0.5,2-0.7,2.9s-0.7,1.7-1,2.4c-0.4,0.7-0.7,1.4-1.1,1.9c-0.4,0.5-0.7,1-1,1.4c-0.6,0.7-1,1.1-1,1.1s0.1-0.6,0.2-1.5
				c0.1-0.5,0.2-1,0.3-1.6c0.2-0.6,0.2-1.3,0.3-2s0.3-1.5,0.3-2.4c0-0.8,0.1-1.7,0.1-2.6c-0.1-0.9,0-1.8-0.1-2.7s-0.1-1.8-0.4-2.7
				l-0.3-1.4l-0.4-1.3c-0.2-0.9-0.6-1.7-0.9-2.6c-0.4-0.8-0.7-1.6-1.1-2.4c-0.4-0.7-0.7-1.5-1.1-2.1c-0.7-1.3-1.4-2.4-1.9-3.2
				C123.3,153.9,123,153.4,123,153.4z"/>
		</g>
		<path class="st10" d="M369.8,297.9C335.9,356.6,272.6,396,200,396C91.8,396,4,308.2,4,200"/>
		<g>
			<g>
				<defs>
					
						<ellipse id="SVGID_4_" transform="matrix(0.1619 -0.9868 0.9868 0.1619 -135.1843 156.8722)" cx="24.8" cy="158" rx="196" ry="196"/>
				</defs>
				<clipPath id="SVGID_5_">
					<use xlink:href="#SVGID_4_"  style="overflow:visible;"/>
				</clipPath>
				
					<ellipse transform="matrix(0.1619 -0.9868 0.9868 0.1619 -224.7843 337.9691)" class="st11" cx="86.6" cy="301.3" rx="81.1" ry="236.6"/>
			</g>
		</g>
		<path class="st12" d="M160,283c17-17.5,120.4-131.4,235.2-65.7c0,0-5,57.3-32.6,91.5C334,346,284.9,400.1,191,396S100,345,160,283
			z"/>
	</g>
</g>
</svg>
