<?xml version="1.0" encoding="utf-8"?>
<!-- Generator: Adobe Illustrator 21.0.2, SVG Export Plug-In . SVG Version: 6.00 Build 0)  -->
<svg version="1.1" xmlns="http://www.w3.org/2000/svg" xmlns:xlink="http://www.w3.org/1999/xlink" x="0px" y="0px"
	 viewBox="0 0 400 400" style="enable-background:new 0 0 400 400;" xml:space="preserve">
<style type="text/css">
	.st0{fill:#D2AA78;}
	.st1{fill:#F2D95A;}
	.st2{display:none;}
	.st3{display:inline;}
	.st4{fill:#4E6F56;}
	.st5{fill:#658C56;}
	.st6{display:inline;fill:#5C6800;}
	.st7{fill:none;stroke:#5C6800;stroke-width:4;stroke-miterlimit:10;}
	.st8{display:none;fill:none;stroke:#5C6800;stroke-width:4;stroke-miterlimit:10;}
	.st9{fill:#FFFFFF;}
	.st10{fill:#E6E6E6;}
	.st11{display:inline;fill:#FFFFFF;}
	.st12{fill:#FFAE17;}
	.st13{display:none;fill:#FFAE17;}
	.st14{fill:#F2F2F2;}
	.st15{fill:#CCCCCC;}
	.st16{clip-path:url(#SVGID_2_);}
	.st17{clip-path:url(#SVGID_4_);fill:#4C596B;}
	.st18{clip-path:url(#SVGID_4_);fill:#464C57;}
	.st19{clip-path:url(#SVGID_6_);fill:#807474;}
	.st20{clip-path:url(#SVGID_8_);fill:#1E2121;}
	.st21{clip-path:url(#SVGID_10_);fill:#FFFFFF;}
	.st22{clip-path:url(#SVGID_10_);fill:#58595B;}
	.st23{clip-path:url(#SVGID_10_);fill:#414042;}
	.st24{clip-path:url(#SVGID_12_);fill:#FFFFFF;}
	.st25{clip-path:url(#SVGID_14_);fill:#FFF8F1;}
	.st26{clip-path:url(#SVGID_16_);fill:#1E2121;}
	.st27{clip-path:url(#SVGID_18_);fill:#BA9F00;}
	.st28{clip-path:url(#SVGID_18_);fill:none;stroke:#000000;stroke-width:0.5;stroke-miterlimit:10;}
	.st29{clip-path:url(#SVGID_18_);fill:#231F20;}
	.st30{clip-path:url(#SVGID_18_);fill:#9A6D58;}
	.st31{clip-path:url(#SVGID_18_);fill:#5D5B82;}
</style>
<g id="lighthouse">
	<circle class="st0" cx="200" cy="200" r="196"/>
	<g id="Layer_3">
		<circle class="st1" cx="128" cy="195" r="62"/>
		<g class="st2">
			<g class="st3">
				<path class="st1" d="M22.3,151.4c2.9,0.5,5.6,1.3,8.3,2c2.7,0.8,5.4,1.6,8,2.6c1.3,0.5,2.8,0.7,4.1,1.1c1.4,0.4,2.6,1,3.5,2.1
					c1,1,1.8,2.3,2.5,3.8c0.7,1.5,1.3,3.2,1.5,5.5l-0.7,1.1c-2.1,0.9-3.9,1.2-5.5,1.2c-1.6,0.1-3.1-0.1-4.5-0.5
					c-1.4-0.4-2.5-1.1-3.5-2.2c-1-1.1-1.8-2.3-2.9-3.2c-2.1-1.9-4.1-3.8-6-5.9c-1.9-2.1-3.9-4.2-5.7-6.5L22.3,151.4z"/>
			</g>
			<g class="st3">
				<path class="st1" d="M55.6,118.9c2.2,1.9,4.2,3.9,6.3,5.9c2,2,3.9,4.1,5.7,6.2c0.9,1.1,2,2,3.1,3c1,1,1.7,2.2,2.1,3.5
					c0.3,1.4,0.5,2.9,0.3,4.5c-0.1,1.6-0.5,3.4-1.4,5.5l-1.1,0.6c-2.3-0.3-4-0.9-5.4-1.7c-1.5-0.8-2.7-1.6-3.7-2.6
					c-1-1-1.6-2.2-1.9-3.6c-0.3-1.4-0.5-2.9-0.9-4.2c-0.9-2.6-1.6-5.3-2.3-8.1c-0.6-2.8-1.3-5.5-1.7-8.4L55.6,118.9z"/>
			</g>
			<g class="st3">
				<path class="st1" d="M95.4,104.2c1.4,2.6,2.5,5.2,3.7,7.8c1.1,2.6,2.1,5.2,3,7.9c0.4,1.3,1.2,2.6,1.8,3.9c0.6,1.3,0.8,2.6,0.6,4
					c-0.2,1.4-0.6,2.8-1.3,4.3c-0.7,1.5-1.7,3-3.4,4.6l-1.3,0.2c-2-1.1-3.4-2.3-4.5-3.5c-1.1-1.2-1.9-2.5-2.4-3.8
					c-0.6-1.3-0.7-2.7-0.5-4.1c0.2-1.4,0.6-2.8,0.7-4.2c0.2-2.8,0.4-5.6,0.8-8.4c0.4-2.8,0.8-5.6,1.5-8.5L95.4,104.2z"/>
			</g>
			<g class="st3">
				<path class="st1" d="M135.9,104.6c0.5,2.9,0.7,5.7,0.9,8.5c0.2,2.8,0.3,5.6,0.3,8.4c0,1.4,0.3,2.8,0.4,4.3
					c0.1,1.4-0.1,2.8-0.7,4c-0.6,1.3-1.5,2.5-2.7,3.6c-1.2,1.2-2.6,2.3-4.7,3.2l-1.3-0.3c-1.6-1.7-2.4-3.3-3.1-4.8
					c-0.6-1.5-1-3-1.1-4.4c-0.1-1.4,0.2-2.7,0.9-4c0.7-1.3,1.5-2.5,2-3.8c1.1-2.6,2.2-5.1,3.5-7.6c1.3-2.5,2.6-5,4.2-7.5
					L135.9,104.6z"/>
			</g>
			<g class="st3">
				<path class="st1" d="M170.5,116.5c-0.4,2.9-1.1,5.6-1.7,8.4c-0.6,2.8-1.4,5.5-2.3,8.1c-0.4,1.3-0.6,2.8-0.9,4.2
					c-0.3,1.4-0.9,2.6-1.9,3.6c-1,1-2.2,1.9-3.7,2.7c-1.5,0.7-3.1,1.4-5.4,1.7l-1.1-0.6c-1-2.1-1.3-3.8-1.5-5.5
					c-0.1-1.6,0-3.1,0.3-4.5c0.3-1.4,1-2.6,2-3.5c1-1,2.2-1.9,3.1-3c1.8-2.1,3.7-4.2,5.7-6.2c2-2,4-4,6.3-5.9L170.5,116.5z"/>
			</g>
			<g class="st3">
				<path class="st1" d="M199.5,143.9c-1.9,2.2-3.8,4.3-5.8,6.3c-2,2-4,4-6.1,5.8c-1.1,0.9-2,2.1-2.9,3.1c-1,1-2.1,1.8-3.5,2.1
					c-1.4,0.3-2.9,0.5-4.5,0.4c-1.6-0.1-3.4-0.4-5.5-1.4l-0.6-1.1c0.3-2.3,0.9-4,1.6-5.5c0.7-1.5,1.6-2.7,2.6-3.7c1-1,2.2-1.7,3.6-2
					c1.4-0.3,2.9-0.5,4.2-1c2.6-0.9,5.3-1.7,8.1-2.4c2.8-0.7,5.5-1.4,8.4-1.8L199.5,143.9z"/>
			</g>
			<g class="st3">
				<path class="st1" d="M215.1,176.7c-2.5,1.6-5,2.9-7.5,4.3c-2.5,1.3-5,2.5-7.6,3.6c-1.3,0.5-2.5,1.4-3.7,2.1
					c-1.2,0.7-2.6,1-4,0.9c-1.4-0.1-2.9-0.4-4.4-1c-1.5-0.6-3.1-1.5-4.8-3l-0.3-1.3c0.9-2.1,2-3.5,3.2-4.7c1.1-1.2,2.3-2.1,3.6-2.7
					c1.3-0.7,2.6-0.9,4-0.8c1.4,0.1,2.9,0.4,4.3,0.3c2.8-0.1,5.6,0,8.4,0.2c2.8,0.2,5.7,0.4,8.6,0.8L215.1,176.7z"/>
			</g>
			<g class="st3">
				<path class="st1" d="M217.2,211.7c-2.8,0.8-5.6,1.3-8.4,1.8c-2.8,0.5-5.6,0.9-8.3,1.2c-1.4,0.1-2.8,0.6-4.2,0.8
					c-1.4,0.3-2.8,0.2-4.1-0.3c-1.3-0.5-2.6-1.3-3.9-2.3c-1.3-1.1-2.5-2.3-3.7-4.3l0.1-1.3c1.5-1.7,3-2.7,4.5-3.5
					c1.4-0.8,2.9-1.3,4.3-1.5c1.4-0.3,2.8-0.1,4.1,0.5c1.3,0.5,2.6,1.2,4,1.6c2.7,0.8,5.3,1.7,8,2.7c2.6,1.1,5.3,2.1,7.9,3.4
					L217.2,211.7z"/>
			</g>
			<g class="st3">
				<path class="st1" d="M212.4,244.1c-2.9,0.1-5.7,0-8.6,0c-2.8-0.1-5.6-0.3-8.4-0.6c-1.4-0.2-2.8-0.1-4.3-0.1
					c-1.4,0-2.7-0.4-3.9-1.2c-1.2-0.8-2.3-1.8-3.3-3.1c-1-1.3-2-2.8-2.7-5l0.4-1.2c1.9-1.4,3.5-2,5.1-2.5c1.6-0.4,3.1-0.6,4.5-0.6
					c1.4,0,2.7,0.5,3.9,1.3c1.2,0.8,2.3,1.8,3.5,2.4c2.4,1.3,4.8,2.8,7.2,4.4c2.4,1.6,4.7,3.2,7,5L212.4,244.1z"/>
			</g>
			<g class="st3">
				<path class="st1" d="M7.3,188c2.9-0.3,5.7-0.4,8.6-0.6c2.8-0.1,5.6-0.1,8.4,0.1c1.4,0.1,2.8-0.1,4.3-0.2c1.4-0.1,2.8,0.2,4,0.9
					c1.2,0.7,2.4,1.6,3.5,2.8c1.1,1.2,2.2,2.7,3,4.8l-0.3,1.3c-1.8,1.5-3.4,2.3-4.9,2.9c-1.5,0.6-3,0.8-4.4,0.9
					c-1.4,0.1-2.7-0.3-4-1c-1.2-0.7-2.4-1.6-3.7-2.2c-2.5-1.2-5-2.4-7.5-3.9c-2.5-1.4-4.9-2.8-7.3-4.5L7.3,188z"/>
			</g>
		</g>
	</g>
	<path class="st4" d="M369.8,297.9C335.9,356.6,272.6,396,200,396C91.8,396,4,308.2,4,200"/>
	<path class="st5" d="M160,283c17-17.5,120.4-131.4,235.2-65.7c0,0-5,57.3-32.6,91.5c-28.6,37.2-77.7,91.3-171.6,87.2
		S100,345,160,283z"/>
	<g class="st2">
		<path class="st6" d="M177.4,278.1c3.1,6.3,5.4,12.9,7.2,19.7c1.8,6.8,3,13.7,3.6,20.8c0.3,3.5,0.4,7.1,0.3,10.6
			c-0.1,3.5-0.4,7.1-0.9,10.6c-0.5,3.5-1.3,7-2.4,10.3c-1.1,3.4-2.5,6.6-4.2,9.7c0.9-3.4,1.7-6.7,2.3-10.1c0.6-3.4,0.9-6.8,1.2-10.2
			c0.2-3.4,0.3-6.8,0.2-10.2c-0.1-3.4-0.2-6.8-0.5-10.3c-0.6-6.8-1.5-13.6-2.7-20.4C180.4,291.7,179,285,177.4,278.1z"/>
	</g>
	<path class="st7" d="M74,199c0,0-47,18,1,107c0,0,26.5,8.5,40.5-51.5"/>
	<path class="st8" d="M237,262c0,0,3,75-54,83"/>
	<g>
		<path class="st9" d="M58.8,219.8c-2.2-8.8-2-16.5,0.4-17.2c2.4-0.7,6.2,5.9,8.4,14.7s2,16.5-0.4,17.2S61,228.6,58.8,219.8z"/>
		<path class="st9" d="M47.5,213.1c5-7.4,10.8-12.1,12.8-10.5c2,1.6-0.4,8.8-5.4,16.2c-5,7.4-10.8,12.1-12.8,10.5
			C40,227.7,42.4,220.5,47.5,213.1z"/>
		<path class="st9" d="M44.7,203.3c8.4-2,15.6-1.4,16.1,1.2s-5.8,6.3-14.2,8.3c-8.4,2-15.6,1.4-16.1-1.2
			C30,209,36.4,205.3,44.7,203.3z"/>
		<path class="st9" d="M51.6,191.7c6.7,5.7,10.8,12,9.3,14.1c-1.6,2.1-8.3-0.8-15-6.5s-10.8-12-9.3-14.1
			C38.2,183,44.9,186,51.6,191.7z"/>
		<path class="st9" d="M64.1,189.1c1.9,8.9,1.4,16.6-1.1,17.2c-2.5,0.6-6-6.2-7.8-15.1c-1.9-8.9-1.4-16.6,1.1-17.2
			C58.8,173.4,62.3,180.2,64.1,189.1z"/>
		<path class="st9" d="M75.1,196.3c-5.3,7.1-11.2,11.6-13.2,9.9c-2-1.7,0.7-8.8,6.1-16c5.3-7.1,11.2-11.6,13.2-9.9
			C83.2,182,80.5,189.2,75.1,196.3z"/>
		<path class="st9" d="M77.5,206.2c-8.4,1.6-15.6,0.7-16.1-1.9s6-6.1,14.5-7.7s15.6-0.7,16.1,1.9C92.4,201.2,85.9,204.6,77.5,206.2z
			"/>
		<path class="st9" d="M70.2,217.6c-6.5-6-10.4-12.5-8.7-14.5c1.7-2,8.2,1.2,14.7,7.2s10.4,12.5,8.7,14.5
			C83.3,226.8,76.7,223.6,70.2,217.6z"/>
	</g>
	<g>
		<path class="st10" d="M112.8,270.8c-2.2-8.8-2-16.5,0.4-17.2c2.4-0.7,6.2,5.9,8.4,14.7s2,16.5-0.4,17.2
			C118.8,286.2,115,279.6,112.8,270.8z"/>
		<path class="st10" d="M101.5,264.1c5-7.4,10.8-12.1,12.8-10.5c2,1.6-0.4,8.8-5.4,16.2c-5,7.4-10.8,12.1-12.8,10.5
			C94,278.7,96.4,271.5,101.5,264.1z"/>
		<path class="st10" d="M98.7,254.3c8.4-2,15.6-1.4,16.1,1.2s-5.8,6.3-14.2,8.3s-15.6,1.4-16.1-1.2S90.4,256.3,98.7,254.3z"/>
		<path class="st10" d="M105.6,242.7c6.7,5.7,10.8,12,9.3,14.1c-1.6,2.1-8.3-0.8-15-6.5s-10.8-12-9.3-14.1
			C92.2,234,98.9,237,105.6,242.7z"/>
		<path class="st10" d="M118.1,240.1c1.9,8.9,1.4,16.6-1.1,17.2c-2.5,0.6-6-6.2-7.8-15.1c-1.9-8.9-1.4-16.6,1.1-17.2
			C112.8,224.4,116.3,231.2,118.1,240.1z"/>
		<path class="st10" d="M129.1,247.3c-5.3,7.1-11.2,11.6-13.2,9.9s0.7-8.8,6.1-16c5.3-7.1,11.2-11.6,13.2-9.9
			C137.2,233,134.5,240.2,129.1,247.3z"/>
		<path class="st10" d="M131.5,257.2c-8.4,1.6-15.6,0.7-16.1-1.9s6-6.1,14.5-7.7c8.4-1.6,15.6-0.7,16.1,1.9
			C146.4,252.2,139.9,255.6,131.5,257.2z"/>
		<path class="st10" d="M124.2,268.6c-6.5-6-10.4-12.5-8.7-14.5c1.7-2,8.2,1.2,14.7,7.2c6.5,6,10.4,12.5,8.7,14.5
			C137.3,277.8,130.7,274.6,124.2,268.6z"/>
	</g>
	<g class="st2">
		<path class="st11" d="M179.4,295.2c-4.8-7.7-6.9-15.1-4.8-16.5c2.1-1.4,7.7,3.8,12.4,11.5s6.9,15.1,4.8,16.5
			C189.7,308.1,184.1,302.9,179.4,295.2z"/>
		<path class="st11" d="M166.6,292.1c2.6-8.5,6.7-14.7,9.1-13.8s2.3,8.6-0.3,17.1c-2.6,8.5-6.7,14.7-9.1,13.8
			C163.9,308.3,164,300.7,166.6,292.1z"/>
		<path class="st11" d="M161.1,283.6c7.4-4.4,14.4-6,15.7-3.7c1.3,2.3-3.6,7.8-11,12.2c-7.4,4.4-14.4,6-15.7,3.7
			C148.7,293.5,153.7,288,161.1,283.6z"/>
		<path class="st11" d="M164.1,270.4c8.1,3.4,13.9,8.2,13.1,10.7c-0.9,2.5-8.1,1.7-16.2-1.7s-13.9-8.2-13.1-10.7
			C148.7,266.2,156,267,164.1,270.4z"/>
		<path class="st11" d="M175.3,264.2c4.5,7.9,6.3,15.4,4.1,16.7c-2.2,1.3-7.5-4.1-12-12c-4.5-7.9-6.3-15.4-4.1-16.7
			S170.9,256.3,175.3,264.2z"/>
		<path class="st11" d="M188,267.8c-2.9,8.4-7.3,14.4-9.6,13.4c-2.4-1-1.9-8.6,1-17s7.3-14.4,9.6-13.4
			C191.4,251.8,190.9,259.4,188,267.8z"/>
		<path class="st11" d="M193.2,276.5c-7.6,4-14.7,5.4-15.9,3c-1.2-2.4,3.9-7.6,11.5-11.7c7.6-4,14.7-5.4,15.9-3
			C205.9,267.3,200.7,272.5,193.2,276.5z"/>
		<path class="st11" d="M189.7,289.6c-8-3.8-13.6-8.8-12.7-11.2c1-2.4,8.2-1.3,16.2,2.4s13.6,8.8,12.7,11.2S197.6,293.4,189.7,289.6
			z"/>
	</g>
	<circle class="st12" cx="60" cy="204" r="7"/>
	<circle class="st12" cx="116" cy="257" r="7"/>
	<ellipse transform="matrix(0.9541 -0.2995 0.2995 0.9541 -75.6935 66.1659)" class="st13" cx="178" cy="280" rx="7" ry="7"/>
	<g>
		<path class="st9" d="M76.7,317.6c-3.6-5.9-5.2-11.5-3.6-12.5c1.6-1.1,5.8,2.8,9.4,8.7c3.6,5.9,5.2,11.5,3.6,12.5
			C84.5,327.4,80.3,323.5,76.7,317.6z"/>
		<path class="st9" d="M67,315.3c2-6.5,5-11.2,6.9-10.5c1.8,0.7,1.7,6.5-0.3,12.9c-2,6.5-5,11.2-6.9,10.5
			C64.9,327.6,65.1,321.8,67,315.3z"/>
		<path class="st9" d="M62.8,308.9c5.6-3.3,10.9-4.6,11.9-2.8c1,1.8-2.7,5.9-8.3,9.2c-5.6,3.3-10.9,4.6-11.9,2.8
			S57.3,312.2,62.8,308.9z"/>
		<path class="st9" d="M65.1,298.9c6.1,2.6,10.5,6.2,9.9,8.1c-0.7,1.9-6.2,1.3-12.3-1.3c-6.1-2.6-10.5-6.2-9.9-8.1
			C53.5,295.8,59,296.3,65.1,298.9z"/>
		<path class="st9" d="M73.6,294.2c3.4,6,4.8,11.7,3.1,12.6c-1.6,1-5.7-3.1-9.1-9.1s-4.8-11.7-3.1-12.6
			C66.2,284.2,70.2,288.2,73.6,294.2z"/>
		<path class="st9" d="M83.2,297c-2.2,6.4-5.5,10.9-7.3,10.1c-1.8-0.8-1.5-6.5,0.8-12.9c2.2-6.4,5.5-10.9,7.3-10.1
			S85.4,290.6,83.2,297z"/>
		<path class="st9" d="M87.1,303.6c-5.7,3.1-11.1,4.1-12,2.3c-0.9-1.8,3-5.8,8.7-8.8c5.7-3.1,11.1-4.1,12-2.3
			C96.7,296.6,92.8,300.5,87.1,303.6z"/>
		<path class="st9" d="M84.5,313.4c-6-2.9-10.3-6.7-9.6-8.5s6.2-1,12.2,1.9c6,2.9,10.3,6.7,9.6,8.5
			C95.9,317.1,90.5,316.3,84.5,313.4z"/>
	</g>
	
		<ellipse transform="matrix(0.9541 -0.2995 0.2995 0.9541 -88.2272 36.7125)" class="st12" cx="75.7" cy="306.2" rx="5.3" ry="5.3"/>
	<g>
		<path class="st14" d="M183.7,356.6c-3.6-5.9-5.2-11.5-3.6-12.5c1.6-1.1,5.8,2.8,9.4,8.7c3.6,5.9,5.2,11.5,3.6,12.5
			C191.5,366.4,187.3,362.5,183.7,356.6z"/>
		<path class="st14" d="M174,354.3c2-6.5,5-11.2,6.9-10.5c1.8,0.7,1.7,6.5-0.3,12.9c-2,6.5-5,11.2-6.9,10.5
			C171.9,366.6,172.1,360.8,174,354.3z"/>
		<path class="st14" d="M169.8,347.9c5.6-3.3,10.9-4.6,11.9-2.8c1,1.8-2.7,5.9-8.3,9.2c-5.6,3.3-10.9,4.6-11.9,2.8
			C160.5,355.4,164.3,351.2,169.8,347.9z"/>
		<path class="st14" d="M172.1,337.9c6.1,2.6,10.5,6.2,9.9,8.1c-0.7,1.9-6.2,1.3-12.3-1.3c-6.1-2.6-10.5-6.2-9.9-8.1
			C160.5,334.8,166,335.3,172.1,337.9z"/>
		<path class="st14" d="M180.6,333.2c3.4,6,4.8,11.7,3.1,12.6c-1.6,1-5.7-3.1-9.1-9.1c-3.4-6-4.8-11.7-3.1-12.6
			C173.2,323.2,177.2,327.2,180.6,333.2z"/>
		<path class="st14" d="M190.2,336c-2.2,6.4-5.5,10.9-7.3,10.1c-1.8-0.8-1.5-6.5,0.8-12.9c2.2-6.4,5.5-10.9,7.3-10.1
			S192.4,329.6,190.2,336z"/>
		<path class="st14" d="M194.1,342.6c-5.7,3.1-11.1,4.1-12,2.3c-0.9-1.8,3-5.8,8.7-8.8c5.7-3.1,11.1-4.1,12-2.3
			C203.7,335.6,199.8,339.5,194.1,342.6z"/>
		<path class="st14" d="M191.5,352.4c-6-2.9-10.3-6.7-9.6-8.5c0.7-1.8,6.2-1,12.2,1.9c6,2.9,10.3,6.7,9.6,8.5
			C202.9,356.1,197.5,355.3,191.5,352.4z"/>
	</g>
	
		<ellipse transform="matrix(0.9541 -0.2995 0.2995 0.9541 -94.9958 70.5452)" class="st12" cx="182.7" cy="345.2" rx="5.3" ry="5.3"/>
	<g>
		<path class="st15" d="M237.7,273.6c-3.6-5.9-5.2-11.5-3.6-12.5c1.6-1.1,5.8,2.8,9.4,8.7c3.6,5.9,5.2,11.5,3.6,12.5
			C245.5,283.4,241.3,279.5,237.7,273.6z"/>
		<path class="st15" d="M228,271.3c2-6.5,5-11.2,6.9-10.5c1.8,0.7,1.7,6.5-0.3,12.9c-2,6.5-5,11.2-6.9,10.5
			C225.9,283.6,226.1,277.8,228,271.3z"/>
		<path class="st15" d="M223.8,264.9c5.6-3.3,10.9-4.6,11.9-2.8c1,1.8-2.7,5.9-8.3,9.2c-5.6,3.3-10.9,4.6-11.9,2.8
			C214.5,272.4,218.3,268.2,223.8,264.9z"/>
		<path class="st15" d="M226.1,254.9c6.1,2.6,10.5,6.2,9.9,8.1c-0.7,1.9-6.2,1.3-12.3-1.3c-6.1-2.6-10.5-6.2-9.9-8.1
			C214.5,251.8,220,252.3,226.1,254.9z"/>
		<path class="st15" d="M234.6,250.2c3.4,6,4.8,11.7,3.1,12.6c-1.6,1-5.7-3.1-9.1-9.1c-3.4-6-4.8-11.7-3.1-12.6
			C227.2,240.2,231.2,244.2,234.6,250.2z"/>
		<path class="st15" d="M244.2,253c-2.2,6.4-5.5,10.9-7.3,10.1c-1.8-0.8-1.5-6.5,0.8-12.9s5.5-10.9,7.3-10.1
			C246.8,240.8,246.4,246.6,244.2,253z"/>
		<path class="st15" d="M248.1,259.6c-5.7,3.1-11.1,4.1-12,2.3c-0.9-1.8,3-5.8,8.7-8.8s11.1-4.1,12-2.3
			C257.7,252.6,253.8,256.5,248.1,259.6z"/>
		<path class="st15" d="M245.5,269.4c-6-2.9-10.3-6.7-9.6-8.5c0.7-1.8,6.2-1,12.2,1.9c6,2.9,10.3,6.7,9.6,8.5
			C256.9,273.1,251.5,272.3,245.5,269.4z"/>
	</g>
	
		<ellipse transform="matrix(0.9541 -0.2995 0.2995 0.9541 -67.6619 82.9073)" class="st12" cx="236.7" cy="262.2" rx="5.3" ry="5.3"/>
	<g>
		<g>
			<defs>
				<rect id="SVGID_1_" x="154" y="76" width="262" height="262"/>
			</defs>
			<clipPath id="SVGID_2_">
				<use xlink:href="#SVGID_1_"  style="overflow:visible;"/>
			</clipPath>
			<g class="st16">
				<defs>
					<rect id="SVGID_3_" x="154" y="76" width="262" height="262"/>
				</defs>
				<clipPath id="SVGID_4_">
					<use xlink:href="#SVGID_3_"  style="overflow:visible;"/>
				</clipPath>
				<path class="st17" d="M302.1,219.6c0,0-1.9,2.3,0.4,24.2c-1,3.9-2,1.3,0.3,11.5c0.3,9.2,0,40.6-1.6,49.1c-2,1.6-14.4,5.2-21,5.2
					c-3.9,2.3-9.2,5.2-11.8,8.5c0,0,8.2-2.3,10.5-4.6c2.3-2.3,13.4-2.6,14.4-2.3c1.3-1,3.9-2.9,5.9-2.3l2,0.7
					c-4.6,2-10.2,3.3-8.8,5.2s7.2-2.9,11.1-4.6c6.2,0.7,15.4,0,15.4,0s-1-3.9-5.6-1.3c-2-0.7-7.9,2.3-7.5-4.6c0.3-6.9,2-50.8,2-50.8
					s-0.3-4.3,1.3-6.2c-0.3-3.6-2.3-0.3-3.6-24.2C305.4,220.6,302.1,219.6,302.1,219.6"/>
				<path class="st18" d="M307.3,226.5c0,0-1.9,2.3,0.4,24.2c-1,3.9-2,1.3,0.3,11.5c0.3,9.2,0,40.6-1.6,49.1c-2,1.6-14.4,5.2-21,5.2
					c-3.9,2.3-9.2,5.2-11.8,8.5c0,0,8.2-2.3,10.5-4.6c2.3-2.3,13.4-2.6,14.4-2.3c1.3-1,3.9-2.9,5.9-2.3l2,0.7
					c-4.6,2-10.2,3.3-8.8,5.2s7.2-2.9,11.1-4.6c6.2,0.7,15.4,0,15.4,0s-1-3.9-5.6-1.3c-2-0.7-7.9,2.3-7.5-4.6c0.3-6.9,2-50.8,2-50.8
					s-0.3-4.3,1.3-6.2c-0.3-3.6-2.3-0.3-3.6-24.2C310.7,227.5,307.3,226.5,307.3,226.5"/>
			</g>
			<g class="st16">
				<defs>
					<rect id="SVGID_5_" x="154" y="76" width="262" height="262"/>
				</defs>
				<clipPath id="SVGID_6_">
					<use xlink:href="#SVGID_5_"  style="overflow:visible;"/>
				</clipPath>
				<path class="st19" d="M263,117.2c0,0-25.9,2.8-14.1,37.2c11.8,34.4,24,16.5,27.8,52.3c5.2,11.8,11.8,21.2,13.2,20.3
					c1.4-0.9,1.4,22.1,11.8,11.8c1.9-6.6,3.8-12.3,3.8-12.3s12.7,39.1,27.3,47.1c14.6,8,6.6-40.1,6.6-40.1s8-51.8-25.9-99.9
					c-6.1-7.5-15.6-17.9-37.2,8.5c-2.4,3.3-10.8,4.2-11.8-2.8c5.2,1.9,23.6-0.9,25.9-22.6c0.5-19.3-30.2-29.7-40.1-12.3
					c-11.3,9.9-17,13.2-17,13.2s11.3-1.4,16.5,0.5C253.5,119.6,253.1,119.6,263,117.2"/>
			</g>
			<g class="st16">
				<defs>
					<rect id="SVGID_7_" x="154" y="76" width="262" height="262"/>
				</defs>
				<clipPath id="SVGID_8_">
					<use xlink:href="#SVGID_7_"  style="overflow:visible;"/>
				</clipPath>
				<path class="st20" d="M283.7,163.8c0,0-5.1-24.6,3.9-28.8c9-4.3,18.3,2,17.4,8.4c-0.3,2.3,2.3,1.5,2.6,3.3c0,0-4.9,6.6-12,0.7
					C293.2,151.4,289.2,158.9,283.7,163.8"/>
				<path class="st20" d="M282.4,179.2c0,0-1.6,11.6,12.6,32.1c0.3,6.7,6.4,15.4,6.4,15.4l0.3-5.2l3.7,5.1c0,0-2.5,10.3-3.8,12.3
					c-1.2,2-33-31.1-26.5-46.5C281.7,176.9,282.4,179.2,282.4,179.2"/>
			</g>
			<g class="st16">
				<defs>
					<rect id="SVGID_9_" x="154" y="76" width="262" height="262"/>
				</defs>
				<clipPath id="SVGID_10_">
					<use xlink:href="#SVGID_9_"  style="overflow:visible;"/>
				</clipPath>
				<path class="st21" d="M253,155.1c0,0,0,15.4,2.6,21.6"/>
				<path class="st21" d="M255.3,155.1c0,0,1,17.4,5.2,30.1"/>
				<path class="st21" d="M258.9,159.4c0,0,6.6,15.7,7.9,19.7"/>
				<path class="st21" d="M266.1,161c0,0,8.8,10.2,10.2,16.7"/>
				<path class="st21" d="M262.5,160.4c0,0,7.5,13.1,8.2,19"/>
				<path class="st21" d="M269.1,158.1c0,0,8.2,5.2,10.2,9.8"/>
				<path class="st21" d="M261.6,175.8c0,0,6.6,19.3,4.9,29.5"/>
				<path class="st21" d="M259.6,168.9c0,0,9.2,15.1,10.2,26.2"/>
				<path class="st21" d="M269.4,182.6c0,0,5.6,17.4,4.6,22.9"/>
				<path class="st21" d="M273.7,178.1c0,0,2,5.2,1,18.3"/>
				<path class="st21" d="M276.6,182.3c0,0,4.6,18.3,2,22.9"/>
				<path class="st21" d="M275.6,199c0,0,3.3,13.8,0.7,19.7"/>
				<path class="st21" d="M277.6,171.5c0,0,6.5,13.8,5.2,20.6"/>
				<path class="st21" d="M281.9,171.2c0,0,3.9,7.9,4.3,14.1"/>
				<path class="st21" d="M275.3,156.8c0,0,10.8,10.2,11.8,13.1"/>
				<path class="st21" d="M279.9,155.8c0,0,12.1,10.5,11.8,13.1"/>
				<path class="st21" d="M284.5,170.5c0,0,2.3,1,3.9,4.6"/>
				<path class="st21" d="M313.3,154.1c0,0-2.6,3.9-2.9,6.2"/>
				<path class="st21" d="M314.9,158.7c0,0-2.3,9.2-5.2,11.5"/>
				<path class="st21" d="M317.9,152.8c0,0,1.3,13.1-1.3,16.7"/>
				<path class="st21" d="M322.8,169.5c0,0,0,19-1.3,20.3"/>
				<path class="st21" d="M319.9,165.9c0,0,0.3,23.3-2.9,27.2"/>
				<path class="st21" d="M314.6,165.6c0,0-2.6,11.5-4.6,13.8"/>
				<path class="st21" d="M315.3,172.2c0,0-1,10.5-4.3,14.4"/>
				<path class="st21" d="M325.1,173.5c0,0,1,23.3-0.7,26.9"/>
				<path class="st21" d="M328.7,179c0,0,2.3,29.1-1,36.7"/>
				<path class="st21" d="M313,200.3c0,0,3.3-13.1,2.9-16.4"/>
				<path class="st21" d="M315.3,180.7c0,0,2.6-5.2,2.3-8.8"/>
				<path class="st21" d="M318.9,200.3c0,0,2-8.8,1-12.8"/>
				<path class="st21" d="M332.3,215.4c0,0,2.6-19.6,1.6-23.3"/>
				<path class="st21" d="M331.3,197c0,0,1.6-10.8,0.7-12.8"/>
				<path class="st21" d="M337.2,226.5c0,0,2.6-23.3,0-25.9"/>
				<path class="st21" d="M254.5,123.1c0,0-4.4-0.3-5.1,2.2"/>
				<path class="st21" d="M250.4,128.9c0,0-4.3,3.9-4.3,5.9"/>
				<path class="st21" d="M250.4,126.3c0,0-5.6,3.3-6.2,4.9"/>
				<path class="st21" d="M254.7,125.3c0,0-5.2,5.9-4.9,7.9"/>
				<path class="st21" d="M248.8,135.5c0,0-4.3,4.3-4.3,6.2"/>
				<path class="st21" d="M245.2,147.9c1-3.6,2.6-5.2,2.6-5.2"/>
				<path class="st21" d="M251.4,137.4c0,0-6.2,4.6-7.9,7.5"/>
				<path class="st21" d="M251.4,142c0,0-3.9,5.6-3.6,9.5"/>
				<path class="st21" d="M250.4,151.5c0,0-3.9,2.3-3.6,5.6"/>
				<path class="st21" d="M253.4,151.5c0,0-4.6,6.9-4.6,9.5"/>
				<path class="st22" d="M297.3,178.4c-0.7,1.8-1.2,3.8-1.5,5.7c-0.3,1.9-0.5,3.9-0.3,5.8c0.2,1.9,0.7,3.9,1.8,5.4
					c1.1,1.6,2.8,2.6,4.7,3.1l0.2,0.1l0,0.2c0,1.4,0.1,2.8,0.3,4.2c0.2,1.4,0.6,2.8,1.3,4c0.6,1.2,1.5,2.4,2.6,3.2
					c0.6,0.4,1.2,0.8,1.8,1c0.6,0.2,1.3,0.4,2,0.3l0.3,0l0,0.3c0.1,1.2,0.5,2.5,1,3.6c0.5,1.2,1.2,2.2,2,3.2c0.8,1,1.7,1.8,2.8,2.5
					c1.1,0.7,2.3,1.1,3.5,1.2l0.2,0l0,0.2c0.2,1,0.4,2.1,0.5,3.1c0.2,1,0.4,2,1,2.9c0.5,0.8,1.4,1.5,2.3,1.9
					c0.9,0.5,1.9,0.8,2.9,1.1l0.1,0l0,0.1c0.4,1,1,1.9,1.7,2.7c0.7,0.8,1.6,1.5,2.6,1.9c1,0.4,2.1,0.5,3.2,0.3
					c1.1-0.2,2.1-0.6,3.1-1.2c-0.9,0.6-1.9,1.1-3,1.3c-1.1,0.3-2.2,0.2-3.3-0.2c-1.1-0.4-2-1.1-2.8-1.9c-0.8-0.8-1.4-1.8-1.9-2.8
					l0.1,0.1c-1-0.3-2-0.6-3-1.1c-0.9-0.5-1.9-1.1-2.5-2.1c-0.6-0.9-0.9-2-1.1-3c-0.2-1-0.3-2.1-0.6-3.1l0.2,0.2
					c-1.3-0.2-2.6-0.6-3.7-1.3c-1.1-0.7-2.1-1.6-3-2.6c-0.8-1-1.5-2.1-2.1-3.4c-0.5-1.2-0.9-2.5-1-3.8l0.4,0.3
					c-0.8,0.1-1.6-0.1-2.3-0.3c-0.7-0.3-1.4-0.6-1.9-1.1c-1.2-0.9-2.1-2.1-2.8-3.4c-0.7-1.3-1.1-2.7-1.3-4.2
					c-0.2-1.4-0.3-2.9-0.2-4.3l0.2,0.3c-1.9-0.6-3.7-1.7-4.9-3.4c-1.2-1.7-1.7-3.7-1.8-5.6c-0.1-2,0.1-4,0.5-5.9
					C296,182.1,296.5,180.2,297.3,178.4"/>
				<path class="st23" d="M290.1,180.7c-0.6,1.9-1.1,3.9-1.4,6c-0.3,2-0.4,4.1-0.2,6.1c0.2,2,0.7,4,1.8,5.7c0.6,0.8,1.3,1.5,2.1,2.1
					c0.8,0.6,1.7,1,2.7,1.2l0.2,0.1l0,0.2c0,1.4,0.1,2.8,0.3,4.2c0.2,1.4,0.6,2.8,1.3,4c0.6,1.2,1.5,2.4,2.6,3.2
					c0.6,0.4,1.2,0.8,1.8,1c0.6,0.2,1.3,0.4,2,0.3l0.3,0l0,0.3c0.1,1.2,0.5,2.5,1,3.6c0.5,1.2,1.2,2.2,2,3.2c0.8,1,1.7,1.8,2.8,2.5
					c1.1,0.7,2.3,1.1,3.5,1.2l0.2,0l0,0.2c0.2,1,0.4,2.1,0.5,3.1c0.2,1,0.4,2,1,2.8c0.5,0.8,1.4,1.5,2.3,1.9
					c0.9,0.5,1.9,0.8,2.9,1.1l0.1,0l0,0.1c0.3,1.5,0.6,2.9,1,4.3c0.4,1.4,1,2.8,1.7,4.1c0.7,1.3,1.6,2.5,3,3.2
					c0.7,0.3,1.4,0.4,2.1,0.3c0.7-0.1,1.4-0.4,2.1-0.8c-0.6,0.4-1.3,0.7-2.1,0.8c-0.7,0.1-1.5,0-2.2-0.3c-1.4-0.6-2.4-1.9-3.1-3.2
					c-0.8-1.3-1.3-2.7-1.8-4.1c-0.5-1.4-0.9-2.9-1.1-4.4l0.2,0.2c-1-0.3-2-0.6-3-1.1c-1-0.5-1.9-1.1-2.5-2.1c-0.6-0.9-0.9-2-1.1-3
					c-0.2-1-0.3-2.1-0.6-3.1l0.3,0.2c-1.3-0.2-2.6-0.6-3.7-1.3c-1.1-0.7-2.1-1.6-3-2.6c-0.8-1-1.5-2.1-2.1-3.4
					c-0.5-1.2-0.9-2.5-1-3.8l0.4,0.3c-0.8,0.1-1.6-0.1-2.3-0.3c-0.7-0.3-1.4-0.6-1.9-1.1c-1.2-0.9-2.1-2.1-2.8-3.4
					c-1.3-2.7-1.6-5.7-1.5-8.5l0.2,0.2c-1-0.3-2-0.7-2.8-1.3c-0.9-0.6-1.6-1.4-2.2-2.2c-1.2-1.8-1.7-3.8-1.8-5.9
					c-0.1-2.1,0-4.1,0.4-6.1C288.8,184.6,289.4,182.6,290.1,180.7"/>
				<path class="st21" d="M315.9,245.2c-0.3-1.8-3-1.6-3,0.2c0.1,2.8,0.8,6.7,4,9.5c5.5,4.8-0.7,6.1,6.1,10.9
					c1.8,1.3,3.3,2.5,4.3,3.6c1,1,2.8,0.2,2.5-1.3c-1-6.2-2.6-14.6-4.1-15.7c-2.4-1.7-6.5-0.7-6.5-4.1s-2.7,2-3.4-3.1
					C316,245.3,316,245.3,315.9,245.2"/>
			</g>
			<g class="st16">
				<defs>
					<rect id="SVGID_11_" x="154" y="76" width="262" height="262"/>
				</defs>
				<clipPath id="SVGID_12_">
					<use xlink:href="#SVGID_11_"  style="overflow:visible;"/>
				</clipPath>
				<path class="st24" d="M285.6,138.4c0,0-4.7,3.1,3.6,11.6C287.9,146.9,286.1,143.2,285.6,138.4"/>
			</g>
			<g class="st16">
				<defs>
					<rect id="SVGID_13_" x="154" y="76" width="262" height="262"/>
				</defs>
				<clipPath id="SVGID_14_">
					<use xlink:href="#SVGID_13_"  style="overflow:visible;"/>
				</clipPath>
				<path class="st25" d="M234.2,117.6c0.3,0.5,14.1,1.1,14.1,1.1s4.9,2.5,12.9-1.1c2.5-0.5,10.2,1.8,13.1,6.2
					c1.1-0.8-2.5-5.1-2.9-6.7c1.5-2,7.4-8-9-7.7S234.2,117.6,234.2,117.6"/>
			</g>
			<g class="st16">
				<defs>
					<rect id="SVGID_15_" x="154" y="76" width="262" height="262"/>
				</defs>
				<clipPath id="SVGID_16_">
					<use xlink:href="#SVGID_15_"  style="overflow:visible;"/>
				</clipPath>
				<path class="st26" d="M251,103.2c0,0,5.6-0.8,8.4-1.7c2.8-0.9,5.9,0.2,8.4,0.3c2.5,0.2,3.4-0.6,6.4-1.2c1.2-0.2,2.2,0.1,3.1,0.6
					c0.3,0.2,0.6,0.4,0.8,0.6c0.7,0.6,1.9,0.6,2.6,0c0.9-0.8,0.8-2.1-0.2-2.8C275.6,96,262.7,90.1,251,103.2"/>
				<path class="st26" d="M272.5,96c8.7,1.7,28.8,15.7,28.8,15.7"/>
				<path class="st26" d="M297.8,113c0,0-10-9.2-18.7-11.8"/>
				<path class="st26" d="M294.3,110.5c0,0-10-9.2-18.7-11.8"/>
				<path class="st26" d="M293.9,114.3c0,0-8.7-10.3-17.1-14"/>
			</g>
			<g class="st16">
				<defs>
					<rect id="SVGID_17_" x="154" y="76" width="262" height="262"/>
				</defs>
				<clipPath id="SVGID_18_">
					<use xlink:href="#SVGID_17_"  style="overflow:visible;"/>
				</clipPath>
				<path class="st27" d="M265,105.3c0,1-1,1.8-2.3,1.8c-1.3,0-2.3-0.8-2.3-1.8c0-1,1-1.8,2.3-1.8C264,103.5,265,104.4,265,105.3"/>
				<ellipse class="st28" cx="262.7" cy="105.3" rx="2.3" ry="1.8"/>
				<path class="st29" d="M263.4,105.3c0,0.4-0.4,0.7-0.8,0.7c-0.5,0-0.8-0.3-0.8-0.7c0-0.4,0.4-0.7,0.8-0.7
					C263,104.7,263.4,105,263.4,105.3"/>
				<path class="st30" d="M253.7,106.3c0,0,0.5-2.8-9.2,0.7c-9.7,3.4-25.1,7.7-34.4,12.1c-0.2,3.3,42.1-4.1,42.4-4.7
					c0.3-0.7,0.8-3.4,3.6-4.3c2.8-0.8,6.1-0.5,8.4-1.1C262.5,108.3,253.7,106.3,253.7,106.3"/>
				<path class="st31" d="M253.8,106.3c0,0,3.6-6.2-43.7,12.8l44.5-11l4.8-0.3L253.8,106.3z"/>
			</g>
		</g>
	</g>
</g>
<g id="Layer_1">
</g>
</svg>
