<?xml version="1.0" encoding="utf-8"?>
<!-- Generator: Adobe Illustrator 20.1.0, SVG Export Plug-In . SVG Version: 6.00 Build 0)  -->
<svg version="1.1" id="Layer_1" xmlns="http://www.w3.org/2000/svg" xmlns:xlink="http://www.w3.org/1999/xlink" x="0px" y="0px"
	 viewBox="0 0 400 400" style="enable-background:new 0 0 400 400;" xml:space="preserve">
<style type="text/css">
	.st0{fill:#ECD699;}
	.st1{fill:#3D9278;}
	.st2{fill:#3B846E;}
	.st3{fill:none;stroke:#FFFFFF;stroke-width:2;stroke-linecap:round;stroke-miterlimit:10;}
	.st4{fill:#808080;}
	.st5{fill:#B3B3B3;}
	.st6{opacity:0.5;fill:#808080;enable-background:new    ;}
	.st7{fill:#999999;}
	.st8{fill:#965651;}
	.st9{fill:#666666;}
	.st10{opacity:0.54;fill:#9CDFCB;enable-background:new    ;}
</style>
<circle class="st0" cx="200" cy="200" r="196"/>
<path class="st1" d="M349,299.8l-109.4-27.6c4.2,10.1,9.5,19.3,15.8,27.1l-107.3-27.1c4.3,10.3,9.8,19.7,16.2,27.6h-1.9L53.2,272.2
	c4.3,10.3,9.8,19.7,16.2,27.6h-39C72,358.8,132.7,396,200.2,396s128.2-37.2,169.8-96.2H349z"/>
<path class="st2" d="M328.5,330.1l-94.4-18.9c3.6,6.9,8.2,13.2,13.7,18.6l-92.7-18.6c3.7,7.1,8.4,13.5,14,18.9h-1.6l-94.4-18.9
	c3.7,7.1,8.4,13.5,14,18.9H53.4C89.3,370.5,141.7,396,200,396s110.7-25.5,146.6-65.9H328.5z"/>
<g id="sailboat">
	<line class="st3" x1="154.9" y1="66.7" x2="167.1" y2="179.5"/>
	<polygon class="st4" points="87.5,249.5 112.9,240.9 263.9,235.4 302,247.1 	"/>
	<path class="st5" d="M63.1,248.6c0,0,126.1,0,184.9,0s106.9-10.4,106.9-10.4s-42.3,63.3-78.2,69.3s-167.9-0.2-167.9-0.2
		s-25.2-6.6-35.7-25.7C62.6,262.4,63.1,248.6,63.1,248.6z"/>
	<path class="st6" d="M345.6,250.9c5.8-7.5,9.2-12.7,9.2-12.7s-13.3,2.8-34.4,5.6c-1.2,1.5-2.5,3-3.7,4.5c-13.4,1.8-28.1,3.3-40,3.3
		c-69.4,0-205.1,2.3-213.2,2.4c0.3,1.9,0.7,4.4,1.4,7.2c16.7-0.3,146-2.4,211.8-2.4c9.7,0,21.4-1,32.9-2.4
		c-14.9,16.3-34.1,33-51.6,35.9c-35.9,5.9-168-0.3-168-0.3s-6.3-1.6-13.9-5.7c11.6,15.5,32.6,21,32.6,21s132.1,6.2,167.9,0.2
		C302.3,303.2,331.2,269.7,345.6,250.9L345.6,250.9L345.6,250.9z"/>
	<path class="st7" d="M356,242.3c0,0-49.6,9.6-79.2,9.6c-70.4,0-214.1,2.4-214.1,2.4v-7.2c0,0,142.5-2.4,214.1-2.4
		c30.4,0,79.2-9.6,79.2-9.6V242.3z"/>
	<path class="st8" d="M62.7,252.2v2.1c0,0,143.7-2.4,214.1-2.4c29.6,0,79.2-9.6,79.2-9.6v-2.1c0,0-48.8,9.6-79.2,9.6
		C205.2,249.8,62.7,252.2,62.7,252.2z"/>
</g>
<path class="st4" d="M99.6,194.9c0,0,107.8-37.9,160.2-7.3c0,0-120.9,2.9-158.8,16L99.6,194.9z"/>
<path class="st5" d="M254,191.9c0,0-23.3-11.7-65.6-1.5l-77.2,13.1l-3.4,42.3l155.2-5.4l6.7-2.2L254,191.9z"/>
<path class="st4" d="M188.4,190.5l28.8,51.3c0,0,47,5,50.6-0.6c3.6-5.6-13.9-49.3-13.9-49.3S238,180.3,188.4,190.5z"/>
<polygon class="st4" points="99.6,194.9 86.5,210.9 189.5,193.8 185.5,184.7 "/>
<path class="st9" d="M259.8,187.2c0,0-41.5-23.2-76.9,0l4,7.7c0,0,23.3-15.4,68.5,0L259.8,187.2z"/>
<path class="st10" d="M197.2,196.3c0,0,30.6-13.1,56.8,2.9l10.2,36.4c0,0-25.4-4.7-44,2L197.2,196.3z"/>
<polygon class="st10" points="114.1,209.4 112.7,241.5 140.4,240.6 137.5,206.5 "/>
<polygon class="st10" points="141.8,206.5 184.1,199.2 206.1,238 144.9,239.5 "/>
<g id="Layer_1_1_">
</g>
</svg>
