<?xml version="1.0" encoding="utf-8"?>
<!-- Generator: Adobe Illustrator 21.0.2, SVG Export Plug-In . SVG Version: 6.00 Build 0)  -->
<svg version="1.1" xmlns="http://www.w3.org/2000/svg" xmlns:xlink="http://www.w3.org/1999/xlink" x="0px" y="0px"
	 viewBox="0 0 400 400" style="enable-background:new 0 0 400 400;" xml:space="preserve">
<style type="text/css">
	.st0{fill:#EDD790;}
	.st1{fill:#3B846E;}
	.st2{fill:#DCC882;}
	.st3{fill:#9CDFCB;stroke:#FFFFFF;stroke-width:2;stroke-linecap:round;stroke-miterlimit:10;}
	.st4{fill:#808080;}
	.st5{fill:#B3B3B3;}
	.st6{opacity:0.5;fill:#808080;}
	.st7{fill:#999999;}
	.st8{fill:#965651;}
	.st9{fill:#666666;}
	.st10{opacity:0.54;fill:#9CDFCB;}
	.st11{fill:#3D9278;}
	.st12{fill:#FBDD63;}
	.st13{fill:#333333;}
</style>
<g id="lighthouse">
	<circle class="st0" cx="200" cy="200" r="196"/>
	<path class="st1" d="M51.4,301.8l109.4-27.6c-4.2,10.1-9.5,19.3-15.8,27.1l107.3-27.1c-4.3,10.3-9.8,19.7-16.2,27.6h1.9l109.3-27.6
		c-4.3,10.3-9.8,19.7-16.2,27.6l37,0C327.4,362,267.8,398,200.2,398c-67.5,0-127.8-36-167.8-96.2L51.4,301.8z"/>
	<path class="st2" d="M163.3,168.5c0,0-3.6-8.4-24.1-2.5s-20.7,14.1-38.5,14.9c-17.8,0.8-16.9-9.4-28.5-4.6s-18.7,11.6-31.5,11.2
		s-20.5,7.7-20.5,7.7s36.2,1,42.6-0.1c6.4-1.1,15.9-0.8,41.3,0.5s34.8,7.3,46.5-3.2c11.7-10.5,42.5,3.7,41.5-5.9
		C191.1,176.9,174.9,165.7,163.3,168.5z"/>
	<g id="boat">
		<g id="sailboat">
			<line class="st3" x1="104.6" y1="115.3" x2="125.2" y2="211.2"/>
			<polygon class="st4" points="63.2,278.5 84.3,268.8 213.5,250.4 247.3,257.1 			"/>
			<path class="st5" d="M42.2,279.9c0,0,108.3-11.4,158.8-16.7c50.5-5.3,90.9-18.5,90.9-18.5s-30.7,58.1-60.9,66.5
				c-30.3,8.4-144.3,15-144.3,15s-22.2-3.4-33-18.9C43,291.8,42.2,279.9,42.2,279.9z"/>
			<path class="st6" d="M285,256.4c4.3-7,6.8-11.7,6.8-11.7s-11.1,3.6-29.1,7.9c-0.9,1.4-1.8,2.8-2.8,4.2
				c-11.4,2.7-23.8,5.3-34.1,6.4c-59.6,6.3-176,20.4-182.9,21.3c0.4,1.6,1,3.7,1.9,6c14.3-1.7,125.2-15.2,181.7-21.1
				c8.3-0.9,18.3-2.8,28-5c-11.4,15.3-26.3,31.4-41.1,35.5c-30.3,8.4-144.3,15-144.3,15s-5.5-0.8-12.4-3.6
				c11.4,12.2,29.9,15.1,29.9,15.1s114-6.6,144.3-15C252.5,305.2,274.3,273.8,285,256.4L285,256.4C285,256.4,285,256.4,285,256.4z"
				/>
			<path class="st7" d="M293.2,248.1c0,0-41.7,12.7-67.2,15.4c-60.5,6.4-183.7,21.4-183.7,21.4l-0.6-6.2c0,0,122.2-14.9,183.7-21.4
				c26.1-2.7,67.2-15.4,67.2-15.4L293.2,248.1z"/>
			<path class="st8" d="M42.1,283l0.2,1.8c0,0,123.2-15,183.7-21.4c25.4-2.7,67.2-15.4,67.2-15.4l-0.2-1.8c0,0-41.1,12.7-67.2,15.4
				C164.3,268.1,42.1,283,42.1,283z"/>
		</g>
		<path class="st4" d="M68.6,230.4c0,0,89.2-42.3,137-20.7c0,0-103.6,13.4-134.9,28.1L68.6,230.4z"/>
		<path class="st5" d="M201,214c0,0-21.1-7.9-56.4,4.7l-65.1,18.2l0.9,36.6l132.9-18.6l5.6-2.5L201,214z"/>
		<path class="st4" d="M144.6,218.7l29.4,41.5c0,0,40.8,0,43.4-5.1C220,250,201,214,201,214S186.2,205.4,144.6,218.7z"/>
		<polygon class="st4" points="68.6,230.4 58.8,245.4 145.8,221.4 141.5,213.9 		"/>
		<path class="st9" d="M205.6,209.4c0,0-37.8-16.2-66,6.9l4.1,6.3c0,0,18.6-15.3,58.8-6.2L205.6,209.4z"/>
		<path class="st10" d="M152.6,222.9c0,0,25.1-14,49.1-2.6l12,30.4c0,0-22.2-1.7-37.6,5.7L152.6,222.9z"/>
		<polygon class="st10" points="82.5,241.6 84.1,269.3 107.8,266 102.2,237 		"/>
		<polygon class="st10" points="106,236.6 141.6,226.6 164.1,257.9 111.6,264.7 		"/>
	</g>
	<path class="st11" d="M328.5,330.1l-94.4-18.9c3.6,6.9,8.2,13.2,13.7,18.6l-92.7-18.6c3.7,7.1,8.4,13.5,14,18.9h-1.6l-94.4-18.9
		c3.7,7.1,8.4,13.5,14,18.9l-33.7,0C89.3,370.5,141.7,396,200,396c58.3,0,110.7-25.5,146.6-65.9L328.5,330.1z"/>
	<circle class="st12" cx="286.5" cy="101.5" r="48.5"/>
	<path class="st2" d="M205.7,123.8c0,0,4.9-10.6,31.1-2.5s26.2,18.8,49.1,20.5s22.1-11.5,36.8-4.9c14.7,6.5,23.7,15.5,40.1,15.5
		S389,163,389,163s-46.6,0-54.8-1.6s-20.5-1.6-53.2-0.8c-32.7,0.8-45,8.2-59.7-5.7c-14.7-13.9-54.8,3.3-53.2-9
		C169.7,133.6,191,119.7,205.7,123.8z"/>
	<path class="st2" d="M234,63c0,0-4.5-8-27.2-1.2s-22.5,15-42.4,16.8c-20,1.8-19.5-8.3-32.2-2.9c-12.7,5.4-20.4,12.5-34.7,12.8
		s-22.6,8.8-22.6,8.8s40.7-1.1,47.8-2.5c7.1-1.4,17.8-1.7,46.4-1.9c28.6-0.1,39.4,5.2,52-5.8s47.9,1.2,46.2-8.1
		C265.6,69.7,246.8,59.5,234,63z"/>
	<g>
		<path class="st13" d="M33.3,180.3c2.1-2.7,4.4-5.2,7.1-7.5c1.3-1.1,2.8-2.1,4.3-3c1.6-0.8,3.3-1.5,5.2-1.8c1.9-0.3,4,0,5.7,0.9
			c1.8,0.9,3.2,2.3,4.3,3.9c2.2,3.1,3.3,6.5,4.2,9.9l-3.7-0.4c1.5-3.4,3.2-6.6,5.2-9.8c2-3.1,4.5-6.1,8-8.3c1.7-1.1,3.7-2,5.9-2.2
			c2.2-0.2,4.5,0.2,6.3,1.2c1.9,1,3.3,2.5,4.4,4c1.1,1.5,2,3.2,2.6,4.9l-0.4,0.3c-1.3-1.3-2.5-2.6-3.9-3.6c-1.3-1-2.8-1.9-4.2-2.3
			c-2.8-0.9-5.5,0-8,1.9c-2.5,1.9-4.7,4.4-6.8,7c-2.1,2.7-4,5.6-5.7,8.7l-2.6,4.9l-1-5.3c-0.6-3.2-1.5-6.4-3.1-8.9
			c-0.8-1.3-1.7-2.4-3-3.2c-1.2-0.8-2.6-1.1-4.1-1c-3,0.2-6.1,1.7-8.8,3.6c-2.7,1.9-5.3,4.1-7.6,6.6L33.3,180.3z"/>
	</g>
	<g>
		<path class="st13" d="M188.3,155.3c2.1-2.7,4.4-5.2,7.1-7.5c1.3-1.1,2.8-2.1,4.3-3c1.6-0.8,3.3-1.5,5.2-1.8c1.9-0.3,4,0,5.7,0.9
			c1.8,0.9,3.2,2.3,4.3,3.9c2.2,3.1,3.3,6.5,4.2,9.9l-3.7-0.4c1.5-3.4,3.2-6.6,5.2-9.8c2-3.1,4.5-6.1,8-8.3c1.7-1.1,3.7-2,5.9-2.2
			c2.2-0.2,4.5,0.2,6.3,1.2c1.9,1,3.3,2.5,4.4,4c1.1,1.5,2,3.2,2.6,4.9l-0.4,0.3c-1.3-1.3-2.5-2.6-3.9-3.6c-1.3-1-2.8-1.9-4.2-2.3
			c-2.8-0.9-5.5,0-8,1.9c-2.5,1.9-4.7,4.4-6.8,7c-2.1,2.7-4,5.6-5.7,8.7l-2.6,4.9l-1-5.3c-0.6-3.2-1.5-6.4-3.1-8.9
			c-0.8-1.3-1.7-2.4-3-3.2c-1.2-0.8-2.6-1.1-4.1-1c-3,0.2-6.1,1.7-8.8,3.6c-2.7,1.9-5.3,4.1-7.6,6.6L188.3,155.3z"/>
	</g>
	<g>
		<path class="st13" d="M104.3,92.3c2.1-2.7,4.4-5.2,7.1-7.5c1.3-1.1,2.8-2.1,4.3-3c1.6-0.8,3.3-1.5,5.2-1.8c1.9-0.3,4,0,5.7,0.9
			c1.8,0.9,3.2,2.3,4.3,3.9c2.2,3.1,3.3,6.5,4.2,9.9l-3.7-0.4c1.5-3.4,3.2-6.6,5.2-9.8c2-3.1,4.5-6.1,8-8.3c1.7-1.1,3.7-2,5.9-2.2
			c2.2-0.2,4.5,0.2,6.3,1.2c1.9,1,3.3,2.5,4.4,4c1.1,1.5,2,3.2,2.6,4.9l-0.4,0.3c-1.3-1.3-2.5-2.6-3.9-3.6c-1.3-1-2.8-1.9-4.2-2.3
			c-2.8-0.9-5.5,0-8,1.9c-2.5,1.9-4.7,4.4-6.8,7c-2.1,2.7-4,5.6-5.7,8.7l-2.6,4.9l-1-5.3c-0.6-3.2-1.5-6.4-3.1-8.9
			c-0.8-1.3-1.7-2.4-3-3.2c-1.2-0.8-2.6-1.1-4.1-1c-3,0.2-6.1,1.7-8.8,3.6c-2.7,1.9-5.3,4.1-7.6,6.6L104.3,92.3z"/>
	</g>
</g>
<g id="Layer_1">
</g>
</svg>
