<svg id="Layer_1" data-name="Layer 1" xmlns="http://www.w3.org/2000/svg" viewBox="0 0 34.02 34.02">
  <defs>
    <style>
      .cls-1 {
        fill: #fff;
      }

      .cls-2 {
        fill: #696969;
      }
    </style>
  </defs>
  <title>instagram</title>
  <path class="cls-1" d="M58.09,45.65a7,7,0,0,1-2,.55,3.5,3.5,0,0,0,1.54-1.93,7,7,0,0,1-2.22.85,3.5,3.5,0,0,0-6,3.19,9.92,9.92,0,0,1-7.2-3.65,3.5,3.5,0,0,0,1.08,4.67,3.49,3.49,0,0,1-1.58-.44v0a3.5,3.5,0,0,0,2.8,3.43,3.41,3.41,0,0,1-.92.12,3.47,3.47,0,0,1-.66-.06,3.5,3.5,0,0,0,3.26,2.43,7,7,0,0,1-4.34,1.5,7.13,7.13,0,0,1-.83,0,9.94,9.94,0,0,0,15.3-8.38c0-.15,0-.3,0-.45a7.08,7.08,0,0,0,1.74-1.81" transform="translate(-32.77 -33.13)"/>
  <rect class="cls-2" width="34.02" height="34.02"/>
  <path class="cls-1" d="M55,41.63H44.55a3.29,3.29,0,0,0-3.29,3.29V55.36a3.29,3.29,0,0,0,3.29,3.29H55a3.29,3.29,0,0,0,3.29-3.29V44.92A3.29,3.29,0,0,0,55,41.63Zm.94,2h.38v2.88H53.43V43.6Zm-8.59,4.8a3,3,0,1,1-.57,1.75A3,3,0,0,1,47.34,48.39Zm9.27,7A1.63,1.63,0,0,1,55,57H44.55a1.63,1.63,0,0,1-1.63-1.63v-7h2.54a4.65,4.65,0,1,0,8.62,0h2.54Z" transform="translate(-32.77 -33.13)"/>
</svg>
