<?xml version="1.0" encoding="utf-8"?>
<!-- Generator: Adobe Illustrator 21.0.2, SVG Export Plug-In . SVG Version: 6.00 Build 0)  -->
<svg version="1.1" xmlns="http://www.w3.org/2000/svg" xmlns:xlink="http://www.w3.org/1999/xlink" x="0px" y="0px"
	 viewBox="0 0 400 400" style="enable-background:new 0 0 400 400;" xml:space="preserve">
<style type="text/css">
	.st0{fill:#0099B9;}
	.st1{fill:#9EEA58;}
	.st2{fill:#CCCCCC;}
	.st3{fill:#BE2135;}
	.st4{fill:#F2F2F2;}
	.st5{fill:none;stroke:#C69C6D;stroke-miterlimit:10;}
	.st6{fill:none;stroke:#AA1521;stroke-miterlimit:10;}
	.st7{fill:#FFFFFF;}
	.st8{fill:none;stroke:#C1272D;stroke-miterlimit:10;}
	.st9{fill:#FFFFFF;stroke:#E6E6E6;stroke-miterlimit:10;}
	.st10{fill:#AA1521;}
	.st11{fill:#4D4D4D;}
	.st12{fill:none;stroke:#FFFFFF;stroke-miterlimit:10;}
	.st13{clip-path:url(#SVGID_2_);}
	.st14{clip-path:url(#SVGID_4_);fill:#343F3B;}
	.st15{clip-path:url(#SVGID_4_);fill:#FFFFFF;}
	.st16{clip-path:url(#SVGID_4_);fill:#F2F2F2;}
	.st17{clip-path:url(#SVGID_4_);fill:#BE2135;}
	.st18{fill:#EFE158;}
</style>
<g id="lighthouse">
	<circle class="st0" cx="200" cy="200" r="196"/>
	<path class="st1" d="M346.6,330.1C310.7,370.5,258.3,396,200,396c-58.3,0-110.7-25.5-146.6-65.9"/>
	<path class="st2" d="M248.5,80.1h-3.5c-1.1,0-1.9,0.9-1.9,1.9v6.2c0,1.1,0.9,1.9,1.9,1.9h3.5c1.1,0,1.9-0.9,1.9-1.9V82
		C250.5,80.9,249.6,80.1,248.5,80.1z"/>
	<path class="st3" d="M267.3,67.7c-1-10.3-10-18.4-21-18.4c-11,0-20,8.1-21,18.4c-0.1,0.2-0.1,0.4-0.1,0.6v32.7
		c0,1.1,0.9,2.1,2.1,2.1h38.1c1.1,0,2.1-0.9,2.1-2.1V68.3C267.4,68.1,267.4,67.9,267.3,67.7z M266.5,90.6c-22-5.5-40.4,0-40.4,0
		V66.8c22.9-6.4,40.4,0,40.4,0V90.6z"/>
	<ellipse class="st3" cx="246.3" cy="68.1" rx="20.2" ry="5"/>
	<path class="st4" d="M224.2,93.8v13.4h44.2V93.8C268.4,93.8,246,87.1,224.2,93.8z"/>
	<path class="st5" d="M210.5,97c0,0,8.9,0.8,13.6-3.3c0,0,6.6,4.2,14.4-0.4c0,0,6.9,5.5,16.5,0c0,0,6,3.5,13.3,0.4
		c0,0,6.1,5.1,13.6,1.4"/>
	<path class="st5" d="M210.5,102.5c0,0,8.9,0.8,13.6-3.3c0,0,6.6,4.2,14.4-0.4c0,0,6.9,5.5,16.5,0c0,0,6,3.5,13.3,0.4
		c0,0,6.1,5.1,13.6,1.4"/>
	<line class="st6" x1="223.9" y1="87.9" x2="223.9" y2="109"/>
	<line class="st6" x1="268.8" y1="88.8" x2="268.8" y2="109"/>
	<line class="st6" x1="238.5" y1="87.4" x2="238.5" y2="107.6"/>
	<line class="st6" x1="255.1" y1="87.4" x2="255.1" y2="110.3"/>
	<path class="st6" d="M210.5,90.6v16.5H282V90.6C282,90.6,245.9,82.4,210.5,90.6z"/>
	<path class="st7" d="M211.5,115.3c4.6,5.4-11.9,214.8-11.9,214.8h92.7c0,0-15.6-207.3-11-214.8c0,0,9.2-2.2,4.6-7.6
		c-4.6-5.4-73.4-5.4-78,0C203.2,113.1,211.5,115.3,211.5,115.3z"/>
	<path class="st8" d="M210.1,113.1"/>
	<path class="st9" d="M211.5,114.5c0,0,22.1-5.5,69.7,0"/>
	<path class="st3" d="M223.4,67.7"/>
	<line class="st6" x1="246.8" y1="64" x2="246.8" y2="89.2"/>
	<line class="st6" x1="233.9" y1="65.8" x2="233.9" y2="91.1"/>
	<line class="st6" x1="258.7" y1="64.9" x2="258.7" y2="90.2"/>
	<path class="st10" d="M220.6,68.6c0,0,22-1.8,51.4,0l-5.5-3.7c0,0-13.8-7.3-40.4-0.9L220.6,68.6z"/>
	<path class="st6" d="M226.1,76.4c0-1.8,9-3.2,20.2-3.2s20.2,1.4,20.2,3.2"/>
	<path class="st6" d="M226.1,83.7c0-1.8,9-3.2,20.2-3.2s20.2,1.4,20.2,3.2"/>
	<rect x="243.6" y="44.7" class="st3" width="5.5" height="7.3"/>
	<path class="st3" d="M250.9,42.9c0,1.5-2.9,2.8-4.6,2.8c-1.7,0-4.6-1.2-4.6-2.8c0-1.5,2.9-6.4,4.6-6.4
		C248,36.5,250.9,41.4,250.9,42.9z"/>
	<g>
		<path class="st3" d="M246.3,39.2c-0.4-1.5-0.5-3.1-0.5-4.6c0-1.5,0.1-3.1,0.5-4.6c0.4,1.5,0.5,3.1,0.5,4.6
			C246.8,36.2,246.7,37.7,246.3,39.2z"/>
	</g>
	<rect x="225.2" y="209" class="st11" width="8.3" height="22"/>
	<line class="st12" x1="211.5" y1="215.4" x2="246.3" y2="215.4"/>
	<rect x="233.5" y="299.8" class="st3" width="17.4" height="30.3"/>
	<g>
		<g>
			<defs>
				<rect id="SVGID_1_" x="25" y="-33" width="672" height="672"/>
			</defs>
			<clipPath id="SVGID_2_">
				<use xlink:href="#SVGID_1_"  style="overflow:visible;"/>
			</clipPath>
			<g class="st13">
				<defs>
					<rect id="SVGID_3_" x="25" y="-33" width="672" height="672"/>
				</defs>
				<clipPath id="SVGID_4_">
					<use xlink:href="#SVGID_3_"  style="overflow:visible;"/>
				</clipPath>
				<path class="st14" d="M181.2,266v-9c0-1.5-1.2-2.7-2.7-2.7h-4.6c-1.5,0-2.7,1.2-2.7,2.7v6.6l-45.4-4.1v-4.6c0-1.2-1-2.3-2.3-2.3
					h-3.9c-1.2,0-2.3,1-2.3,2.3v8.9c0,1.2,1,2.3,2.3,2.3h3.9c0.6,0,1.2-0.3,1.6-0.7l19.1,19.1l60.5,5L181.2,266z"/>
				<polygon class="st15" points="131.6,270.2 124.1,261.9 124.1,252.6 114,252.6 114,261.3 106.1,270.2 93.4,284.5 93.9,284.5 
					93.9,329.9 144.3,329.9 144.3,284.5 				"/>
				<polyline class="st16" points="144.3,284.5 204.8,289.6 204.8,329.9 144.3,329.9 				"/>
				<polygon class="st17" points="171.2,310.4 182.9,311.5 182.9,329.9 171.2,329.9 				"/>
			</g>
		</g>
	</g>
	<circle class="st18" cx="98" cy="97" r="30"/>
</g>
<g id="Layer_1">
</g>
</svg>
